<svg xmlns="http://www.w3.org/2000/svg" width="81.999" height="82.001" viewBox="0 0 81.999 82.001">
  <g id="alfiler" transform="translate(-0.009)">
    <path id="Trazado_120545" data-name="Trazado 120545" d="M28.551,337.986l-6.833-6.833a1.674,1.674,0,0,0-1.339-.5,1.708,1.708,0,0,0-1.247.683L.351,356.962a1.708,1.708,0,0,0,2.392,2.392l25.625-18.791a1.708,1.708,0,0,0,.2-2.586Z" transform="translate(0 -277.693)" fill="#cfd8dc"/>
    <path id="Trazado_120546" data-name="Trazado 120546" d="M97.235,195.371,80.152,178.288a15.229,15.229,0,0,0-10.093-3.195A17.626,17.626,0,0,0,57.233,180c-2.774,2.774-2.487,7.062.854,12.747a74.805,74.805,0,0,0,11.1,13.584c6.8,6.792,15.375,13.851,21.627,13.851a6.393,6.393,0,0,0,4.7-1.893C102.636,211.176,100.863,199,97.235,195.371Z" transform="translate(-46.475 -147.036)" fill="#d32f2f"/>
    <path id="Trazado_120547" data-name="Trazado 120547" d="M221.7,124.26l-17.083-17.083a1.708,1.708,0,0,0-2.416,0l-13.666,13.666c-2.234,2.234-2.05,7.175,5.125,14.374,4.684,4.684,8.418,6.389,11.07,6.389a4.533,4.533,0,0,0,3.3-1.264L221.7,126.676A1.708,1.708,0,0,0,221.7,124.26Z" transform="translate(-157.271 -89.592)" fill="#f44336"/>
    <path id="Trazado_120548" data-name="Trazado 120548" d="M313.675,30.1a1.709,1.709,0,0,0-1.578-1.056c-3.7,0-11.835-4-17.582-9.751s-9.751-13.875-9.751-17.582A1.708,1.708,0,0,0,281.846.5c-6.977,6.98-9.156,18.884,1.708,29.748A22.843,22.843,0,0,0,299.68,37.8,19.327,19.327,0,0,0,313.3,31.958,1.708,1.708,0,0,0,313.675,30.1Z" transform="translate(-231.797 0)" fill="#d32f2f"/>
    <path id="Trazado_120549" data-name="Trazado 120549" d="M331.052,10.768c-7.236-7.233-13.779-10.749-20-10.749a1.708,1.708,0,0,0-1.708,1.708c0,5.1,4.824,14.073,10.749,20s14.9,10.749,20,10.749a1.708,1.708,0,0,0,1.708-1.708C341.8,24.543,338.285,18,331.052,10.768Z" transform="translate(-259.793 -0.016)" fill="#f44336"/>
    <path id="Trazado_120550" data-name="Trazado 120550" d="M299.691,37.817a22.837,22.837,0,0,1-16.126-7.547,23.123,23.123,0,0,1-7.544-16.038A19.164,19.164,0,0,1,281.857.518a1.708,1.708,0,0,1,1.209-.5c6.225,0,12.768,3.516,20,10.749s10.749,13.779,10.749,20a1.708,1.708,0,0,1-.5,1.209A19.331,19.331,0,0,1,299.691,37.817ZM283.773,3.456A15.661,15.661,0,0,0,279.434,14.2a19.816,19.816,0,0,0,6.546,13.646c9.515,9.519,18.949,7.223,24.4,2.207-.284-5.026-3.553-10.7-9.73-16.875S288.8,3.74,283.773,3.456Z" transform="translate(-231.808 -0.016)"/>
    <path id="Trazado_120551" data-name="Trazado 120551" d="M340.092,32.477c-5.1,0-14.07-4.821-20-10.749s-10.749-14.9-10.749-20a1.708,1.708,0,0,1,3.417,0c0,3.707,4,11.839,9.751,17.582s13.878,9.751,17.582,9.751a1.708,1.708,0,1,1,0,3.417Z" transform="translate(-259.793 -0.016)"/>
    <path id="Trazado_120552" data-name="Trazado 120552" d="M204.727,141.517c-2.651,0-6.386-1.708-11.07-6.389-7.175-7.175-7.359-12.139-5.125-14.374L202.2,107.088a1.708,1.708,0,0,1,2.458,2.374l-.042.042L190.947,123.17c-.683.683-.362,4.056,5.125,9.543s8.849,5.808,9.543,5.125l13.666-13.666a1.708,1.708,0,0,1,2.416,2.416l-13.666,13.666A4.536,4.536,0,0,1,204.727,141.517Z" transform="translate(-157.271 -89.5)"/>
    <path id="Trazado_120553" data-name="Trazado 120553" d="M90.888,220.182c-6.266,0-14.831-7.055-21.627-13.851A74.8,74.8,0,0,1,58.167,192.75c-3.345-5.685-3.628-9.976-.854-12.747A17.688,17.688,0,0,1,69.985,175.1h.14a15.228,15.228,0,0,1,10.086,3.2,1.708,1.708,0,0,1-2.415,2.416,12.48,12.48,0,0,0-7.67-2.2h-.133a14.515,14.515,0,0,0-10.277,3.905c-1.913,1.913-.3,5.733,1.387,8.606a71.594,71.594,0,0,0,10.571,12.894c10.318,10.318,18.556,14.9,21.5,11.958a15.289,15.289,0,0,0,1.708-18.084,1.708,1.708,0,0,1,2.415-2.416c3.628,3.632,5.4,15.805-1.708,22.915A6.394,6.394,0,0,1,90.888,220.182Z" transform="translate(-46.542 -147.039)"/>
    <path id="Trazado_120554" data-name="Trazado 120554" d="M1.718,359.735A1.708,1.708,0,0,1,.352,357l18.791-25.625a1.708,1.708,0,0,1,2.733,2.05L9.662,350.083l16.656-12.214A1.708,1.708,0,0,1,28.37,340.6l0,0L2.743,359.393A1.706,1.706,0,0,1,1.718,359.735Z" transform="translate(-0.001 -277.733)"/>
  </g>
</svg>
