<svg xmlns="http://www.w3.org/2000/svg" xmlns:xlink="http://www.w3.org/1999/xlink" width="611" height="310" viewBox="0 0 611 310">
  <defs>
    <clipPath id="clip-path">
      <rect id="Rect치ngulo_34324" data-name="Rect치ngulo 34324" width="611" height="309" rx="20" transform="translate(-9014 665)" fill="#38dbcf"/>
    </clipPath>
    <clipPath id="clip-path-2">
      <path id="Trazado_120140" data-name="Trazado 120140" d="M931.64,491.8c0,5.439-3.817,7.637-8.535,4.912l-97.6-56.349c-4.707-2.718-8.527-9.33-8.527-14.759l.006-160.251c-.006-5.432,3.815-7.631,8.526-4.912l97.606,56.36c4.711,2.711,8.534,9.321,8.529,14.753Z" transform="translate(-816.973 -259.28)" fill="none"/>
    </clipPath>
  </defs>
  <g id="Grupo_86480" data-name="Grupo 86480" transform="translate(9680 3305)">
    <rect id="Rect치ngulo_34459" data-name="Rect치ngulo 34459" width="610" height="310" rx="20" transform="translate(-9680 -3305)" fill="#38dbcf"/>
    <g id="Enmascarar_grupo_71" data-name="Enmascarar grupo 71" transform="translate(-666 -3970)" clip-path="url(#clip-path)">
      <g id="Grupo_85864" data-name="Grupo 85864" transform="translate(-9469.83 437.741)">
        <g id="Grupo_85815" data-name="Grupo 85815" transform="translate(776.464 204.741)">
          <path id="Trazado_120097" data-name="Trazado 120097" d="M868.314,208.982c-5.549,3.2-9.093,8.012-9.357,12.066a21.809,21.809,0,0,0-.418,4.352l0,283.109c-.007,12.28,8.626,27.214,19.27,33.36L978.2,599.828a21.376,21.376,0,0,0,4.21,1.882c3.667,1.552,9.361.822,14.7-2.262a22.572,22.572,0,0,0,6.656-5.705c2.108-2.346,3.347-5.94,3.352-10.581l0-283.108c0-12.28-8.628-27.213-19.274-33.361l-100.387-57.96a21.64,21.64,0,0,0-4.034-1.829C879.775,205.116,873.849,205.785,868.314,208.982Z" transform="translate(-857.602 -205.189)" fill="#ffa99d"/>
          <path id="Trazado_120098" data-name="Trazado 120098" d="M1007.362,300.055c0-12.28-8.628-27.213-19.274-33.361L887.7,208.734a21.64,21.64,0,0,0-4.034-1.829c-3.643-1.789-9.568-1.12-15.1,2.077s-9.093,8.012-9.357,12.066l0,.013c1.833-9.018,9.575-12.122,18.859-6.761L978.45,272.261c10.646,6.146,19.277,21.079,19.277,33.356l0,283.108c0,10.611-6.457,15.746-15.082,12.981l.012,0c3.667,1.552,9.361.822,14.7-2.262a22.572,22.572,0,0,0,6.656-5.705c2.108-2.346,3.347-5.94,3.352-10.581Z" transform="translate(-857.853 -205.189)" fill="#0d1756"/>
          <g id="Grupo_85811" data-name="Grupo 85811" transform="translate(0.197)">
            <path id="Trazado_120099" data-name="Trazado 120099" d="M986.257,602.782a11.82,11.82,0,0,1-4.551-.826,22.008,22.008,0,0,1-4.322-1.937L877,542.061c-10.836-6.257-19.646-21.51-19.64-34l0-283.108a22.679,22.679,0,0,1,.423-4.451c.315-4.433,4.125-9.376,9.721-12.607s11.759-4.055,15.753-2.123a22.482,22.482,0,0,1,4.123,1.875l100.387,57.96c10.831,6.255,19.644,21.508,19.644,34l0,283.108c0,4.673-1.229,8.5-3.541,11.075a23.224,23.224,0,0,1-6.837,5.852A22.22,22.22,0,0,1,986.257,602.782ZM868.237,209.174c-5.122,2.957-8.734,7.568-8.989,11.473a.774.774,0,0,1-.014.1,21.153,21.153,0,0,0-.4,4.205l0,283.109c-.006,12.02,8.472,26.7,18.9,32.72L978.122,598.74a20.669,20.669,0,0,0,4.065,1.819c.021.006.042.014.064.023,3.575,1.514,9.087.641,14.042-2.222a21.823,21.823,0,0,0,6.438-5.514c2.1-2.341,3.2-5.829,3.2-10.132l0-283.107c0-12.023-8.481-26.7-18.9-32.721l-100.387-57.96a20.965,20.965,0,0,0-3.9-1.767.729.729,0,0,1-.095-.039c-3.508-1.724-9.3-.9-14.407,2.054Zm-.37-.641h0Z" transform="translate(-857.353 -204.741)" fill="#0d1756"/>
          </g>
          <g id="Grupo_85812" data-name="Grupo 85812" transform="translate(0 9.451)">
            <path id="Trazado_120100" data-name="Trazado 120100" d="M858.225,233.451l0,283.106c0,11.032,7.776,24.5,17.348,30.026L975.955,604.54c9.563,5.517,17.346,1.035,17.346-10l0-283.108c0-11.034-7.785-24.5-17.345-30.02l-100.392-57.96C866,217.932,858.223,222.418,858.225,233.451Z" transform="translate(-857.483 -220.344)" fill="#ffa99d"/>
            <path id="Trazado_120101" data-name="Trazado 120101" d="M983.244,607.2a16.462,16.462,0,0,1-8.1-2.468L874.755,546.773c-9.772-5.646-17.72-19.4-17.718-30.667l0-283.106c0-5.608,1.933-9.814,5.447-11.843s8.135-1.6,13,1.208l100.392,57.96c9.767,5.641,17.714,19.394,17.714,30.661l0,283.108c0,5.605-1.936,9.811-5.45,11.839A9.664,9.664,0,0,1,983.244,607.2ZM867.386,221.373a8.209,8.209,0,0,0-4.16,1.064c-3.037,1.753-4.709,5.5-4.708,10.563h0l0,283.106c0,10.793,7.614,23.976,16.979,29.386l100.384,57.957c4.39,2.533,8.486,2.959,11.527,1.2s4.709-5.5,4.709-10.56l0-283.108c0-10.8-7.615-23.975-16.974-29.38L874.75,223.645A15.013,15.013,0,0,0,867.386,221.373Z" transform="translate(-857.037 -219.894)" fill="#0d1756"/>
          </g>
          <path id="Trazado_120102" data-name="Trazado 120102" d="M978.861,290.723l-100.388-57.96c-6.9-3.984-12.526-.749-12.521,7.22l-.005,283.106c0,7.967,5.617,17.7,12.528,21.683l100.381,57.957c6.909,3.991,12.529.752,12.534-7.213V312.406C991.385,304.436,985.768,294.709,978.861,290.723Z" transform="translate(-860.39 -214.644)" fill="#fff"/>
          <path id="Trazado_120103" data-name="Trazado 120103" d="M978.061,695.653c3.2,1.844,5.781.358,5.787-3.329l-.006-22.225a12.757,12.757,0,0,0-5.781-10.01l-47.729-27.561-64.384-37.172v35.569l64.385,37.17Z" transform="translate(-860.39 -351.722)" opacity="0.5" style="mix-blend-mode: overlay;isolation: isolate"/>
          <path id="Trazado_120104" data-name="Trazado 120104" d="M964.4,479.575V319.33c.006-5.431-3.814-12.041-8.526-14.755l-89.916-51.918,0,179.923,89.911,51.909C960.581,487.212,964.4,485.013,964.4,479.575Z" transform="translate(-860.39 -222.771)" fill="#cee7fd"/>
          <g id="Grupo_85813" data-name="Grupo 85813" transform="translate(54.187 42.552)">
            <path id="Trazado_120105" data-name="Trazado 120105" d="M962.4,284.462c0,.742-.529,1.039-1.169.669l-16.142-9.318a2.6,2.6,0,0,1-1.169-2.016h0c.005-.742.529-1.042,1.169-.673l16.136,9.318a2.606,2.606,0,0,1,1.176,2.021Zm5.019,1.554c-.646-.374-1.169-.075-1.167.673a2.548,2.548,0,0,0,1.163,2.013c.641.374,1.169.074,1.164-.671A2.558,2.558,0,0,0,967.414,286.016Zm4.262,2.455c-.649-.371-1.17-.07-1.17.672a2.566,2.566,0,0,0,1.166,2.02c.647.377,1.164.071,1.164-.672A2.579,2.579,0,0,0,971.676,288.471Z" transform="translate(-943.914 -272.965)" fill="#cee7fd"/>
          </g>
          <g id="Grupo_85814" data-name="Grupo 85814" transform="translate(143.081 126.703)">
            <path id="Trazado_120106" data-name="Trazado 120106" d="M1088.383,444.313l1.89,1.093a1.825,1.825,0,0,0,1.834-.182,5.734,5.734,0,0,0,2.59-4.484l0-28.739a1.819,1.819,0,0,0-.757-1.675l-1.894-1.1h0l-.041-.018-.008,0a1.83,1.83,0,0,0-1.787.2,5.723,5.723,0,0,0-2.585,4.484v28.733a1.829,1.829,0,0,0,.719,1.648l0,.006.038.023C1088.383,444.309,1088.383,444.309,1088.383,444.313Z" transform="translate(-1086.883 -408.328)" fill="#ffa99d"/>
            <path id="Trazado_120107" data-name="Trazado 120107" d="M1090.5,445.872a2.067,2.067,0,0,1-1.043-.27l-1.85-1.07a.661.661,0,0,1-.064-.036.7.7,0,0,1-.09-.064,2.559,2.559,0,0,1-1.017-2.243V413.456a6.458,6.458,0,0,1,2.954-5.124,2.613,2.613,0,0,1,2.4-.266.626.626,0,0,1,.073.029c.022.01.083.039.1.051l1.894,1.1a2.541,2.541,0,0,1,1.126,2.317l0,28.737a6.477,6.477,0,0,1-2.958,5.123A3.071,3.071,0,0,1,1090.5,445.872Zm-2.142-2.614,1.839,1.063a1.176,1.176,0,0,0,1.092-.181,5.013,5.013,0,0,0,2.222-3.846l0-28.738a1.169,1.169,0,0,0-.387-1.035l-1.823-1.054a.743.743,0,0,1-.1-.046,1.187,1.187,0,0,0-1.065.19,4.993,4.993,0,0,0-2.215,3.845V442.19a1.175,1.175,0,0,0,.369,1.019l.045.031Zm.318.61h0Z" transform="translate(-1086.437 -407.883)" fill="#0d1756"/>
          </g>
          <path id="Trazado_120108" data-name="Trazado 120108" d="M910.81,218.71a7.851,7.851,0,0,0-7.112-.006c-1.963,1.133-1.96,2.971,0,4.106a7.854,7.854,0,0,0,7.116,0C912.777,221.678,912.775,219.842,910.81,218.71Zm-.921,3.929a5.838,5.838,0,0,1-5.265,0c-1.451-.843-1.453-2.209,0-3.046a5.8,5.8,0,0,1,5.263.007C911.34,220.439,911.345,221.8,909.889,222.639Z" transform="translate(-874.041 -209.676)" opacity="0.1" style="mix-blend-mode: overlay;isolation: isolate"/>
          <path id="Trazado_120109" data-name="Trazado 120109" d="M905.413,220.268a5.8,5.8,0,0,1,5.263.007c1.453.836,1.458,2.2,0,3.036a5.838,5.838,0,0,1-5.265,0C903.962,222.471,903.96,221.105,905.413,220.268Z" transform="translate(-874.83 -210.347)" opacity="0.2" style="mix-blend-mode: overlay;isolation: isolate"/>
        </g>
        <g id="Grupo_85837" data-name="Grupo 85837" transform="translate(739.76 236.377)">
          <g id="Grupo_85816" data-name="Grupo 85816" transform="translate(11.715 0.743)">
            <path id="Trazado_120110" data-name="Trazado 120110" d="M925.952,314.175l-97.606-56.357c-2.359-1.36-4.494-1.489-6.04-.591l-2.8,1.612c-1.564.879-2.535,2.792-2.532,5.53l-.006,160.251c0,5.429,3.82,12.041,8.527,14.759l97.6,56.349c4.718,2.726,8.535.527,8.535-4.912,0,2.721-.951,4.63-2.5,5.519l2.769-1.6-.006-.013c1.591-.865,2.584-2.782,2.584-5.542V328.929C934.486,323.5,930.672,316.892,925.952,314.175Z" transform="translate(-816.973 -256.654)" fill="#ffa99d"/>
            <path id="Trazado_120111" data-name="Trazado 120111" d="M827.02,259.458l97.606,56.36c4.712,2.711,8.534,9.321,8.529,14.753V490.817c0,2.721-.951,4.63-2.5,5.519l2.769-1.6-.006-.013c1.591-.865,2.584-2.782,2.584-5.542V328.929c0-5.431-3.814-12.036-8.535-14.753l-97.606-56.357c-2.359-1.36-4.494-1.489-6.04-.591L821,258.854C822.539,257.971,824.668,258.1,827.02,259.458Z" transform="translate(-818.488 -256.654)" opacity="0.3" style="mix-blend-mode: overlay;isolation: isolate"/>
          </g>
          <g id="Grupo_85831" data-name="Grupo 85831" transform="translate(11.715 2.381)">
            <g id="Grupo_85830" data-name="Grupo 85830" clip-path="url(#clip-path-2)">
              <g id="Grupo_85829" data-name="Grupo 85829" transform="translate(-37.184 72.346)">
                <g id="Grupo_85820" data-name="Grupo 85820" transform="translate(0 71.295)">
                  <g id="Grupo_85817" data-name="Grupo 85817" transform="translate(0 138.84)">
                    <path id="Trazado_120112" data-name="Trazado 120112" d="M775.81,719.946c-2.849,5.277-8.337,11.433-15.037,21.565a22.891,22.891,0,0,0-3.274,14.781c.556,4.888,1.081,6.116,3.12,9.118s2.837,4.548,4.026,4.479,2.033-1.779,2.033-1.779.8,2.484,2.782,2.374,1.943-3.1,1.943-3.1a2.414,2.414,0,0,0,2.561-.547c1.029-1.148-.481-3.882-.481-3.882a1.634,1.634,0,0,0,1.741-1.955c-.115-2.127-2.436-5.573-2.106-7.926.336-2.33-.966-1.8,1.949-5.407s6.587-8.007,7.665-12.395-.1-4.233,3.007-7.8c24.548-28.277,1.623-8.194-1.212-10.715S778.808,714.413,775.81,719.946Z" transform="translate(-757.356 -712.178)" fill="#f1bd9a"/>
                    <path id="Trazado_120113" data-name="Trazado 120113" d="M763.638,751.126c.632-6.263,7.046-10.924,11.711-18.108a163.126,163.126,0,0,1,12.567-16.1c5.511-1.1,22.017-14.951-.135,10.561-3.109,3.57-1.924,3.422-3.007,7.8s-4.748,8.778-7.665,12.395-1.613,3.077-1.949,5.407c-.331,2.353,1.99,5.8,2.106,7.926a1.633,1.633,0,0,1-1.741,1.955s1.511,2.734.481,3.882a2.414,2.414,0,0,1-2.561.547s.045,2.983-1.943,3.1-2.782-2.374-2.782-2.374a4.771,4.771,0,0,1-1.09,1.358C760.755,760.856,763.013,757.378,763.638,751.126Z" transform="translate(-759.398 -712.177)" opacity="0.3" style="mix-blend-mode: overlay;isolation: isolate"/>
                    <path id="Trazado_120114" data-name="Trazado 120114" d="M767.844,783.307c-2.318,2.512-3.49,1.648-4.421.58s.081-2.74.251-3.165c.178-.449-.548-.936-.848-2.282-.314-1.331.258-1.77.2-3.3a16.459,16.459,0,0,1,1.144-6.36,40.909,40.909,0,0,0,2.165-6.293c.495-1.822,1.183-1.271,1.513,1.025.337,2.321-1.264,4.515-3.119,9.354-1.849,4.808-2.28,6.561.173,7.614,2.443,1.072,5.572-4.7,6.411-7.262.854-2.592,2.747-3.144,4.944-5.965h0c-1.8,2.449-.817,2.27-1.112,4.343a5.748,5.748,0,0,0,.272,2.256c-1.211,1.243-2.475,2.421-3.541,3.314C769.405,779.235,770.155,780.786,767.844,783.307Z" transform="translate(-759.379 -730.7)" opacity="0.3" style="mix-blend-mode: overlay;isolation: isolate"/>
                  </g>
                  <g id="Grupo_85819" data-name="Grupo 85819" transform="translate(10.046)">
                    <path id="Trazado_120115" data-name="Trazado 120115" d="M804.071,622.766l-30.563,69.02c-.873,7.936,11.214,12.809,15.56,8.323,9.156-9.469,40.485-53.142,44.318-73.417C838.054,602.006,812.913,605.136,804.071,622.766Z" transform="translate(-773.463 -534.461)" fill="#75d19e"/>
                    <path id="Trazado_120116" data-name="Trazado 120116" d="M804.071,622.766l-30.563,69.02c-.873,7.936,11.214,12.809,15.56,8.323,9.156-9.469,40.485-53.142,44.318-73.417C838.054,602.006,812.913,605.136,804.071,622.766Z" transform="translate(-773.463 -534.461)" opacity="0.1" style="mix-blend-mode: overlay;isolation: isolate"/>
                    <path id="Trazado_120117" data-name="Trazado 120117" d="M857.724,496.032c5.336,9.961-1.229,80.51-7.449,90.73-2.129,3.5-11.869,28.034-16.445,27.172a9.584,9.584,0,0,1-5.072-2.4c-7.695-7.667-5.245-52.3-5.425-70.049-.166-16.764,3.835-45.661,23.929-50.424C851.447,490.079,855.264,491.419,857.724,496.032Z" transform="translate(-792.14 -490.021)" fill="#80b6f1"/>
                    <path id="Trazado_120118" data-name="Trazado 120118" d="M857.724,496.032c5.336,9.961-1.229,80.51-7.449,90.73-2.129,3.5-11.869,28.034-16.445,27.172a9.584,9.584,0,0,1-5.072-2.4c-7.695-7.667-5.245-52.3-5.425-70.049-.166-16.764,3.835-45.661,23.929-50.424C851.447,490.079,855.264,491.419,857.724,496.032Z" transform="translate(-792.14 -490.021)" fill="#3199f0"/>
                    <g id="Grupo_85818" data-name="Grupo 85818" transform="translate(30.216)">
                      <path id="Trazado_120119" data-name="Trazado 120119" d="M833.6,614.249a1.909,1.909,0,0,1-.353-.032,10.1,10.1,0,0,1-5.458-2.6c-6.455-6.432-6.039-36.243-5.735-58.01.069-4.934.128-9.195.094-12.554-.062-6.337.427-18.655,4.409-29.965,4.187-11.891,10.946-19.018,20.089-21.185,4.837-1.135,8.842.763,11.286,5.34h0c2.958,5.522,2.3,27.218.693,45.681-1.633,18.8-4.79,40.242-8.162,45.783-.5.815-1.459,2.9-2.678,5.537C842.417,603.846,837.3,614.249,833.6,614.249Zm15.7-123.194a10.109,10.109,0,0,0-2.311.282c-22.646,5.368-23.431,42.339-23.358,49.7.034,3.377-.026,7.647-.094,12.59-.283,20.289-.711,50.951,5.3,56.943a8.693,8.693,0,0,0,4.688,2.2.81.81,0,0,0,.157.014c2.986,0,9.817-14.783,12.763-21.159,1.239-2.681,2.217-4.8,2.756-5.685,2.769-4.549,6.039-23.112,7.953-45.142,1.993-22.934,1.787-40.54-.524-44.855v0C854.9,492.712,852.4,491.054,849.292,491.054Z" transform="translate(-821.908 -489.577)" fill="#005bea"/>
                    </g>
                    <path id="Trazado_120120" data-name="Trazado 120120" d="M824.813,584.575v0c5.579-18.7,10.489-77.212,5.661-86.217-.871-1.638-1.718-3.805-2.622-5.87a22.549,22.549,0,0,1,4.066-1.421c4.186-.982,8,.357,10.463,4.97,4.829,9.006-.082,67.521-5.661,86.216v.005c-3.833,20.275-35.162,63.948-44.318,73.416-2.243,2.322-6.552,2.121-10.079.313C793.23,643.488,821.2,603.661,824.813,584.575Z" transform="translate(-776.796 -490.021)" opacity="0.1" style="mix-blend-mode: overlay;isolation: isolate"/>
                  </g>
                </g>
                <path id="Trazado_120121" data-name="Trazado 120121" d="M841.094,708.833l2.032-3.489c2.726-.283,1.846-2.151,4.694-2.151,26.928,0,47.792-26.405,51.05,19.334l26.589-4.572-.115,10.093a28.172,28.172,0,0,1-11.278,5.208C894.9,737.577,845.953,730.126,841.094,708.833Z" transform="translate(-788.865 -495.809)" opacity="0.3" style="mix-blend-mode: overlay;isolation: isolate"/>
                <path id="Trazado_120122" data-name="Trazado 120122" d="M831.738,520.365c0-12.829,3.026-21.139,8.393-25.778,13.765-11.866,47.273-1.428,62.891,3.888a116.268,116.268,0,0,1,19.73,8.5c7.412,4.214,13.543,9.523,13.548,18.165L927.716,577c.032,27.046,5.244,28.333,1.687,55.132.017,10.3-8.194,17.749-18.857,20.149-20.179,4.546-73.4-3.938-73.4-27.895,0-14.41,1.705-29.582,1.2-41.257-1.526-35.023-6.611-39.521-6.611-62.767Z" transform="translate(-785.345 -418.118)" fill="#3199f0"/>
                <path id="Trazado_120123" data-name="Trazado 120123" d="M904.027,621.576c-1.527-35.028,0-38.975,0-62.219,0-12.83,3.026-21.14,8.392-25.778,4.264-3.674,10.419-5.2,17.349-5.416a23.7,23.7,0,0,0-11.334-15.778,116.429,116.429,0,0,0-19.729-8.5c-13.529-4.6-40.465-13.028-56.378-7.491a17.735,17.735,0,0,1,1.789-1.805c13.765-11.866,47.273-1.428,62.891,3.888a116.266,116.266,0,0,1,19.73,8.5c7.412,4.214,13.543,9.523,13.548,18.165L931.7,577c.032,27.046,5.244,28.333,1.687,55.132.017,10.3-8.194,17.749-18.857,20.149-1.45.326-8.463.579-10.221.77C904.757,641.973,904.412,630.484,904.027,621.576Z" transform="translate(-789.329 -418.118)" opacity="0.3" style="mix-blend-mode: overlay;isolation: isolate"/>
                <g id="Grupo_85821" data-name="Grupo 85821" transform="translate(45.654 70.243)">
                  <path id="Trazado_120124" data-name="Trazado 120124" d="M897.21,653.728c-17.125,0-40.5-4.654-52.8-14.493-5.6-4.481-8.445-9.634-8.445-15.317,0-6.516.347-13.17.682-19.6.409-7.841.8-15.246.519-21.622a249.4,249.4,0,0,0-4-36.469,135.059,135.059,0,0,1-2.611-26.33c0-12.515,2.91-21.377,8.649-26.337,10.019-8.638,30.826-7.413,63.612,3.747a116.049,116.049,0,0,1,19.858,8.562c6.478,3.683,13.916,9.15,13.921,18.806a.78.78,0,0,1-.01.122l-8.574,51.8a162.388,162.388,0,0,0,1.709,23.843c1.154,8.67,2.065,15.521-.022,31.277-.009,10-7.632,18.165-19.435,20.821A61.477,61.477,0,0,1,897.21,653.728Zm-38.586-164.3q-12.35,0-18.456,5.244c-5.4,4.667-8.136,13.151-8.136,25.218a133.858,133.858,0,0,0,2.589,26.076,250.691,250.691,0,0,1,4.02,36.658c.28,6.447-.108,13.886-.519,21.763-.334,6.416-.679,13.049-.679,19.527,0,5.211,2.653,9.976,7.888,14.163,15.6,12.476,49.42,16.432,64.6,13.01,11.121-2.5,18.3-10.128,18.281-19.426a.9.9,0,0,1,.006-.1c2.071-15.6,1.17-22.365.029-30.936a163.761,163.761,0,0,1-1.722-24.1.73.73,0,0,1,.01-.122l8.574-51.8c-.037-8.859-7.057-13.985-13.174-17.463a114.592,114.592,0,0,0-19.6-8.447C884.186,492.526,869.576,489.432,858.624,489.432Z" transform="translate(-830.553 -487.89)" fill="#005bea"/>
                </g>
                <g id="Grupo_85822" data-name="Grupo 85822" transform="translate(96.026 243.986)">
                  <path id="Trazado_120125" data-name="Trazado 120125" d="M937.026,768.376c-2.59,5.288-4.785,14.574-7.977,16.2-5.35,2.715-2.981,1.395-5.558,3.189a23.91,23.91,0,0,0-7.059,7.316c-2.238,3.548-6.008,5.965-4.926,7.816,1.087,1.869,3.345.605,4.405.187,1.08-.419,5.736-5.229,6.131-5.052.39.192.159,3.1-.02,5.416a24.543,24.543,0,0,1-1.789,7.233c-.946,2.284-4.265,11.022-3.032,12.312s3.185-.7,3.185-.7.917,2.725,3.908.095a55.677,55.677,0,0,0,4.953-4.852s1.584.409,3.566-1.66,1.81-2.443,1.81-2.443,1.71.517,5.184-4.82c3.5-5.34,4.29-17.172,7.51-21.405,3.323-4.377,5.3-7.7,6.431-10.764S940.17,761.959,937.026,768.376Z" transform="translate(-911.314 -766.451)" fill="#f1bd9a"/>
                  <path id="Trazado_120126" data-name="Trazado 120126" d="M958.881,777.85c-1.13,3.064-3.114,6.386-6.434,10.768-3.22,4.23-4.006,16.063-7.515,21.409-3.472,5.337-5.179,4.812-5.179,4.812s.165.377-1.813,2.455c-1.975,2.058-3.567,1.648-3.567,1.648a55.278,55.278,0,0,1-4.944,4.851c-2.987,2.631-3.911-.082-3.911-.082s-.17.16-.43.364c4.7-4.712,9.264-12.583,12.156-15.292,4.155-3.9,5.279-14.124,8.672-22.28,1.742-4.206,4.114-9.47,6.987-16.349C956.382,772.386,959.486,776.208,958.881,777.85Z" transform="translate(-916.497 -767.845)" opacity="0.3" style="mix-blend-mode: overlay;isolation: isolate"/>
                </g>
                <g id="Grupo_85824" data-name="Grupo 85824" transform="translate(115.755 93.237)">
                  <path id="Trazado_120127" data-name="Trazado 120127" d="M958.242,661.772l-15.3,73.916c.82,7.94,13.664,10.152,16.966,4.855,6.956-11.185,28.346-60.5,27.812-81.123C987.07,634.307,963.16,642.675,958.242,661.772Z" transform="translate(-942.945 -569.542)" fill="#75d19e"/>
                  <path id="Trazado_120128" data-name="Trazado 120128" d="M978.408,529.6c7.317,8.612,15.8,78.95,11.883,90.252-1.34,3.874-5.68,29.9-10.334,30.034a9.685,9.685,0,0,1-5.472-1.269c-9.135-5.874-16.17-50.017-20.094-67.33-3.7-16.348-5.9-45.436,12.743-54.335C971.016,525.11,975.024,525.618,978.408,529.6Z" transform="translate(-946.306 -525.198)" fill="#3199f0"/>
                  <path id="Trazado_120129" data-name="Trazado 120129" d="M980.907,619.856h0c1.507-19.453-6.058-77.682-12.675-85.469-1.2-1.418-2.481-3.353-3.809-5.183a22.558,22.558,0,0,1,3.681-2.248c3.884-1.846,7.891-1.338,11.276,2.648,6.618,7.788,14.178,66.017,12.676,85.472h0c.535,20.627-20.856,69.938-27.812,81.123-1.706,2.733-5.956,3.46-9.785,2.429C962.479,684.118,981.413,639.28,980.907,619.856Z" transform="translate(-947.277 -525.198)" opacity="0.2" style="mix-blend-mode: overlay;isolation: isolate"/>
                  <g id="Grupo_85823" data-name="Grupo 85823" transform="translate(4.826)">
                    <path id="Trazado_120130" data-name="Trazado 120130" d="M979.12,650.192a9.925,9.925,0,0,1-5.483-1.389c-7.669-4.931-13.56-34.165-17.86-55.51-.974-4.832-1.815-9.006-2.557-12.28-1.4-6.179-3.525-18.322-2.02-30.217,1.581-12.506,6.684-20.9,15.165-24.949,4.482-2.13,8.8-1.121,12.158,2.837h0c4.057,4.774,7.993,26.119,10.324,44.5,2.373,18.715,3.817,40.343,1.693,46.47-.311.9-.81,3.132-1.443,5.959-2.882,12.888-5.781,24.465-9.569,24.572C979.391,650.191,979.254,650.192,979.12,650.192Zm-8.238-123.958a9.02,9.02,0,0,0-3.881.948c-21.011,10.031-13.965,46.329-12.339,53.5.746,3.291,1.588,7.472,2.564,12.314,4.009,19.9,10.068,49.966,17.209,54.557a8.76,8.76,0,0,0,5.054,1.151c2.948-.084,6.6-16.434,8.165-23.417.642-2.872,1.15-5.14,1.488-6.119,1.744-5.031,1.019-23.864-1.763-45.8-2.9-22.836-6.815-40-9.984-43.731h0A8.5,8.5,0,0,0,970.882,526.234Z" transform="translate(-950.683 -524.756)" fill="#005bea"/>
                  </g>
                </g>
                <g id="Grupo_85828" data-name="Grupo 85828" transform="translate(67.363)">
                  <path id="Trazado_120131" data-name="Trazado 120131" d="M923.645,476.707a11.029,11.029,0,0,1-1.654,1.756c-4.1,3.148-21.221,17.157-33.173,12.971-16.613-5.82-7.213-18.742-3.611-23.923-.717-.107-1.4-.186-2.083-.269,2.265-2.815,3.642-7.771,3.642-17.813,0-13.624,10.157-21.8,18.33-21.3s18.556,4.795,16.2,16.26C919.716,452.041,915.894,469.351,923.645,476.707Z" transform="translate(-870.599 -395.153)" fill="#cee7fd"/>
                  <path id="Trazado_120132" data-name="Trazado 120132" d="M935.02,476.708a11.03,11.03,0,0,1-1.654,1.756c-.979.749-2.711,2.129-4.923,3.719-8.745-4.425-7.783-18.311-7.559-31.264.115-6.507-4.533-12.99-11.367-21.266a14.24,14.24,0,0,1,6.955-1.52c8.174.493,18.556,4.795,16.2,16.26C931.091,452.043,927.269,469.352,935.02,476.708Z" transform="translate(-881.974 -395.154)" opacity="0.5" style="mix-blend-mode: overlay;isolation: isolate"/>
                  <g id="Grupo_85825" data-name="Grupo 85825" transform="translate(7.946 32.216)">
                    <path id="Trazado_120133" data-name="Trazado 120133" d="M893.191,492.5a15.233,15.233,0,0,1-5.065-.817c-5.208-1.824-8.424-4.532-9.56-8.048-1.864-5.767,2.26-12.187,4.9-16l-.689-.083-.185-.022a.739.739,0,0,1-.488-1.2c2.406-2.991,3.479-8.342,3.479-17.35a23.167,23.167,0,0,1,7.009-17.152,16.611,16.611,0,0,1,12.106-4.885c6.453.389,12,2.838,14.848,6.55,2.2,2.873,2.883,6.439,2.028,10.6l-.124.6c-1.622,7.837-5,24.143,2.261,31.031a.739.739,0,0,1,.068,1A11.392,11.392,0,0,1,922,478.6l-.7.541C916.73,482.693,904.109,492.5,893.191,492.5Zm-9.2-26.289c.288.037.578.077.875.121a.739.739,0,0,1,.5,1.153l-.21.3c-2.426,3.481-6.941,9.96-5.184,15.394.986,3.053,3.894,5.444,8.642,7.108,10.984,3.845,26.634-8.32,31.777-12.317l.7-.543a8.039,8.039,0,0,0,1.109-1.123c-7.22-7.679-3.845-23.988-2.2-31.913l.124-.6c.766-3.72.176-6.883-1.753-9.4-2.587-3.377-7.732-5.609-13.764-5.973-3.661-.227-7.778,1.452-11,4.486a21.7,21.7,0,0,0-6.543,16.075C887.059,457.421,886.106,462.831,883.994,466.213Z" transform="translate(-878.098 -426.923)" fill="#005bea"/>
                  </g>
                  <path id="Trazado_120134" data-name="Trazado 120134" d="M870.883,411.223c0,15.191-.488,39.131,11.232,40.786s40.132-17.838,40.132-39.471-17.011-33.3-31.546-29.556C876.807,386.565,870.883,401.81,870.883,411.223Z" transform="translate(-867.436 -377.912)" fill="#cee7fd"/>
                  <path id="Trazado_120135" data-name="Trazado 120135" d="M925.513,416.033c0,21.633-28.4,41.125-40.132,39.471a8.731,8.731,0,0,1-5.822-3.687c2.014,1.052,5.278,3.231,9.284,1.34,7.419-3.507,18.216-12.907,18.921-21.216.885-10.336,3.506-16.472,5.129-21.845,0,0,.052-2.79,2.084-18.518C921.153,396.722,925.513,405.1,925.513,416.033Z" transform="translate(-870.702 -381.407)" opacity="0.5" style="mix-blend-mode: overlay;isolation: isolate"/>
                  <g id="Grupo_85826" data-name="Grupo 85826" transform="translate(2.705 3.631)">
                    <path id="Trazado_120136" data-name="Trazado 120136" d="M883.125,452.394a11.262,11.262,0,0,1-1.56-.1c-11.914-1.683-11.888-23.692-11.869-39.762v-1.756c0-9.843,6.321-25.334,20.373-28.957a24.237,24.237,0,0,1,20.948,4.654c7.323,5.675,11.523,15.013,11.523,25.618,0,9.655-5.721,20.163-15.7,28.831C898.832,447.879,889.393,452.394,883.125,452.394Zm12.661-69.824a21.407,21.407,0,0,0-5.347.677c-13.287,3.426-19.263,18.159-19.263,27.526l0,1.758c-.017,14.652-.044,36.794,10.6,38.3,5.785.813,15.693-3.719,24.1-11.025,9.653-8.387,15.188-18.489,15.188-27.715,0-10.294-3.889-18.977-10.949-24.449A23.426,23.426,0,0,0,895.786,382.57Z" transform="translate(-869.695 -381.092)" fill="#005bea"/>
                  </g>
                  <path id="Trazado_120137" data-name="Trazado 120137" d="M875.342,385.131c-7.45,7.461-15.658,9.577.653,17.63,11.67,5.758,17.217-1.666,26.089,1.322,5.214,1.751.515,14.561,1.945,14.947s4.276,1.73,5.076-.661c3.188-9.568,9.8-4.375,9.163.737s-5.77,11.24-4.334,16.234,3.578-4.853,8.821-15.01,5.7-29.148-9.4-38.476S884,376.454,875.342,385.131Z" transform="translate(-865.805 -375.727)" fill="#3199f0"/>
                  <path id="Trazado_120138" data-name="Trazado 120138" d="M921.65,381.857c15.1,9.328,14.631,28.326,9.4,38.476s-7.377,20-8.821,15.01,3.692-11.124,4.334-16.234-5.975-10.305-9.162-.737c-.788,2.345-3.532,1.1-4.989.684,1.495-5.212,4.015-8.827,6.139-12.477a17.2,17.2,0,0,0-.681-18.933c-8.252-12.312-23.371-8.418-29.283-6.513C897.233,375.517,909.147,374.144,921.65,381.857Z" transform="translate(-874.098 -375.731)" opacity="0.3" style="mix-blend-mode: overlay;isolation: isolate"/>
                  <g id="Grupo_85827" data-name="Grupo 85827">
                    <path id="Trazado_120139" data-name="Trazado 120139" d="M914.386,436.96l-.073,0c-1.01-.056-1.378-1.327-1.536-1.87-.936-3.256.634-6.817,2.154-10.26a24.286,24.286,0,0,0,2.157-6.271c.287-2.295-1.15-4.77-3.017-5.194-1.836-.417-3.558,1.325-4.711,4.782-.919,2.744-3.782,1.831-5.32,1.339-.238-.075-.457-.146-.649-.2-1.124-.3-.914-1.755-.5-4.648.538-3.726,1.351-9.358-1.492-10.312-3.665-1.234-6.777-.591-10.07.09-4.35.9-9.282,1.92-16.11-1.45-6.586-3.251-9.527-5.692-9.836-8.162-.314-2.507,2.047-4.525,5.035-7.079,1.226-1.048,2.615-2.235,3.951-3.574h0c8.18-8.2,22.7-13.394,38.926-3.385,15.523,9.591,14.945,29.207,9.667,39.444-1.845,3.574-3.309,7.126-4.486,9.981C916.424,435.177,915.625,436.96,914.386,436.96Zm-.838-25.133a3.887,3.887,0,0,1,.85.094c2.6.589,4.539,3.776,4.156,6.82a25.628,25.628,0,0,1-2.27,6.684c-1.413,3.2-2.875,6.513-2.086,9.253a4.009,4.009,0,0,0,.243.664,34.638,34.638,0,0,0,2.673-5.714c1.188-2.88,2.665-6.465,4.539-10.094,5.025-9.747,5.6-28.408-9.129-37.508-15.491-9.557-29.324-4.629-37.1,3.171h0c-1.378,1.38-2.791,2.588-4.037,3.653-2.65,2.266-4.744,4.055-4.529,5.773.233,1.865,3.1,4.1,9.023,7.02,6.371,3.144,10.837,2.22,15.156,1.327,3.343-.69,6.8-1.4,10.841-.044,4.011,1.347,3.092,7.712,2.484,11.924a20.411,20.411,0,0,0-.317,3.086c.14.042.291.09.448.14,2.04.651,3.081.759,3.469-.4C909.612,412.713,912.032,411.828,913.548,411.828ZM874.9,384.675h0Z" transform="translate(-865.358 -375.271)" fill="#005bea"/>
                  </g>
                </g>
              </g>
            </g>
          </g>
          <g id="Grupo_85832" data-name="Grupo 85832" transform="translate(10.975)">
            <path id="Trazado_120141" data-name="Trazado 120141" d="M926.481,497.194a8.495,8.495,0,0,1-4.193-1.274l-97.6-56.349c-4.906-2.833-8.9-9.742-8.9-15.4l.006-160.251c0-2.925,1.029-5.118,2.908-6.174l2.789-1.609c1.847-1.072,4.255-.864,6.778.591l97.606,56.358c4.91,2.827,8.9,9.732,8.9,15.393V488.73c0,2.882-1.005,5.046-2.835,6.116a.763.763,0,0,1-.111.08l-2.745,1.587-.022.013h0l0,0-.021.011A5.114,5.114,0,0,1,926.481,497.194ZM824.094,256.942a3.657,3.657,0,0,0-1.863.476l-2.8,1.614c-1.4.787-2.165,2.522-2.161,4.889l-.006,160.252c0,5.188,3.66,11.521,8.158,14.119l97.6,56.349c2.045,1.181,3.928,1.4,5.3.6s2.124-2.522,2.124-4.875a.739.739,0,1,1,1.479,0,9.643,9.643,0,0,1-.439,3.006c1.169-.862,1.806-2.489,1.806-4.644V328.48c0-5.191-3.662-11.521-8.164-14.113h0L827.53,258.009A7.033,7.033,0,0,0,824.094,256.942Z" transform="translate(-815.787 -255.462)" fill="#0d1756"/>
          </g>
          <g id="Grupo_85836" data-name="Grupo 85836" transform="translate(0 34.544)">
            <g id="Grupo_85833" data-name="Grupo 85833" transform="translate(0.74 0.739)">
              <path id="Trazado_120142" data-name="Trazado 120142" d="M867.752,354.789l5.686-3.283,38.854,22.433v44.817l-5.685,3.283-9.005-5.2v-34.43l-29.854-17.233Zm0,123.668,38.856,22.434,5.683-3.286,0-44.81-9-5.2-5.681,3.285,0,27.86-24.167-13.951-5.683,3.281ZM799.38,315.312l0,44.817,9,5.2,5.691-3.285,0-27.862,24.165,13.95,5.691-3.283,0-10.384-38.856-22.432Zm0,123.673,38.854,22.43,5.689-3.28,0-10.38L814.07,430.515V396.09l-9-5.2-5.688,3.283Z" transform="translate(-799.377 -312.032)" fill="#fff"/>
            </g>
            <g id="Grupo_85834" data-name="Grupo 85834" transform="translate(0.743 0.739)">
              <path id="Trazado_120143" data-name="Trazado 120143" d="M843.922,334.464l0,10.384-5.691,3.283V337.748l-38.851-22.436,5.685-3.28Zm-35.541,30.863,5.691-3.285,0-27.862,24.165,13.95L808.381,330.9Zm5.691,30.763-9-5.2-5.688,3.283,9,5.2.006,34.432,29.85,17.236-.006,10.376,5.689-3.28,0-10.38-29.853-17.239Zm59.368,68.7-5.683,3.281,29.85,17.238,0-34.428,0,27.86Zm0-113.286-5.686,3.283,38.859,22.433,0,44.816,5.685-3.283V373.938Zm24.169,99.378,9,5.195v44.813l5.683-3.286,0-44.81-9-5.2Z" transform="translate(-799.382 -312.032)" fill="#cee7fd"/>
            </g>
            <g id="Grupo_85835" data-name="Grupo 85835">
              <path id="Trazado_120144" data-name="Trazado 120144" d="M906.162,501.185a.74.74,0,0,1-.37-.1l-38.856-22.434a.741.741,0,0,1-.37-.641l0-10.384a.741.741,0,0,1,.37-.64l5.683-3.281a.741.741,0,0,1,.74,0l23.058,13.311,0-26.58a.739.739,0,0,1,.369-.64l5.681-3.286a.744.744,0,0,1,.74,0l9.005,5.2a.741.741,0,0,1,.37.641l0,44.81a.741.741,0,0,1-.369.641l-5.683,3.286A.742.742,0,0,1,906.162,501.185Zm-38.117-23.6,38.117,22.007,4.944-2.859,0-43.957-8.265-4.77-4.942,2.858,0,27.434a.74.74,0,0,1-1.11.641l-23.8-13.739-4.945,2.855Zm-30.26-15.877a.739.739,0,0,1-.37-.1l-38.855-22.43a.741.741,0,0,1-.37-.641l0-44.81a.741.741,0,0,1,.37-.641l5.688-3.283a.736.736,0,0,1,.74,0l9,5.2a.739.739,0,0,1,.37.641v34l29.484,17.026a.741.741,0,0,1,.369.641l0,10.38a.74.74,0,0,1-.37.641l-5.689,3.28A.737.737,0,0,1,837.785,461.708Zm-38.115-23.6,38.115,22,4.95-2.854,0-9.527L813.254,430.71a.741.741,0,0,1-.37-.641v-34l-8.262-4.772-4.949,2.857Zm106.492-15.781a.739.739,0,0,1-.37-.1l-9-5.2a.739.739,0,0,1-.37-.641v-34l-29.485-17.019a.741.741,0,0,1-.37-.641l0-10.385a.74.74,0,0,1,.37-.639l5.686-3.283a.739.739,0,0,1,.74,0l38.854,22.433a.74.74,0,0,1,.37.64v44.817a.74.74,0,0,1-.37.64l-5.685,3.283A.738.738,0,0,1,906.162,422.331Zm-8.266-6.366,8.266,4.773,4.945-2.856V373.919l-38.115-22.005-4.948,2.857,0,9.531,29.484,17.02a.74.74,0,0,1,.37.64ZM807.933,365.62a.736.736,0,0,1-.369-.1l-9-5.2a.741.741,0,0,1-.37-.64l0-44.817a.738.738,0,0,1,.37-.64l5.685-3.28a.737.737,0,0,1,.739,0l38.856,22.432a.74.74,0,0,1,.369.64l0,10.383a.74.74,0,0,1-.37.641l-5.692,3.283a.743.743,0,0,1-.739,0l-23.056-13.31,0,26.582a.739.739,0,0,1-.37.64l-5.69,3.285A.738.738,0,0,1,807.933,365.62Zm-8.263-6.365,8.263,4.772,4.951-2.857,0-27.435a.739.739,0,0,1,1.109-.64l23.8,13.737,4.952-2.857,0-9.529-38.117-22.006-4.945,2.854Z" transform="translate(-798.191 -310.847)" fill="#0d1756"/>
            </g>
          </g>
        </g>
        <g id="Grupo_85841" data-name="Grupo 85841" transform="translate(703.908 420.84)">
          <g id="Grupo_85838" data-name="Grupo 85838" transform="translate(0)">
            <path id="Trazado_120145" data-name="Trazado 120145" d="M747.68,553.192c-3.2-1.845-5.783-.352-5.783,3.333l0,22.227a12.78,12.78,0,0,0,5.784,10.008l122.929,70.968V624.16Z" transform="translate(-741.156 -551.659)" fill="#fff"/>
            <path id="Trazado_120146" data-name="Trazado 120146" d="M870.162,660.019a.746.746,0,0,1-.37-.1L746.864,588.953A13.413,13.413,0,0,1,740.71,578.3l0-22.228c0-2.056.732-3.611,2.061-4.379s3.046-.624,4.831.407h0l122.928,70.969a.738.738,0,0,1,.37.64V659.28a.74.74,0,0,1-.739.739ZM744.651,552.69a2.244,2.244,0,0,0-1.14.288,3.372,3.372,0,0,0-1.322,3.1V578.3a11.977,11.977,0,0,0,5.414,9.368L869.423,658V624.14L746.864,553.384h0A4.547,4.547,0,0,0,744.651,552.69Z" transform="translate(-740.71 -551.211)" fill="#0d1756"/>
          </g>
          <g id="Grupo_85839" data-name="Grupo 85839" transform="translate(128.713 71.763)">
            <path id="Trazado_120147" data-name="Trazado 120147" d="M995.989,695.014,948.26,667.452V703.02l47.728,27.561c3.2,1.843,5.782.357,5.787-3.329l0-22.229A12.755,12.755,0,0,0,995.989,695.014Z" transform="translate(-947.52 -666.713)" fill="#fff"/>
            <path id="Trazado_120148" data-name="Trazado 120148" d="M998.132,731.668a6,6,0,0,1-2.96-.892l-47.728-27.561a.741.741,0,0,1-.37-.64V667.006a.74.74,0,0,1,1.109-.64l47.729,27.561a13.394,13.394,0,0,1,6.15,10.65l.005,22.227c0,2.056-.735,3.611-2.063,4.376A3.7,3.7,0,0,1,998.132,731.668Zm-49.579-29.521,47.358,27.348a2.81,2.81,0,0,0,4.677-2.691l-.005-22.228a11.954,11.954,0,0,0-5.411-9.368h0l-46.62-26.922Z" transform="translate(-947.074 -666.267)" fill="#0d1756"/>
          </g>
          <g id="Grupo_85840" data-name="Grupo 85840" transform="translate(11.358 19.89)">
            <path id="Trazado_120149" data-name="Trazado 120149" d="M860.944,649.761a9.171,9.171,0,0,1-4.154-7.189c0-2.648,1.857-3.716,4.155-2.4a9.183,9.183,0,0,1,4.156,7.195C865.1,650.013,863.239,651.087,860.944,649.761ZM845.527,636.07a9.2,9.2,0,0,0-4.156-7.2c-2.3-1.321-4.156-.249-4.153,2.4a9.16,9.16,0,0,0,4.151,7.188C843.67,639.786,845.526,638.711,845.527,636.07Zm-19.576-11.3a9.16,9.16,0,0,0-4.158-7.19c-2.293-1.328-4.156-.258-4.151,2.394a9.193,9.193,0,0,0,4.151,7.186C824.089,628.484,825.952,627.415,825.952,624.768Zm-19.572-11.3a9.194,9.194,0,0,0-4.158-7.2c-2.3-1.327-4.153-.256-4.153,2.4a9.172,9.172,0,0,0,4.158,7.191C804.521,617.182,806.381,616.112,806.38,613.472Zm-19.573-11.3a9.187,9.187,0,0,0-4.161-7.2c-2.29-1.327-4.154-.251-4.149,2.4a9.151,9.151,0,0,0,4.155,7.19C784.945,605.885,786.8,604.81,786.807,602.169Zm-19.579-11.3a9.168,9.168,0,0,0-4.155-7.2c-2.3-1.325-4.152-.25-4.153,2.4a9.174,9.174,0,0,0,4.158,7.192C765.372,594.586,767.233,593.512,767.228,590.867Zm151.388,87.4a2.666,2.666,0,0,1-.228,1.15,3.158,3.158,0,0,0-.436-.354c-.985-.567-1.78-.113-1.8,1.005a2.878,2.878,0,0,1-.37-.171l-3.254-1.878a4.026,4.026,0,0,0-1.806-3.13c-1-.574-1.809-.11-1.809,1.043l-3.616-2.084a3.981,3.981,0,0,0-1.8-3.126c-1-.579-1.811-.114-1.811,1.039l-4.522-2.608c-.924,1.1-2.521,1.264-4.346.211a11.485,11.485,0,0,1-5.194-8.986c.006-3.31,2.328-4.649,5.194-2.995a11.226,11.226,0,0,1,4.346,5.237l18.621,10.747A6.268,6.268,0,0,1,918.616,678.266Zm-23.9-13.793a4.182,4.182,0,0,0-1.9-3.294c-1.049-.607-1.9-.115-1.9,1.1a4.192,4.192,0,0,0,1.9,3.29C893.874,666.176,894.724,665.687,894.719,664.473Z" transform="translate(-758.92 -583.101)" fill="#0d1756"/>
          </g>
        </g>
        <g id="Grupo_85863" data-name="Grupo 85863" transform="translate(881.323 382.229)">
          <g id="Grupo_85849" data-name="Grupo 85849" transform="translate(105.608 52.07)">
            <path id="Trazado_120167" data-name="Trazado 120167" d="M1232.269,642.447a.04.04,0,0,0,.02-.015,3.3,3.3,0,0,1-2.523-.485l-29.807-17.206a9.5,9.5,0,0,1-4.3-7.44V582.838a4.252,4.252,0,0,1,.312-1.663.607.607,0,0,1-.028.062c.015-.035.028-.062.042-.1s.052-.093.076-.14a2.388,2.388,0,0,1,.176-.3,2.171,2.171,0,0,0-.15.264,2.63,2.63,0,0,1,.243-.38,1.213,1.213,0,0,0-.092.116c.035-.054.081-.1.115-.15a.8.8,0,0,1,.1-.107,1.631,1.631,0,0,1,.176-.167.91.91,0,0,0-.107.113,1.79,1.79,0,0,1,.321-.269c-.012.007-.021.011-.032.018.041-.027.075-.062.115-.083l10.011-5.781h0a3,3,0,0,1,3.044.288l29.807,17.212a9.468,9.468,0,0,1,4.29,7.438l0,34.462a3.024,3.024,0,0,1-1.251,2.772v.006l-10.034,5.794A2.034,2.034,0,0,1,1232.269,642.447Z" transform="translate(-1194.923 -573.237)" fill="#ffa99d"/>
            <path id="Trazado_120168" data-name="Trazado 120168" d="M1234.747,639.464V605a9.491,9.491,0,0,0-4.294-7.444l-29.807-17.209a2.933,2.933,0,0,0-3.113-.231l-.032.018c.04-.027.075-.062.115-.083l10.011-5.781h0a3,3,0,0,1,3.044.288l29.807,17.212a9.468,9.468,0,0,1,4.291,7.438l0,34.462a3.022,3.022,0,0,1-1.251,2.772v.006l-10.034,5.794A3.025,3.025,0,0,0,1234.747,639.464Z" transform="translate(-1195.615 -573.237)" fill="#0d1756"/>
            <g id="Grupo_85848" data-name="Grupo 85848">
              <path id="Trazado_120169" data-name="Trazado 120169" d="M1231.2,642.809a4.525,4.525,0,0,1-2.245-.67l-29.807-17.207a10.185,10.185,0,0,1-4.667-8.081V582.39a5.074,5.074,0,0,1,.314-1.813c.006-.019.012-.037.02-.056l.006-.014h0l.032-.074a2,2,0,0,1,.092-.182,3.558,3.558,0,0,1,.24-.413,1.324,1.324,0,0,1,.089-.118l.014-.018a1.8,1.8,0,0,1,.207-.239,1.611,1.611,0,0,1,.171-.163.866.866,0,0,1,.078-.065l.04-.028.1-.079c.022-.018.045-.035.069-.052a1.176,1.176,0,0,1,.181-.123l9.988-5.768c.018-.011.036-.019.054-.029a3.72,3.72,0,0,1,3.732.317l29.807,17.211a10.157,10.157,0,0,1,4.66,8.079l0,34.462a3.756,3.756,0,0,1-1.538,3.362.72.72,0,0,1-.083.056l-10.034,5.794a2.718,2.718,0,0,1-.714.276.7.7,0,0,1-.123.022A3.19,3.19,0,0,1,1231.2,642.809Zm-34.987-61.8h0a3.521,3.521,0,0,0-.254,1.376v34.462a8.831,8.831,0,0,0,3.928,6.8l29.807,17.206a2.605,2.605,0,0,0,1.954.413.827.827,0,0,1,.114-.022,1.014,1.014,0,0,0,.22-.089l9.965-5.754a.652.652,0,0,1,.073-.049,2.366,2.366,0,0,0,.881-2.133l0-34.46a8.8,8.8,0,0,0-3.921-6.8l-29.807-17.212a2.316,2.316,0,0,0-2.3-.29c-.019.011-.037.021-.057.029l-9.923,5.731a.7.7,0,0,1-.091.069,1.1,1.1,0,0,0-.189.161.709.709,0,0,1-.1.088.538.538,0,0,1-.04.056,1.907,1.907,0,0,0-.172.273.674.674,0,0,1-.043.069l-.025.044,0,0C1196.217,580.993,1196.213,581,1196.209,581.013Z" transform="translate(-1194.477 -572.789)" fill="#0d1756"/>
            </g>
          </g>
          <path id="Trazado_120170" data-name="Trazado 120170" d="M1230.4,631.564c0-6.357-4.47-14.085-9.976-17.268s-9.982-.611-9.982,5.743,4.47,14.09,9.982,17.268S1230.406,637.919,1230.4,631.564Z" transform="translate(-1094.878 -535.823)" fill="#0d1756"/>
          <path id="Trazado_120171" data-name="Trazado 120171" d="M1229.525,632.009a17.156,17.156,0,0,0-7.764-13.438c-4.291-2.479-7.77-.477-7.77,4.467a17.141,17.141,0,0,0,7.77,13.439C1226.046,638.959,1229.525,636.956,1229.525,632.009Z" transform="translate(-1096.212 -537.546)" fill="#fff"/>
          <g id="Grupo_85851" data-name="Grupo 85851" transform="translate(71.097 85.081)">
            <path id="Trazado_120172" data-name="Trazado 120172" d="M1145.824,664.156a2.267,2.267,0,0,1-2.278-.224,7.108,7.108,0,0,1-3.213-5.578,2.258,2.258,0,0,1,.938-2.079h0l50.5-29.155h0a2.241,2.241,0,0,1,2.272.226,7.086,7.086,0,0,1,3.218,5.57,2.274,2.274,0,0,1-.942,2.089Z" transform="translate(-1139.592 -626.162)" fill="#fff"/>
            <path id="Trazado_120173" data-name="Trazado 120173" d="M1150.073,663.788a6.574,6.574,0,0,0-.944-3.172l50.5-29.158a6.525,6.525,0,0,1,.939,3.172,2.274,2.274,0,0,1-.942,2.089l-50.491,29.15A2.267,2.267,0,0,0,1150.073,663.788Z" transform="translate(-1142.902 -627.876)" fill="#cee7fd"/>
            <g id="Grupo_85850" data-name="Grupo 85850">
              <path id="Trazado_120174" data-name="Trazado 120174" d="M1144.539,664.664a3.661,3.661,0,0,1-1.809-.54,7.811,7.811,0,0,1-3.585-6.22,2.955,2.955,0,0,1,1.3-2.715l50.5-29.157a2.939,2.939,0,0,1,3.014.228,7.785,7.785,0,0,1,3.584,6.21,2.969,2.969,0,0,1-1.309,2.726l-50.493,29.151h0A2.382,2.382,0,0,1,1144.539,664.664Zm.838-.956h0ZM1192.16,627.2a.924.924,0,0,0-.47.115l-50.5,29.155a1.6,1.6,0,0,0-.568,1.436,6.388,6.388,0,0,0,2.843,4.94,1.612,1.612,0,0,0,1.539.225l50.49-29.151a1.616,1.616,0,0,0,.572-1.449,6.365,6.365,0,0,0-2.846-4.929A2.185,2.185,0,0,0,1192.16,627.2Z" transform="translate(-1139.146 -625.715)" fill="#0d1756"/>
            </g>
          </g>
          <g id="Grupo_85853" data-name="Grupo 85853" transform="translate(54.733 106.766)">
            <path id="Trazado_120175" data-name="Trazado 120175" d="M1114.095,668.474c0-1.751,1.147-3.5,3.459-4.834,4.607-2.661,12.088-2.661,16.708.01,2.311,1.325,3.463,3.072,3.463,4.819h0v12.7h0c0,1.747-1.146,3.5-3.459,4.825-4.611,2.665-12.093,2.665-16.708,0-2.313-1.34-3.465-3.087-3.465-4.833Z" transform="translate(-1113.355 -660.92)" fill="#ffa99d"/>
            <path id="Trazado_120176" data-name="Trazado 120176" d="M1117.56,677.4c4.615,2.67,12.1,2.674,16.708.008,2.313-1.329,3.459-3.081,3.457-4.824h0v12.7h0c0,1.747-1.146,3.5-3.459,4.824-4.611,2.665-12.093,2.665-16.708,0-2.313-1.34-3.465-3.087-3.465-4.833V672.59C1114.095,674.33,1115.25,676.077,1117.56,677.4Z" transform="translate(-1113.355 -665.037)" opacity="0.3" style="mix-blend-mode: overlay;isolation: isolate"/>
            <g id="Grupo_85852" data-name="Grupo 85852">
              <path id="Trazado_120177" data-name="Trazado 120177" d="M1125.473,688.282a17.825,17.825,0,0,1-8.728-2.087c-2.473-1.433-3.835-3.376-3.835-5.473V668.037c0-2.1,1.357-4.047,3.829-5.476,4.808-2.777,12.636-2.771,17.447.011,2.445,1.4,3.8,3.316,3.832,5.394,0,.022,0,.044,0,.065v12.7c0,2.1-1.36,4.046-3.83,5.466A17.815,17.815,0,0,1,1125.473,688.282Zm-.026-26.343a16.294,16.294,0,0,0-7.97,1.9c-1.995,1.153-3.093,2.641-3.089,4.193h0v12.686c0,1.547,1.1,3.037,3.1,4.193,4.4,2.545,11.567,2.547,15.968,0,1.993-1.146,3.089-2.632,3.089-4.185V668.092c0-.021,0-.041,0-.061,0-1.551-1.1-3.034-3.091-4.178A16.344,16.344,0,0,0,1125.447,661.939Z" transform="translate(-1112.909 -660.482)" fill="#0d1756"/>
            </g>
          </g>
          <g id="Grupo_85855" data-name="Grupo 85855" transform="translate(61.996 51.806)">
            <path id="Trazado_120178" data-name="Trazado 120178" d="M1125.74,576.185a2.259,2.259,0,0,1,1.334-1.863,7.118,7.118,0,0,1,6.439.006,2.248,2.248,0,0,1,1.328,1.854h0v58.306h0a2.241,2.241,0,0,1-1.328,1.861,7.116,7.116,0,0,1-6.439,0,2.28,2.28,0,0,1-1.334-1.864Z" transform="translate(-1125.001 -572.813)" fill="#fff"/>
            <path id="Trazado_120179" data-name="Trazado 120179" d="M1133.036,580.393a6.613,6.613,0,0,0,3.223-.768,2.241,2.241,0,0,0,1.328-1.859h0v58.306a2.241,2.241,0,0,1-1.328,1.861,6.6,6.6,0,0,1-3.223.77Z" transform="translate(-1127.746 -574.398)" fill="#cee7fd"/>
            <g id="Grupo_85854" data-name="Grupo 85854">
              <path id="Trazado_120180" data-name="Trazado 120180" d="M1129.848,637.412a7.311,7.311,0,0,1-3.589-.871,2.98,2.98,0,0,1-1.7-2.5v-58.3a2.959,2.959,0,0,1,1.7-2.5,7.827,7.827,0,0,1,7.178.006,2.947,2.947,0,0,1,1.7,2.494V634.04a2.974,2.974,0,0,1-1.7,2.5A7.311,7.311,0,0,1,1129.848,637.412Zm-.009-63.564a5.848,5.848,0,0,0-2.842.665c-.613.354-.964.8-.964,1.223v58.3c0,.42.352.866.967,1.226a6.407,6.407,0,0,0,5.7,0c.613-.353.962-.8.957-1.214V575.734c0-.42-.349-.862-.957-1.213A5.873,5.873,0,0,0,1129.839,573.849Z" transform="translate(-1124.555 -572.366)" fill="#0d1756"/>
            </g>
          </g>
          <g id="Grupo_85862" data-name="Grupo 85862" transform="translate(0)">
            <g id="Grupo_85859" data-name="Grupo 85859" transform="translate(8.602 7.387)">
              <path id="Trazado_120181" data-name="Trazado 120181" d="M1070.621,580.229h0c-3.1,1.775-7.372,1.514-12.093-1.212-9.453-5.456-17.111-18.71-17.113-29.61,0-5.454,1.92-9.283,5.021-11.067h0l60.39-34.867h0c3.1-1.777,7.374-1.514,12.1,1.209,9.445,5.461,17.107,18.717,17.1,29.611,0,5.457-1.914,9.283-5.018,11.066h0Z" transform="translate(-1039.878 -501.599)" fill="#cee7fd"/>
              <path id="Trazado_120182" data-name="Trazado 120182" d="M1070.621,580.229h0c-3.1,1.775-7.372,1.514-12.093-1.212-9.453-5.456-17.111-18.71-17.113-29.61,0-5.454,1.92-9.283,5.021-11.067h0l60.39-34.867h0c3.1-1.777,7.374-1.514,12.1,1.209,9.445,5.461,17.107,18.717,17.1,29.611,0,5.457-1.914,9.283-5.018,11.066h0Z" transform="translate(-1039.878 -501.599)" style="mix-blend-mode: overlay;isolation: isolate"/>
              <g id="Grupo_85856" data-name="Grupo 85856" transform="translate(0.8)">
                <path id="Trazado_120183" data-name="Trazado 120183" d="M1065.738,581.652a16.291,16.291,0,0,1-8.022-2.446c-9.638-5.562-17.48-19.132-17.483-30.25,0-5.55,1.915-9.708,5.392-11.708l60.388-34.865c3.473-1.992,8.03-1.561,12.835,1.209,9.639,5.573,17.478,19.144,17.475,30.251,0,5.552-1.911,9.709-5.389,11.707l-60.345,34.843c-.013.009-.028.017-.042.026A9.541,9.541,0,0,1,1065.738,581.652Zm45.092-79.024a8.083,8.083,0,0,0-4.079,1.037l-60.388,34.864c-3,1.726-4.651,5.429-4.651,10.427,0,10.647,7.513,23.642,16.744,28.969,4.305,2.487,8.322,2.926,11.315,1.236l.036-.022,60.391-34.87c3-1.723,4.651-5.425,4.648-10.425,0-10.638-7.5-23.634-16.735-28.972A14.863,14.863,0,0,0,1110.829,502.628Z" transform="translate(-1040.232 -501.148)" fill="#0d1756"/>
              </g>
              <g id="Grupo_85857" data-name="Grupo 85857" transform="translate(0.8 34.867)">
                <path id="Trazado_120184" data-name="Trazado 120184" d="M1075.642,590.2c0-10.9-7.66-24.157-17.113-29.615s-17.111-1.044-17.111,9.857,7.66,24.154,17.113,29.61S1075.642,601.1,1075.642,590.2Z" transform="translate(-1040.678 -557.5)" fill="#cee7fd"/>
                <path id="Trazado_120185" data-name="Trazado 120185" d="M1065.735,602.688a16.281,16.281,0,0,1-8.019-2.448c-9.638-5.562-17.48-19.132-17.483-30.25,0-5.541,1.908-9.7,5.374-11.7s8.032-1.578,12.846,1.2c9.635,5.562,17.478,19.134,17.483,30.254h0c0,5.54-1.91,9.7-5.377,11.7A9.523,9.523,0,0,1,1065.735,602.688Zm-15.3-44.159a8.072,8.072,0,0,0-4.093,1.046c-2.988,1.725-4.634,5.425-4.634,10.415,0,10.647,7.513,23.642,16.744,28.969,4.333,2.5,8.369,2.931,11.365,1.2s4.637-5.424,4.637-10.415c0-10.649-7.515-23.647-16.743-28.974A14.845,14.845,0,0,0,1050.438,558.529Z" transform="translate(-1040.232 -557.049)" fill="#0d1756"/>
              </g>
              <path id="Trazado_120186" data-name="Trazado 120186" d="M1065.143,602.047c-2.651,1.524-6.313,1.3-10.354-1.034-8.091-4.673-14.654-16.023-14.654-25.357,0-4.67,1.643-7.946,4.3-9.467l-.1-.173,3.266-1.882.095.169c2.651-1.525,6.306-1.3,10.353,1.035,8.1,4.675,14.65,16.025,14.65,25.357,0,4.667-1.643,7.947-4.3,9.472h0l-3.257,1.884Z" transform="translate(-1039.395 -524.547)" fill="#cee7fd"/>
              <path id="Trazado_120187" data-name="Trazado 120187" d="M1060.675,565.337c-4.046-2.338-7.7-2.56-10.353-1.035l-3.2,1.852c2.647-1.487,6.28-1.254,10.3,1.063,8.094,4.676,14.648,16.025,14.654,25.36,0,4.669-1.646,7.946-4.3,9.471v0l3.257-1.884c2.654-1.525,4.3-4.805,4.3-9.472C1075.325,581.363,1068.771,570.013,1060.675,565.337Z" transform="translate(-1042.024 -524.547)" style="mix-blend-mode: overlay;isolation: isolate"/>
              <g id="Grupo_85858" data-name="Grupo 85858" transform="translate(0 38.04)">
                <path id="Trazado_120188" data-name="Trazado 120188" d="M1060.893,603.311a14.058,14.058,0,0,1-6.921-2.108c-8.284-4.784-15.024-16.447-15.024-26,0-4.553,1.5-8.018,4.225-9.832a.738.738,0,0,1,.344-.449l3.266-1.882a.729.729,0,0,1,.553-.076c2.941-1.443,6.694-1,10.633,1.28,8.282,4.783,15.02,16.445,15.02,26,0,4.793-1.658,8.384-4.667,10.113l-3.255,1.883a.735.735,0,0,1-.066.034A8.272,8.272,0,0,1,1060.893,603.311Zm-16.2-37.359a.737.737,0,0,1-.341.428c-2.53,1.449-3.926,4.583-3.927,8.826,0,9.079,6.408,20.167,14.284,24.717,3.674,2.121,7.09,2.487,9.616,1.033.019-.011.039-.021.059-.031l3.2-1.849c2.534-1.456,3.928-4.592,3.928-8.832,0-9.081-6.406-20.17-14.281-24.717-3.672-2.123-7.085-2.489-9.614-1.035a.74.74,0,0,1-.528.081Z" transform="translate(-1038.949 -562.138)" fill="#0d1756"/>
              </g>
              <path id="Trazado_120189" data-name="Trazado 120189" d="M1068.314,594.28c.006-7.532-5.292-16.687-11.818-20.458s-11.818-.724-11.824,6.806,5.3,16.689,11.824,20.456S1068.32,601.81,1068.314,594.28Z" transform="translate(-1041.102 -527.885)" style="mix-blend-mode: overlay;isolation: isolate"/>
              <path id="Trazado_120190" data-name="Trazado 120190" d="M1067.085,594.9c0-5.554-3.9-12.306-8.715-15.083s-8.717-.536-8.717,5.017,3.9,12.306,8.717,15.084S1067.085,600.457,1067.085,594.9Z" transform="translate(-1042.977 -530.303)" fill="#0d1756"/>
              <path id="Trazado_120191" data-name="Trazado 120191" d="M1066.409,595.252a15.466,15.466,0,0,0-7-12.119c-3.869-2.229-7-.43-7,4.031a15.443,15.443,0,0,0,7,12.113C1063.27,601.515,1066.406,599.707,1066.409,595.252Z" transform="translate(-1044.013 -531.638)" fill="#ffcd38"/>
              <path id="Trazado_120192" data-name="Trazado 120192" d="M1062.326,587a3.412,3.412,0,0,0-1.548-2.683c-.86-.5-1.556-.1-1.556.894a3.433,3.433,0,0,0,1.553,2.68C1061.636,588.388,1062.326,587.984,1062.326,587Z" transform="translate(-1046.578 -532.362)" fill="#fff"/>
              <path id="Trazado_120193" data-name="Trazado 120193" d="M1046.3,579.917c0,7.53,5.293,16.692,11.821,20.457,2.853,1.649,5.466,1.994,7.508,1.231-2.169,1.8-5.455,1.836-9.136-.291-6.526-3.767-11.824-12.926-11.824-20.456.006-4.242,1.677-7.063,4.311-8.043C1047.31,574.2,1046.306,576.633,1046.3,579.917Z" transform="translate(-1041.102 -528.115)" opacity="0.2" style="mix-blend-mode: overlay;isolation: isolate"/>
            </g>
            <g id="Grupo_85861" data-name="Grupo 85861">
              <path id="Trazado_120194" data-name="Trazado 120194" d="M1067.648,562.131a.425.425,0,0,1-.314.079.759.759,0,0,1-.286-.1,1.823,1.823,0,0,1-.765-1.06C1063.3,550.134,1055.6,539.5,1047.1,534.6a20.147,20.147,0,0,0-7.048-2.59l-12.3,7.1a.356.356,0,0,1-.034.017l-.044.026,0-.014a.78.78,0,0,1-.805-.289,1.574,1.574,0,0,1-.476-1.484,11.885,11.885,0,0,1,5.24-6.237l-.009-.013,67.937-39.224.009.013c4.065-2.245,9.589-1.812,15.471,1.581,9.176,5.3,17.5,16.777,20.715,28.566.121.451.015.8-.242.9v.007l-67.866,39.183Z" transform="translate(-1025.603 -489.76)" fill="#7185a3"/>
              <path id="Trazado_120195" data-name="Trazado 120195" d="M1067.648,562.131a.425.425,0,0,1-.314.079.759.759,0,0,1-.286-.1,1.823,1.823,0,0,1-.765-1.06C1063.3,550.134,1055.6,539.5,1047.1,534.6a20.147,20.147,0,0,0-7.048-2.59l-12.3,7.1a.356.356,0,0,1-.034.017l-.044.026,0-.014a.78.78,0,0,1-.805-.289,1.574,1.574,0,0,1-.476-1.484,11.885,11.885,0,0,1,5.24-6.237l-.009-.013,67.937-39.224.009.013c4.065-2.245,9.589-1.812,15.471,1.581,9.176,5.3,17.5,16.777,20.715,28.566.121.451.015.8-.242.9v.007l-67.866,39.183Z" transform="translate(-1025.603 -489.76)" fill="#ffa99d"/>
              <path id="Trazado_120196" data-name="Trazado 120196" d="M1067.048,585.77a1.823,1.823,0,0,1-.765-1.06c-2.978-10.915-10.687-21.546-19.179-26.449s-16.207-3.177-19.184,4.3c-.156.4-.626.371-1.048-.053a1.573,1.573,0,0,1-.476-1.484c3.216-8.077,11.535-9.942,20.708-4.645s17.487,16.767,20.709,28.556c.156.579-.058,1-.48.933A.76.76,0,0,1,1067.048,585.77Z" transform="translate(-1025.603 -513.421)" fill="#fff" opacity="0.2" style="mix-blend-mode: overlay;isolation: isolate"/>
              <path id="Trazado_120197" data-name="Trazado 120197" d="M1088.871,573.851a.425.425,0,0,1-.314.079.761.761,0,0,1-.286-.1,1.823,1.823,0,0,1-.765-1.06,47.655,47.655,0,0,0-4.761-11.216l69.095-39.894a51.424,51.424,0,0,1,5.143,12.111c.121.451.015.8-.242.9v.007l-67.866,39.183Z" transform="translate(-1046.826 -501.479)" opacity="0.3" style="mix-blend-mode: overlay;isolation: isolate"/>
              <g id="Grupo_85860" data-name="Grupo 85860">
                <path id="Trazado_120198" data-name="Trazado 120198" d="M1066.953,562.5a1.269,1.269,0,0,1-.181-.014,1.463,1.463,0,0,1-.54-.192,2.555,2.555,0,0,1-1.11-1.506c-2.93-10.741-10.5-21.19-18.835-26a19.612,19.612,0,0,0-6.535-2.459l-12.071,6.969-.029.016-.041.022a.83.83,0,0,1-.184.066,1.506,1.506,0,0,1-1.527-.483,2.3,2.3,0,0,1-.634-2.288,12.573,12.573,0,0,1,5.434-6.527.709.709,0,0,1,.111-.08l67.937-39.225a.756.756,0,0,1,.159-.069c4.41-2.358,10.106-1.772,16.059,1.663,9.332,5.388,17.8,17.047,21.06,29.012a1.423,1.423,0,0,1-.541,1.71l-.044.028-67.866,39.182a.728.728,0,0,1-.094.046A1.145,1.145,0,0,1,1066.953,562.5Zm-.156-1.441h0Zm-27.187-30.243a.717.717,0,0,1,.109.009,20.89,20.89,0,0,1,7.309,2.681c8.651,4.995,16.5,15.8,19.522,26.895a1.136,1.136,0,0,0,.382.587l67.69-39.082a.74.74,0,0,0-.022-.118c-3.168-11.61-11.355-22.911-20.371-28.117-5.549-3.2-10.787-3.76-14.743-1.574a.792.792,0,0,1-.129.056l-67.68,39.077a.68.68,0,0,1-.129.092,11.11,11.11,0,0,0-4.911,5.863,1.035,1.035,0,0,0,.314.69.68.68,0,0,0,.1.082l12.194-7.041A.74.74,0,0,1,1039.61,530.816Z" transform="translate(-1025.157 -489.305)" fill="#0d1756"/>
              </g>
            </g>
          </g>
        </g>
      </g>
      <g id="Grupo_85865" data-name="Grupo 85865" transform="translate(-8938.7 720.749)">
        <g id="Grupo_85219" data-name="Grupo 85219" transform="translate(0 0)">
          <g id="Grupo_85211" data-name="Grupo 85211" transform="translate(0 48.67)">
            <g id="Grupo_85208" data-name="Grupo 85208" transform="translate(1.111 1.111)">
              <path id="Trazado_119704" data-name="Trazado 119704" d="M443.048,200.635h0l.359-12.876H613.528l-.227,12.348c.052.516,0,0-.068.525v0h0c-.39,2.981-2.731,6.04-6.95,8.477l-63.472,36.68c-8.475,4.9-21.294,5.43-28.632,1.188L447.941,208.7C444.254,206.572,442.655,203.643,443.048,200.635Z" transform="translate(-442.99 -187.759)" fill="#ffbe2e"/>
            </g>
            <g id="Grupo_85209" data-name="Grupo 85209" transform="translate(1.111 1.117)">
              <path id="Trazado_119705" data-name="Trazado 119705" d="M443.048,200.638h0l.359-12.876H613.528l-.227,12.35c.052.516,0,0-.068.523v0h0c-.39,2.981-2.731,6.04-6.95,8.479l-63.472,36.678c-8.475,4.9-21.294,5.43-28.632,1.188l-66.239-38.278C444.254,206.575,442.655,203.646,443.048,200.638Z" transform="translate(-442.99 -187.762)" fill="#459ccf"/>
            </g>
            <g id="Grupo_85210" data-name="Grupo 85210">
              <path id="Trazado_119706" data-name="Trazado 119706" d="M527.147,251.469a26.454,26.454,0,0,1-12.986-2.989L447.922,210.2c-3.9-2.253-5.878-5.569-5.447-9.109l.192-12.28,172.523-1.626-.238,13.473a1.2,1.2,0,0,1-.088.721c-.508,3.478-3.16,6.73-7.488,9.231L543.9,247.293A34.406,34.406,0,0,1,527.147,251.469Zm-82.111-62.061-.349,11.908c-.347,2.667,1.2,5.141,4.346,6.963l66.241,38.278c7.019,4.055,19.362,3.524,27.519-1.188l63.472-36.68c3.768-2.179,6.042-4.9,6.4-7.659a2.354,2.354,0,0,1,.068-.324l-.008-.072.213-11.226Z" transform="translate(-442.417 -187.186)" fill="#0d1756"/>
            </g>
          </g>
          <g id="Grupo_85215" data-name="Grupo 85215" transform="translate(0.25)">
            <g id="Grupo_85212" data-name="Grupo 85212" transform="translate(1.11 1.087)">
              <path id="Trazado_119707" data-name="Trazado 119707" d="M448.074,219.917l66.237,38.278c7.339,4.241,20.158,3.708,28.632-1.188l63.474-36.68c8.473-4.9,9.394-12.3,2.055-16.545L542.235,165.5c-7.339-4.241-20.158-3.71-28.634,1.188L450.129,203.37C441.654,208.269,440.735,215.676,448.074,219.917Z" transform="translate(-443.119 -162.64)" fill="#fff"/>
            </g>
            <g id="Grupo_85213" data-name="Grupo 85213" transform="translate(2.278 8.761)">
              <path id="Trazado_119708" data-name="Trazado 119708" d="M607.573,207.738l-66.238-38.278c-7.339-4.24-20.159-3.708-28.632,1.188l-63.472,36.68a16.313,16.313,0,0,0-5.509,4.871,10.405,10.405,0,0,0,4.121,4l66.239,38.278c7.339,4.241,20.158,3.708,28.632-1.188l63.472-36.68a16.311,16.311,0,0,0,5.509-4.869A10.409,10.409,0,0,0,607.573,207.738Z" transform="translate(-443.721 -166.599)" fill="#ffa89c"/>
            </g>
            <g id="Grupo_85214" data-name="Grupo 85214">
              <path id="Trazado_119709" data-name="Trazado 119709" d="M527.28,262.672a26.466,26.466,0,0,1-12.988-2.989L448.055,221.4c-3.551-2.053-5.509-4.945-5.509-8.148,0-3.782,2.755-7.543,7.564-10.322l63.474-36.68c8.77-5.065,22.114-5.6,29.742-1.186l66.239,38.278c3.555,2.053,5.509,4.947,5.509,8.148,0,3.78-2.758,7.543-7.566,10.323l-63.472,36.678A34.408,34.408,0,0,1,527.28,262.672Zm3.059-98.406A32.126,32.126,0,0,0,514.7,168.18l-63.474,36.68c-4.1,2.371-6.453,5.432-6.453,8.4,0,2.375,1.562,4.585,4.4,6.223L515.4,257.758c7.023,4.057,19.368,3.528,27.521-1.188L606.4,219.891c4.1-2.371,6.455-5.432,6.455-8.4,0-2.375-1.562-4.585-4.4-6.225l-66.24-38.278A24.192,24.192,0,0,0,530.339,164.266Z" transform="translate(-442.546 -162.079)" fill="#0d1756"/>
            </g>
          </g>
          <g id="Grupo_85216" data-name="Grupo 85216" transform="translate(85.099 49.78)">
            <path id="Trazado_119710" data-name="Trazado 119710" d="M486.317,237.483v12.345l10.01-1.573,12.591-5.926,60.18-35.552,3.768-4.629V187.759l-2.471,6.406-12.962,7.592-60.92,34.256Z" transform="translate(-486.317 -187.759)" fill="#0d1756"/>
          </g>
          <g id="Grupo_85217" data-name="Grupo 85217" transform="translate(67.762 94.536)">
            <path id="Trazado_119711" data-name="Trazado 119711" d="M484.74,214.214v12.449l-7.367-3.407v-12.41Z" transform="translate(-477.373 -210.847)" fill="#0d1756"/>
          </g>
          <g id="Grupo_85218" data-name="Grupo 85218" transform="translate(0.139 50.892)">
            <path id="Trazado_119712" data-name="Trazado 119712" d="M447.468,195.478v11.37l-2.9-2.169-2.083-5.334.971-11.014,4.008,7.146Z" transform="translate(-442.489 -188.332)" fill="#0d1756"/>
          </g>
        </g>
        <g id="Grupo_85226" data-name="Grupo 85226" transform="translate(45.642 26.698)">
          <g id="Grupo_85220" data-name="Grupo 85220" transform="translate(0.928 0.921)">
            <path id="Trazado_119713" data-name="Trazado 119713" d="M557.716,196.732c-8.5-2.466-22.279-5.174-30.919-.2l-4.356,2.506-5.253-2.326a6.724,6.724,0,0,0-2.642-5.372h0l-10.235-9.247c-.242-.235-.494-.467-.768-.694l-.2-.182-.018.01a16.876,16.876,0,0,0-2.086-1.436c-7.952-4.606-20.854-4.621-28.82-.037s-7.973,12.034-.021,16.638a21.405,21.405,0,0,0,2.394,1.171l-.017.01.322.12c.465.19.942.364,1.427.529l15.843,5.887h0a25.18,25.18,0,0,0,9.293,1.541l4.015,3.04c-1.254.723-2.675,1.539-4.311,2.481-8.661,4.986-4.026,12.957.213,17.873,1.948,2.258,7.132,2.76,10.22.983L535.122,216.6l1.014-.584,23.247-13.381C562.471,200.857,561.618,197.864,557.716,196.732Z" transform="translate(-466.441 -176.327)" fill="#fff"/>
          </g>
          <g id="Grupo_85225" data-name="Grupo 85225">
            <g id="Grupo_85221" data-name="Grupo 85221" transform="translate(0.937 0.909)">
              <path id="Trazado_119714" data-name="Trazado 119714" d="M472.4,185.252c7.965-4.585,20.868-4.567,28.82.037a16.863,16.863,0,0,1,2.086,1.436l.017-.01.2.182c.273.227.525.459.768.694l10.235,9.247v0a6.718,6.718,0,0,1,2.642,5.37l5.251,2.326,4.358-2.507c8.638-4.974,22.421-2.266,30.919.2a7.61,7.61,0,0,1,1.4.556l.275-.159c3.088-1.778,2.233-4.769-1.667-5.9-8.5-2.468-22.279-5.176-30.919-.2l-4.356,2.507-5.253-2.326a6.719,6.719,0,0,0-2.642-5.37l0,0L504.3,182.088c-.24-.235-.492-.467-.766-.694l-.2-.182-.015.01a17.016,17.016,0,0,0-2.086-1.436c-7.952-4.606-20.854-4.621-28.82-.037-5.2,2.995-6.99,7.213-5.4,11.063A12.085,12.085,0,0,1,472.4,185.252Z" transform="translate(-466.446 -176.321)" fill="#0d1756"/>
            </g>
            <g id="Grupo_85224" data-name="Grupo 85224">
              <g id="Grupo_85222" data-name="Grupo 85222" transform="translate(30.952 33.285)">
                <path id="Trazado_119715" data-name="Trazado 119715" d="M486.812,201l4.309-2.481.017-5.492c-.081,0-4.2,2.444-4.278,2.444l-.043.025c-4.895,2.819-5.54,6.589-4.412,10.224A9.371,9.371,0,0,1,486.812,201Z" transform="translate(-481.929 -193.022)" fill="#0d1756"/>
              </g>
              <g id="Grupo_85223" data-name="Grupo 85223">
                <path id="Trazado_119716" data-name="Trazado 119716" d="M558.415,196.277c-9.656-2.805-22.981-5.1-31.642-.114l-3.947,2.272-4.263-1.89a7.173,7.173,0,0,0-1.727-4.2,10.375,10.375,0,0,0-1.227-1.256L505.4,181.86c-.26-.25-.529-.5-.791-.715l-.463-.4-.254-.221,0,0-.012-.012-.044.027a16.909,16.909,0,0,0-1.687-1.119c-8.2-4.745-21.543-4.761-29.748-.039-.281.163-.518.347-.783.518s-.549.347-.8.529-.463.357-.688.537q-.468.378-.888.773c-.141.136-.285.267-.419.407a10.772,10.772,0,0,0-2.018,2.836l-.027.066a8.576,8.576,0,0,0-.52,1.442c-.021.081-.041.161-.06.242a8.035,8.035,0,0,0-.2,1.44c0,.043-.01.083-.01.126,0,.072-.018.14-.018.211a8.085,8.085,0,0,0,.64,3.084l0,.014.965,1.8h0a14.658,14.658,0,0,0,4.811,4.232q.413.238.878.475h0L475.2,199c.483.2.975.378,1.454.539l15.83,5.883a25.864,25.864,0,0,0,9.32,1.605l2.634,1.995-.9.525c-.812.473-1.63.952-1.952,1.128l-.242.126c-.2.114-.361.242-.547.363-.238.149-.475.3-.694.459s-.419.3-.615.463c-.293.235-.566.479-.822.727-.161.159-.314.322-.461.487a8.992,8.992,0,0,0-.628.773c-.1.136-.2.273-.287.413a8.262,8.262,0,0,0-.6,1.1c-.052.116-.089.238-.134.359a7.9,7.9,0,0,0-.3.94c-.037.147-.076.293-.1.444-.01.052-.027.1-.037.155-.021.128-.01.256-.025.384a8.764,8.764,0,0,0-.076,1.159c0,.194.025.388.039.582a10.427,10.427,0,0,0,.136,1.124c.039.2.091.4.14.593.062.26.1.512.18.775l.923,2.258h0a27.6,27.6,0,0,0,3.9,5.734c2.247,2.607,7.888,3.195,11.385,1.181L560.3,203.885a5.906,5.906,0,0,0,1.147-.849,3.436,3.436,0,0,0,1.169-2.917,3.721,3.721,0,0,0-1.266-2.289A7.318,7.318,0,0,0,558.415,196.277Zm-90.578-7.55a6.217,6.217,0,0,1,.037-.828c.01-.087.01-.176.023-.264a6.079,6.079,0,0,1,.159-.706c.033-.12.056-.242.1-.363.064-.194.153-.386.236-.578.068-.157.128-.314.207-.467s.167-.275.25-.415c.122-.2.238-.4.382-.6.047-.064.1-.126.153-.19a13.274,13.274,0,0,1,3.953-3.311c7.7-4.429,20.209-4.414,27.891.037a15.783,15.783,0,0,1,1.969,1.357l.205.163c.256.211.49.426.739.667l10.249,9.26a8.719,8.719,0,0,1,1.043,1.074A5.2,5.2,0,0,1,516.7,197.1l-.027.56a10.354,10.354,0,0,0-1.072-1.07l-10.21-9.223c-.258-.252-.527-.5-.793-.719l-.731-.632-.045.027a17.256,17.256,0,0,0-1.687-1.118c-8.194-4.745-21.541-4.761-29.746-.039a14.954,14.954,0,0,0-4.55,3.875Zm48.951,9.07,6.159,2.729,4.763-2.743c8.518-4.9,22.574-1.925,30.2.287a5.9,5.9,0,0,1,2.008.971,2.052,2.052,0,0,1,.841,1.289c.078.647-.364,1.3-1.254,1.849a8.067,8.067,0,0,0-1.1-.4c-9.656-2.805-22.983-5.1-31.64-.114l-3.949,2.272-4.271-1.892A7.189,7.189,0,0,0,516.788,197.8Zm-18.85,20.063c.01-.056.021-.112.031-.169a6.22,6.22,0,0,1,.219-.839c.014-.041.029-.081.045-.122a6.24,6.24,0,0,1,.391-.863l.031-.056a6.768,6.768,0,0,1,.578-.863l.019-.025a8.324,8.324,0,0,1,.754-.83l.019-.017a11.54,11.54,0,0,1,2.251-1.654l2.916-1.677-.012,3.344-3.846,2.216a13.156,13.156,0,0,0-2.582,1.9,9.916,9.916,0,0,0-.892.971A6.819,6.819,0,0,1,497.938,217.86Zm4.792,11.024a22.567,22.567,0,0,1-4.329-7.01,8.763,8.763,0,0,1,3.858-3.96l4.776-2.749.016-5.492h0l0-1-.622-.471h0l-4.017-3.042-.32.006a24.129,24.129,0,0,1-8.956-1.483l-15.869-5.9c-.421-.142-.834-.293-1.254-.461l-.413-.173a20.945,20.945,0,0,1-2.289-1.12,11.591,11.591,0,0,1-4.821-4.742,11.483,11.483,0,0,1,4.821-4.8c7.7-4.43,20.207-4.414,27.891.035a15.591,15.591,0,0,1,1.969,1.361l.207.161c.254.209.487.425.737.667l10.249,9.26a5.8,5.8,0,0,1,2.324,4.623l-.031.638,6.267,2.774,4.763-2.741c8.339-4.8,21.969-2.047,29.688.145l-45.6,26.249C509.115,231.2,504.375,230.793,502.73,228.884Z" transform="translate(-465.962 -175.852)" fill="#0d1756"/>
              </g>
            </g>
          </g>
        </g>
      </g>
    </g>
    <rect id="Rect치ngulo_34319" data-name="Rect치ngulo 34319" width="185" height="60" rx="30" transform="translate(-9649 -3082)" fill="#fff"/>
    <path id="Trazado_120570" data-name="Trazado 120570" d="M-28.274-4.333A4.673,4.673,0,0,1-29-1.973a4.35,4.35,0,0,1-1.85,1.586,6.3,6.3,0,0,1-2.72.563,5.025,5.025,0,0,1-3.973-1.644,6.786,6.786,0,0,1-1.45-4.641v-.633a7.746,7.746,0,0,1,.655-3.292,4.961,4.961,0,0,1,1.885-2.18,5.26,5.26,0,0,1,2.848-.769,5.516,5.516,0,0,1,3.744,1.226,4.844,4.844,0,0,1,1.608,3.379h-3.076a2.292,2.292,0,0,0-.589-1.679,2.422,2.422,0,0,0-1.687-.51,1.843,1.843,0,0,0-1.687.861,5.536,5.536,0,0,0-.562,2.751v.905a6.126,6.126,0,0,0,.514,2.927,1.882,1.882,0,0,0,1.771.879,2.369,2.369,0,0,0,1.626-.5,2.126,2.126,0,0,0,.6-1.591ZM-23.827,0H-26.8V-13.5h2.971Zm4.948,0H-21.85V-9.51h2.971Zm-3.146-11.962A1.322,1.322,0,0,1-21.568-13a1.724,1.724,0,0,1,1.187-.4A1.724,1.724,0,0,1-19.2-13a1.322,1.322,0,0,1,.457,1.037,1.322,1.322,0,0,1-.457,1.037,1.724,1.724,0,0,1-1.187.4,1.724,1.724,0,0,1-1.187-.4A1.322,1.322,0,0,1-22.025-11.962ZM-12.454.176A4.889,4.889,0,0,1-16-1.129a4.507,4.507,0,0,1-1.354-3.4v-.246a5.84,5.84,0,0,1,.541-2.575,3.955,3.955,0,0,1,1.578-1.727,4.763,4.763,0,0,1,2.461-.611A4.117,4.117,0,0,1-9.606-8.442a4.887,4.887,0,0,1,1.16,3.467v1.151h-5.889a2.135,2.135,0,0,0,.694,1.257,2.066,2.066,0,0,0,1.389.457,2.662,2.662,0,0,0,2.2-.984l1.354,1.6A3.784,3.784,0,0,1-10.27-.277,5.3,5.3,0,0,1-12.454.176ZM-12.788-7.4q-1.3,0-1.547,1.723h2.988v-.229a1.467,1.467,0,0,0-.36-1.1A1.434,1.434,0,0,0-12.788-7.4ZM-4.535-9.51l.1,1.116A3.225,3.225,0,0,1-1.723-9.686,2.713,2.713,0,0,1,.5-8.8a4.226,4.226,0,0,1,.76,2.672V0H-1.714V-6A1.6,1.6,0,0,0-2-7.062,1.342,1.342,0,0,0-3.059-7.4a1.413,1.413,0,0,0-1.292.686V0H-7.312V-9.51ZM6.346-11.874V-9.51H7.91v2.057H6.346V-3.1a1.111,1.111,0,0,0,.193.747,1.037,1.037,0,0,0,.765.211A4.345,4.345,0,0,0,8.042-2.2V-.079a5.466,5.466,0,0,1-1.67.255A3.1,3.1,0,0,1,4.113-.545a2.954,2.954,0,0,1-.729-2.188v-4.72H2.171V-9.51H3.384v-2.364ZM13.676.176a4.889,4.889,0,0,1-3.542-1.305,4.507,4.507,0,0,1-1.354-3.4v-.246a5.84,5.84,0,0,1,.541-2.575A3.955,3.955,0,0,1,10.9-9.075a4.763,4.763,0,0,1,2.461-.611,4.117,4.117,0,0,1,3.164,1.244,4.887,4.887,0,0,1,1.16,3.467v1.151H11.795a2.135,2.135,0,0,0,.694,1.257,2.066,2.066,0,0,0,1.389.457,2.662,2.662,0,0,0,2.2-.984l1.354,1.6A3.784,3.784,0,0,1,15.86-.277,5.3,5.3,0,0,1,13.676.176ZM13.342-7.4q-1.3,0-1.547,1.723h2.988v-.229a1.467,1.467,0,0,0-.36-1.1A1.434,1.434,0,0,0,13.342-7.4ZM26.78,0H23.7V-12.8H26.78Zm2.145,0V-12.8h4.122a6.064,6.064,0,0,1,3.05.769A5.406,5.406,0,0,1,38.21-9.857a6.554,6.554,0,0,1,.769,3.142v.589a6.592,6.592,0,0,1-.743,3.151A5.429,5.429,0,0,1,36.145-.8a5.93,5.93,0,0,1-3.01.8ZM32.01-10.415v8.042h1.072a2.4,2.4,0,0,0,2.039-.945,4.63,4.63,0,0,0,.712-2.808V-6.68a4.592,4.592,0,0,0-.712-2.795,2.442,2.442,0,0,0-2.074-.94Z" transform="translate(-9556 -3046)" fill="#12263f"/>
  </g>
</svg>
