<svg xmlns="http://www.w3.org/2000/svg" width="59.785" height="59.785" viewBox="0 0 59.785 59.785">
  <g id="clave" transform="translate(29.88) rotate(45)">
    <path id="Trazado_119139" data-name="Trazado 119139" d="M40.871,1.429a1.423,1.423,0,0,0-.5-1.1A1.153,1.153,0,0,0,40.012.12c-.028-.014-.07-.028-.106-.042a1.668,1.668,0,0,0-.2-.049A1.285,1.285,0,0,0,39.47.007H37.343L32.541,0a.877.877,0,0,0-.493.282l-15.3,15.3a13.09,13.09,0,0,0-1.711-.4,12.71,12.71,0,0,0-3.141-.127,12.917,12.917,0,0,0-9.1,20.9c.3.366.6.711.915,1.035a12.925,12.925,0,0,0,21.563-12.88l1.521-1.521a.45.45,0,0,0,.127-.345L26.576,18.5a.432.432,0,0,1,.1-.31.426.426,0,0,1,.373-.162l1.69.155,1.739.162a.441.441,0,0,0,.472-.472l-.317-3.429a.433.433,0,0,1,.1-.31.417.417,0,0,1,.373-.162l1.69.155,1.739.162a.44.44,0,0,0,.472-.472l-.31-3.443a.421.421,0,0,1,.1-.31.416.416,0,0,1,.366-.155l2.021.183,1.746.155a.418.418,0,0,0,.338-.127l1.422-1.465a.716.716,0,0,0,.2-.493ZM11.71,34.02a3.46,3.46,0,0,1-4.873,0,.372.372,0,0,1-.07-.085,1.492,1.492,0,0,1-.218-.253l-.007-.007a1.637,1.637,0,0,1-.183-.267,1.686,1.686,0,0,1-.162-.289,2.792,2.792,0,0,1-.148-.331,1.677,1.677,0,0,1-.085-.267,3.436,3.436,0,0,1,4.246-4.246,1.656,1.656,0,0,1,.267.085,2.768,2.768,0,0,1,.331.148,1.687,1.687,0,0,1,.289.162,1.64,1.64,0,0,1,.268.183l.007.007a1.492,1.492,0,0,1,.254.218.37.37,0,0,1,.084.07,3.446,3.446,0,0,1,0,4.873Zm0,0" transform="translate(0.702 0.704)" fill="#e6ae08"/>
    <path id="Trazado_119140" data-name="Trazado 119140" d="M38.759,1.429a1.423,1.423,0,0,0-.5-1.1A1.151,1.151,0,0,0,37.9.12c-.028-.014-.07-.028-.106-.042a1.668,1.668,0,0,0-.2-.049,1.285,1.285,0,0,0-.232-.021h-.014L32.541,0a.877.877,0,0,0-.493.282l-15.3,15.3a13.09,13.09,0,0,0-1.711-.4l-.4.4a13,13,0,0,0-2.74-.528,12.917,12.917,0,0,0-9.1,20.9c.3.366.6.711.915,1.035A12.858,12.858,0,0,0,11.9,40.8a12.916,12.916,0,0,0,11.26-16.689l1.521-1.521a.45.45,0,0,0,.127-.345L24.464,18.5a.436.436,0,0,1,.472-.472l1.74.162,1.69.155a.443.443,0,0,0,.472-.472l-.317-3.429a.437.437,0,0,1,.472-.472l1.739.162,1.69.155a.443.443,0,0,0,.472-.472l-.31-3.443a.429.429,0,0,1,.465-.465l1.746.155,2.021.183a.419.419,0,0,0,.338-.127l.028-.028,1.394-1.437a.716.716,0,0,0,.2-.493ZM11.71,34.02a3.434,3.434,0,0,1-3.493.838c-1.19.387-.19.106-1.134-.838a.372.372,0,0,1-.07-.085,1.492,1.492,0,0,1-.218-.253l-.007-.007a1.637,1.637,0,0,1-.183-.267,1.687,1.687,0,0,1-.162-.289,2.792,2.792,0,0,1-.148-.331,1.678,1.678,0,0,1-.085-.267,3.428,3.428,0,0,1,.873-3.373c.916-.915-.148-1.2,1.014-.873a.7.7,0,0,1,.113.035,3.4,3.4,0,0,1,2-.035,1.656,1.656,0,0,1,.267.085,2.769,2.769,0,0,1,.331.148,1.687,1.687,0,0,1,.289.162,1.64,1.64,0,0,1,.268.183l.007.007a1.492,1.492,0,0,1,.254.218.37.37,0,0,1,.084.07,3.446,3.446,0,0,1,0,4.873Zm0,0" transform="translate(0.702 0.704)" fill="#ffcd38"/>
    <path id="Trazado_119141" data-name="Trazado 119141" d="M13.624,42.257c-.253,0-.506-.007-.759-.021a13.626,13.626,0,1,1,4.38-26.743l15-15a1.586,1.586,0,0,1,.913-.483c.029,0,.072.009.088-.006l6.911.006a2.165,2.165,0,0,1,1.5.622,2.1,2.1,0,0,1,.615,1.509l.012,6.729a1.407,1.407,0,0,1-.4.984h0L40.47,11.316a1.125,1.125,0,0,1-.905.336l-3.437-.309.28,3.117a1.135,1.135,0,0,1-1.233,1.232l-3.109-.284.284,3.108a1.135,1.135,0,0,1-1.234,1.233l-3.107-.284.313,3.422a1.132,1.132,0,0,1-.328.906l-1.225,1.226a13.626,13.626,0,0,1-13.145,17.24Zm-.018-25.849A12.221,12.221,0,1,0,25.3,25.02a.7.7,0,0,1,.175-.7l1.43-1.43-.331-3.621a1.135,1.135,0,0,1,1.233-1.234l3.108.284-.284-3.108a1.135,1.135,0,0,1,1.234-1.233l3.109.284-.28-3.116A1.136,1.136,0,0,1,35.928,9.91l3.626.326L40.882,8.87v0l-.012-6.736a.7.7,0,0,0-.7-.718h0l-6.83-.006a.936.936,0,0,0-.088.076l-15.3,15.3a.7.7,0,0,1-.7.175,12.364,12.364,0,0,0-3.636-.55Zm0,0" transform="translate(0 0)"/>
    <path id="Trazado_119142" data-name="Trazado 119142" d="M4.146,8.3A4.148,4.148,0,1,1,7.081,7.083,4.148,4.148,0,0,1,4.146,8.3Zm0-6.889a2.74,2.74,0,1,0,1.939.8,2.74,2.74,0,0,0-1.939-.8Zm0,0" transform="translate(5.828 28.139)"/>
    <path id="Trazado_119143" data-name="Trazado 119143" d="M.7,12.381a.7.7,0,0,1-.5-1.2L11.171.214a.7.7,0,1,1,1,1L1.2,12.174a.7.7,0,0,1-.5.206Zm0,0" transform="translate(19.626 6.601)"/>
    <path id="Trazado_119144" data-name="Trazado 119144" d="M1.408.7a.7.7,0,1,0-.7.7A.7.7,0,0,0,1.408.7Zm0,0" transform="translate(32.433 4.901)"/>
  </g>
</svg>
