<svg xmlns="http://www.w3.org/2000/svg" width="483.702" height="292.637" viewBox="0 0 483.702 292.637">
  <g id="Grupo_85205" data-name="Grupo 85205" transform="translate(-199.945 -1902.5)">
    <path id="Trazado_120558" data-name="Trazado 120558" d="M20.961,10.389a1.052,1.052,0,0,0-.41-.892,5.38,5.38,0,0,0-1.477-.656,10.467,10.467,0,0,1-1.688-.68,2.759,2.759,0,0,1-1.7-2.468,2.4,2.4,0,0,1,.455-1.439,2.965,2.965,0,0,1,1.306-.988,4.914,4.914,0,0,1,1.911-.355,4.473,4.473,0,0,1,1.9.386,3.026,3.026,0,0,1,1.3,1.09,2.853,2.853,0,0,1,.461,1.6H20.968a1.342,1.342,0,0,0-.431-1.063,1.77,1.77,0,0,0-1.21-.379,1.891,1.891,0,0,0-1.169.318,1,1,0,0,0-.417.837.96.96,0,0,0,.489.813,5.522,5.522,0,0,0,1.439.615,6.217,6.217,0,0,1,2.55,1.306,2.6,2.6,0,0,1,.8,1.941,2.4,2.4,0,0,1-.978,2.027,4.279,4.279,0,0,1-2.632.735,5.082,5.082,0,0,1-2.092-.42,3.31,3.31,0,0,1-1.439-1.152,2.95,2.95,0,0,1-.5-1.7H17.44q0,1.647,1.969,1.647a1.915,1.915,0,0,0,1.142-.3A.967.967,0,0,0,20.961,10.389Zm6.72,2.748a3.631,3.631,0,0,1-2.649-1A3.548,3.548,0,0,1,24.01,9.479V9.288A4.468,4.468,0,0,1,24.44,7.3a3.161,3.161,0,0,1,1.22-1.354,3.425,3.425,0,0,1,1.8-.475,3.07,3.07,0,0,1,2.389.957,3.889,3.889,0,0,1,.872,2.714v.807h-4.71a1.835,1.835,0,0,0,.578,1.162,1.746,1.746,0,0,0,1.22.438,2.132,2.132,0,0,0,1.784-.827l.971,1.087a2.966,2.966,0,0,1-1.2.981A3.947,3.947,0,0,1,27.681,13.137ZM27.455,7.06a1.234,1.234,0,0,0-.954.4,2.062,2.062,0,0,0-.468,1.14h2.748V8.44a1.471,1.471,0,0,0-.355-1.02A1.274,1.274,0,0,0,27.455,7.06ZM33.662,5.6l.062.854a2.582,2.582,0,0,1,2.126-.991,2.146,2.146,0,0,1,1.75.69,3.221,3.221,0,0,1,.588,2.064V13H36.212V8.27a1.282,1.282,0,0,0-.273-.913,1.224,1.224,0,0,0-.909-.284,1.359,1.359,0,0,0-1.251.711V13H31.8V5.6ZM43.69,10.956a.637.637,0,0,0-.359-.571,4.077,4.077,0,0,0-1.152-.373q-2.639-.554-2.639-2.242a2.032,2.032,0,0,1,.817-1.644,3.3,3.3,0,0,1,2.136-.66,3.547,3.547,0,0,1,2.252.663,2.09,2.09,0,0,1,.844,1.723H43.615a.956.956,0,0,0-.273-.7,1.157,1.157,0,0,0-.854-.277,1.182,1.182,0,0,0-.772.226.712.712,0,0,0-.273.574.609.609,0,0,0,.311.53,3.2,3.2,0,0,0,1.049.349,8.571,8.571,0,0,1,1.244.332,2.044,2.044,0,0,1,1.565,1.989,1.929,1.929,0,0,1-.868,1.637,3.745,3.745,0,0,1-2.242.625,3.912,3.912,0,0,1-1.651-.332,2.77,2.77,0,0,1-1.131-.909,2.113,2.113,0,0,1-.41-1.248h1.873a1.031,1.031,0,0,0,.39.807,1.546,1.546,0,0,0,.971.28,1.43,1.43,0,0,0,.858-.215A.67.67,0,0,0,43.69,10.956Zm2.885-1.723A4.387,4.387,0,0,1,47,7.271a3.1,3.1,0,0,1,1.22-1.333,3.56,3.56,0,0,1,1.849-.472,3.368,3.368,0,0,1,2.444.916,3.676,3.676,0,0,1,1.056,2.488l.014.506a3.866,3.866,0,0,1-.95,2.731,3.683,3.683,0,0,1-5.1,0,3.934,3.934,0,0,1-.954-2.789Zm1.976.14a2.765,2.765,0,0,0,.4,1.612,1.424,1.424,0,0,0,2.256.007,3.025,3.025,0,0,0,.4-1.763,2.737,2.737,0,0,0-.4-1.6,1.311,1.311,0,0,0-1.135-.568,1.29,1.29,0,0,0-1.121.565A3.076,3.076,0,0,0,48.551,9.374Zm10.4-1.918a5.367,5.367,0,0,0-.711-.055,1.447,1.447,0,0,0-1.47.759V13H54.8V5.6h1.866l.055.882a1.831,1.831,0,0,1,1.647-1.019,2.07,2.07,0,0,1,.615.089Zm4.129,1.791a4.457,4.457,0,0,1,.776-2.755,2.517,2.517,0,0,1,2.123-1.025,2.265,2.265,0,0,1,1.784.807V2.5h1.982V13H67.965l-.1-.786a2.325,2.325,0,0,1-1.9.923,2.511,2.511,0,0,1-2.1-1.029A4.6,4.6,0,0,1,63.084,9.247Zm1.976.147a2.92,2.92,0,0,0,.362,1.6,1.18,1.18,0,0,0,1.053.555,1.322,1.322,0,0,0,1.292-.774V7.847a1.3,1.3,0,0,0-1.278-.774Q65.06,7.073,65.06,9.394Zm9.625,3.743a3.631,3.631,0,0,1-2.649-1,3.548,3.548,0,0,1-1.022-2.659V9.288A4.468,4.468,0,0,1,71.444,7.3a3.161,3.161,0,0,1,1.22-1.354,3.425,3.425,0,0,1,1.8-.475,3.07,3.07,0,0,1,2.389.957,3.889,3.889,0,0,1,.872,2.714v.807h-4.71a1.835,1.835,0,0,0,.578,1.162,1.746,1.746,0,0,0,1.22.438,2.132,2.132,0,0,0,1.784-.827l.971,1.087a2.966,2.966,0,0,1-1.2.981A3.947,3.947,0,0,1,74.685,13.137ZM74.459,7.06a1.234,1.234,0,0,0-.954.4,2.062,2.062,0,0,0-.468,1.14h2.748V8.44a1.471,1.471,0,0,0-.355-1.02A1.274,1.274,0,0,0,74.459,7.06ZM11,19.785V21.6h1.265v1.449H11v3.691a.881.881,0,0,0,.157.588.79.79,0,0,0,.6.178,3.151,3.151,0,0,0,.581-.048v1.5a4.067,4.067,0,0,1-1.2.178,1.886,1.886,0,0,1-2.119-2.1V23.053H7.945V21.6h1.08V19.785Zm5.77,9.352a3.631,3.631,0,0,1-2.649-1A3.548,3.548,0,0,1,13.1,25.479v-.191A4.468,4.468,0,0,1,13.53,23.3a3.161,3.161,0,0,1,1.22-1.354,3.425,3.425,0,0,1,1.8-.475,3.07,3.07,0,0,1,2.389.957,3.889,3.889,0,0,1,.872,2.714v.807H15.1a1.835,1.835,0,0,0,.578,1.162,1.746,1.746,0,0,0,1.22.438,2.132,2.132,0,0,0,1.784-.827l.971,1.087a2.966,2.966,0,0,1-1.2.981A3.947,3.947,0,0,1,16.771,29.137Zm-.226-6.077a1.234,1.234,0,0,0-.954.4,2.062,2.062,0,0,0-.468,1.14h2.748V24.44a1.471,1.471,0,0,0-.355-1.02A1.274,1.274,0,0,0,16.545,23.06ZM22.786,21.6l.062.827a2.6,2.6,0,0,1,2.126-.964,1.973,1.973,0,0,1,1.962,1.128,2.54,2.54,0,0,1,2.222-1.128,2.206,2.206,0,0,1,1.791.7,3.221,3.221,0,0,1,.588,2.109V29H29.554V24.283a1.408,1.408,0,0,0-.246-.919,1.091,1.091,0,0,0-.868-.291,1.233,1.233,0,0,0-1.23.848L27.216,29H25.24V24.29a1.391,1.391,0,0,0-.253-.93,1.1,1.1,0,0,0-.861-.287,1.28,1.28,0,0,0-1.217.7V29H20.934V21.6ZM39.712,25.37a4.436,4.436,0,0,1-.776,2.738,2.488,2.488,0,0,1-2.1,1.029,2.3,2.3,0,0,1-1.812-.779v3.486H33.054V21.6h1.832l.068.725a2.322,2.322,0,0,1,1.873-.861,2.5,2.5,0,0,1,2.126,1.012,4.556,4.556,0,0,1,.759,2.789Zm-1.976-.144a2.911,2.911,0,0,0-.366-1.593,1.191,1.191,0,0,0-1.063-.561,1.294,1.294,0,0,0-1.278.711v3.028a1.316,1.316,0,0,0,1.292.731Q37.736,27.544,37.736,25.227Zm6.6,3.91a3.631,3.631,0,0,1-2.649-1,3.548,3.548,0,0,1-1.022-2.659v-.191A4.468,4.468,0,0,1,41.1,23.3a3.161,3.161,0,0,1,1.22-1.354,3.425,3.425,0,0,1,1.8-.475,3.07,3.07,0,0,1,2.389.957,3.889,3.889,0,0,1,.872,2.714v.807h-4.71a1.835,1.835,0,0,0,.578,1.162,1.746,1.746,0,0,0,1.22.438,2.132,2.132,0,0,0,1.784-.827l.971,1.087a2.966,2.966,0,0,1-1.2.981A3.947,3.947,0,0,1,44.34,29.137Zm-.226-6.077a1.234,1.234,0,0,0-.954.4,2.062,2.062,0,0,0-.468,1.14H45.44V24.44a1.471,1.471,0,0,0-.355-1.02A1.274,1.274,0,0,0,44.114,23.06Zm8.545.4a5.367,5.367,0,0,0-.711-.055,1.447,1.447,0,0,0-1.47.759V29H48.5V21.6h1.866l.055.882a1.831,1.831,0,0,1,1.647-1.019,2.07,2.07,0,0,1,.615.089ZM57.69,29a2.194,2.194,0,0,1-.2-.663,2.39,2.39,0,0,1-1.866.8,2.626,2.626,0,0,1-1.8-.629,2.023,2.023,0,0,1-.714-1.586,2.09,2.09,0,0,1,.872-1.8,4.3,4.3,0,0,1,2.519-.636h.909v-.424a1.219,1.219,0,0,0-.263-.82,1.035,1.035,0,0,0-.831-.308,1.177,1.177,0,0,0-.783.239.813.813,0,0,0-.284.656H53.274a1.984,1.984,0,0,1,.4-1.189,2.621,2.621,0,0,1,1.121-.858,4.086,4.086,0,0,1,1.627-.311,3.228,3.228,0,0,1,2.17.687,2.4,2.4,0,0,1,.8,1.931v3.206a3.536,3.536,0,0,0,.294,1.593V29Zm-1.634-1.374a1.7,1.7,0,0,0,.807-.195,1.28,1.28,0,0,0,.547-.523V25.637h-.738q-1.483,0-1.579,1.025l-.007.116a.791.791,0,0,0,.26.608A1.009,1.009,0,0,0,56.057,27.626Zm7.219-7.841V21.6H64.54v1.449H63.275v3.691a.881.881,0,0,0,.157.588.79.79,0,0,0,.6.178,3.151,3.151,0,0,0,.581-.048v1.5a4.067,4.067,0,0,1-1.2.178,1.886,1.886,0,0,1-2.119-2.1V23.053H60.22V21.6H61.3V19.785Zm6.795,8.463a2.477,2.477,0,0,1-2.023.889,2.337,2.337,0,0,1-1.815-.684,2.918,2.918,0,0,1-.639-2V21.6h1.976v4.784q0,1.157,1.053,1.157a1.426,1.426,0,0,0,1.381-.7V21.6h1.982V29H70.125Zm7.561-4.792a5.367,5.367,0,0,0-.711-.055,1.447,1.447,0,0,0-1.47.759V29H73.475V21.6h1.866l.055.882a1.831,1.831,0,0,1,1.647-1.019,2.07,2.07,0,0,1,.615.089ZM82.662,29a2.194,2.194,0,0,1-.2-.663,2.39,2.39,0,0,1-1.866.8,2.626,2.626,0,0,1-1.8-.629,2.023,2.023,0,0,1-.714-1.586,2.09,2.09,0,0,1,.872-1.8,4.3,4.3,0,0,1,2.519-.636h.909v-.424a1.219,1.219,0,0,0-.263-.82,1.035,1.035,0,0,0-.831-.308,1.177,1.177,0,0,0-.783.239.813.813,0,0,0-.284.656H78.246a1.985,1.985,0,0,1,.4-1.189,2.621,2.621,0,0,1,1.121-.858,4.086,4.086,0,0,1,1.627-.311,3.228,3.228,0,0,1,2.17.687,2.4,2.4,0,0,1,.8,1.931v3.206a3.536,3.536,0,0,0,.294,1.593V29Zm-1.634-1.374a1.7,1.7,0,0,0,.807-.195,1.28,1.28,0,0,0,.547-.523V25.637h-.738q-1.483,0-1.579,1.025l-.007.116a.791.791,0,0,0,.26.608A1.009,1.009,0,0,0,81.028,27.626Z" transform="translate(192 2125)" fill="#12263f"/>
    <path id="Trazado_120559" data-name="Trazado 120559" d="M4.467,9.1V13H3.155V3.047H6.826a3.688,3.688,0,0,1,2.56.834,2.827,2.827,0,0,1,.926,2.208,2.79,2.79,0,0,1-.906,2.232A3.853,3.853,0,0,1,6.812,9.1Zm0-1.073H6.826a2.358,2.358,0,0,0,1.613-.5A1.815,1.815,0,0,0,9,6.1a1.876,1.876,0,0,0-.561-1.424A2.209,2.209,0,0,0,6.9,4.12H4.467Zm11.888,4.238a2.686,2.686,0,0,1-2.167.868,2.3,2.3,0,0,1-1.8-.687,2.974,2.974,0,0,1-.625-2.034V5.6h1.265v4.778q0,1.682,1.367,1.682a1.893,1.893,0,0,0,1.928-1.08V5.6h1.265V13h-1.2Zm9.413-2.885a4.4,4.4,0,0,1-.779,2.724A2.49,2.49,0,0,1,22.9,13.137a2.578,2.578,0,0,1-2.167-.991L20.668,13H19.506V2.5h1.265V6.417a2.564,2.564,0,0,1,2.112-.95A2.505,2.505,0,0,1,25,6.485a4.53,4.53,0,0,1,.769,2.789ZM24.5,9.24a3.417,3.417,0,0,0-.5-2,1.652,1.652,0,0,0-1.436-.7,1.857,1.857,0,0,0-1.8,1.162v3.2a1.909,1.909,0,0,0,1.812,1.162,1.643,1.643,0,0,0,1.415-.7A3.634,3.634,0,0,0,24.5,9.24ZM28.735,13H27.47V2.5h1.265Zm3.4,0H30.868V5.6h1.265ZM30.765,3.642a.755.755,0,0,1,.188-.52.706.706,0,0,1,.557-.212.717.717,0,0,1,.561.212.747.747,0,0,1,.191.52.722.722,0,0,1-.191.513.73.73,0,0,1-.561.205.718.718,0,0,1-.557-.205A.73.73,0,0,1,30.765,3.642ZM37.123,12.1a1.822,1.822,0,0,0,1.183-.41,1.443,1.443,0,0,0,.561-1.025h1.2a2.293,2.293,0,0,1-.437,1.21,2.881,2.881,0,0,1-1.077.916,3.107,3.107,0,0,1-1.425.342,3.047,3.047,0,0,1-2.4-1.008,4.016,4.016,0,0,1-.892-2.758V9.158a4.453,4.453,0,0,1,.4-1.921,3.02,3.02,0,0,1,1.138-1.306,3.233,3.233,0,0,1,1.753-.465,2.966,2.966,0,0,1,2.068.745,2.663,2.663,0,0,1,.878,1.935h-1.2a1.743,1.743,0,0,0-.543-1.179,1.691,1.691,0,0,0-1.207-.461,1.77,1.77,0,0,0-1.494.694,3.259,3.259,0,0,0-.53,2.006v.239a3.194,3.194,0,0,0,.526,1.969A1.779,1.779,0,0,0,37.123,12.1Zm8.928.9a2.657,2.657,0,0,1-.178-.779,2.822,2.822,0,0,1-2.105.916,2.611,2.611,0,0,1-1.794-.619,2,2,0,0,1-.7-1.569,2.091,2.091,0,0,1,.878-1.794,4.142,4.142,0,0,1,2.471-.639h1.23V7.935a1.42,1.42,0,0,0-.4-1.056,1.593,1.593,0,0,0-1.169-.393,1.844,1.844,0,0,0-1.135.342,1.007,1.007,0,0,0-.458.827H41.422a1.745,1.745,0,0,1,.393-1.07,2.683,2.683,0,0,1,1.066-.817,3.588,3.588,0,0,1,1.48-.3,2.924,2.924,0,0,1,2,.639,2.306,2.306,0,0,1,.752,1.76v3.4a4.162,4.162,0,0,0,.26,1.62V13Zm-2.1-.964a2.223,2.223,0,0,0,1.128-.308,1.861,1.861,0,0,0,.772-.8V9.411h-.991q-2.324,0-2.324,1.36a1.151,1.151,0,0,0,.4.93A1.524,1.524,0,0,0,43.952,12.036Zm8.114.068a1.822,1.822,0,0,0,1.183-.41,1.443,1.443,0,0,0,.561-1.025h1.2a2.293,2.293,0,0,1-.437,1.21,2.881,2.881,0,0,1-1.077.916,3.107,3.107,0,0,1-1.425.342,3.047,3.047,0,0,1-2.4-1.008,4.016,4.016,0,0,1-.892-2.758V9.158a4.453,4.453,0,0,1,.4-1.921,3.02,3.02,0,0,1,1.138-1.306,3.233,3.233,0,0,1,1.753-.465,2.966,2.966,0,0,1,2.068.745,2.663,2.663,0,0,1,.878,1.935h-1.2a1.743,1.743,0,0,0-.543-1.179,1.691,1.691,0,0,0-1.207-.461,1.77,1.77,0,0,0-1.494.694,3.259,3.259,0,0,0-.53,2.006v.239a3.194,3.194,0,0,0,.526,1.969A1.779,1.779,0,0,0,52.066,12.1ZM57.8,13H56.537V5.6H57.8ZM56.434,3.642a.755.755,0,0,1,.188-.52.706.706,0,0,1,.557-.212.717.717,0,0,1,.561.212.747.747,0,0,1,.191.52.722.722,0,0,1-.191.513.73.73,0,0,1-.561.205.718.718,0,0,1-.557-.205A.73.73,0,0,1,56.434,3.642ZM59.49,9.233a4.369,4.369,0,0,1,.427-1.955,3.187,3.187,0,0,1,1.189-1.34,3.238,3.238,0,0,1,1.74-.472A3.119,3.119,0,0,1,65.29,6.513a4.024,4.024,0,0,1,.933,2.782v.089a4.407,4.407,0,0,1-.414,1.938,3.14,3.14,0,0,1-1.183,1.336,3.275,3.275,0,0,1-1.767.479,3.111,3.111,0,0,1-2.437-1.046,4,4,0,0,1-.933-2.769Zm1.271.15a3.164,3.164,0,0,0,.571,1.976,1.934,1.934,0,0,0,3.059-.01,3.46,3.46,0,0,0,.567-2.116,3.159,3.159,0,0,0-.578-1.972,1.836,1.836,0,0,0-1.535-.755,1.816,1.816,0,0,0-1.511.745A3.435,3.435,0,0,0,60.761,9.384ZM63.42,2.5h1.531L63.12,4.51l-1.019,0Zm5.585,3.1.041.93a2.7,2.7,0,0,1,2.215-1.066q2.345,0,2.365,2.646V13H72.362V8.105A1.7,1.7,0,0,0,72,6.923a1.466,1.466,0,0,0-1.118-.383,1.825,1.825,0,0,0-1.08.328,2.228,2.228,0,0,0-.725.861V13H67.809V5.6ZM85.391,13H78.87v-.909l3.445-3.828a8.185,8.185,0,0,0,1.056-1.412,2.356,2.356,0,0,0,.291-1.125,1.786,1.786,0,0,0-.472-1.278,1.649,1.649,0,0,0-1.258-.5,1.953,1.953,0,0,0-1.466.537,2.05,2.05,0,0,0-.523,1.494H78.678a2.936,2.936,0,0,1,.885-2.222,3.282,3.282,0,0,1,2.369-.848,3.153,3.153,0,0,1,2.194.728,2.483,2.483,0,0,1,.807,1.938q0,1.47-1.873,3.5l-2.666,2.892h5ZM92.07,9.657h1.381v1.032H92.07V13H90.8V10.689H86.266V9.944l4.457-6.9H92.07Zm-4.368,0h3.1V4.776l-.15.273ZM97.594,5.8a2.548,2.548,0,0,1,.249-1.14,1.859,1.859,0,0,1,.694-.782,1.889,1.889,0,0,1,1.015-.275,1.819,1.819,0,0,1,1.425.61,2.347,2.347,0,0,1,.544,1.623v.052a2.571,2.571,0,0,1-.241,1.13,1.832,1.832,0,0,1-.69.78,1.91,1.91,0,0,1-1.031.279,1.815,1.815,0,0,1-1.422-.61,2.335,2.335,0,0,1-.544-1.615Zm.742.088a1.846,1.846,0,0,0,.333,1.152,1.128,1.128,0,0,0,1.784-.006,2.018,2.018,0,0,0,.331-1.234,1.843,1.843,0,0,0-.337-1.15,1.071,1.071,0,0,0-.9-.441,1.059,1.059,0,0,0-.881.435A2,2,0,0,0,98.335,5.891Zm12.029,3.951a3.662,3.662,0,0,1-1.166,2.437,3.82,3.82,0,0,1-2.608.858,3.507,3.507,0,0,1-2.827-1.265A5.088,5.088,0,0,1,102.7,8.488V7.531a5.671,5.671,0,0,1,.5-2.44,3.7,3.7,0,0,1,1.4-1.617,3.911,3.911,0,0,1,2.105-.564,3.6,3.6,0,0,1,2.543.885,3.706,3.706,0,0,1,1.114,2.451h-1.319a2.86,2.86,0,0,0-.742-1.728,2.244,2.244,0,0,0-1.6-.535,2.348,2.348,0,0,0-1.972.93,4.272,4.272,0,0,0-.714,2.648v.965a4.391,4.391,0,0,0,.677,2.579,2.187,2.187,0,0,0,1.894.958,2.526,2.526,0,0,0,1.678-.5,2.75,2.75,0,0,0,.776-1.726Z" transform="translate(292 2082)" fill="#12263f"/>
    <path id="Trazado_120562" data-name="Trazado 120562" d="M4.467,9.1V13H3.155V3.047H6.826a3.688,3.688,0,0,1,2.56.834,2.827,2.827,0,0,1,.926,2.208,2.79,2.79,0,0,1-.906,2.232A3.853,3.853,0,0,1,6.812,9.1Zm0-1.073H6.826a2.358,2.358,0,0,0,1.613-.5A1.815,1.815,0,0,0,9,6.1a1.876,1.876,0,0,0-.561-1.424A2.209,2.209,0,0,0,6.9,4.12H4.467Zm11.888,4.238a2.686,2.686,0,0,1-2.167.868,2.3,2.3,0,0,1-1.8-.687,2.974,2.974,0,0,1-.625-2.034V5.6h1.265v4.778q0,1.682,1.367,1.682a1.893,1.893,0,0,0,1.928-1.08V5.6h1.265V13h-1.2Zm9.413-2.885a4.4,4.4,0,0,1-.779,2.724A2.49,2.49,0,0,1,22.9,13.137a2.578,2.578,0,0,1-2.167-.991L20.668,13H19.506V2.5h1.265V6.417a2.564,2.564,0,0,1,2.112-.95A2.505,2.505,0,0,1,25,6.485a4.53,4.53,0,0,1,.769,2.789ZM24.5,9.24a3.417,3.417,0,0,0-.5-2,1.652,1.652,0,0,0-1.436-.7,1.857,1.857,0,0,0-1.8,1.162v3.2a1.909,1.909,0,0,0,1.812,1.162,1.643,1.643,0,0,0,1.415-.7A3.634,3.634,0,0,0,24.5,9.24ZM28.735,13H27.47V2.5h1.265Zm3.4,0H30.868V5.6h1.265ZM30.765,3.642a.755.755,0,0,1,.188-.52.706.706,0,0,1,.557-.212.717.717,0,0,1,.561.212.747.747,0,0,1,.191.52.722.722,0,0,1-.191.513.73.73,0,0,1-.561.205.718.718,0,0,1-.557-.205A.73.73,0,0,1,30.765,3.642ZM37.123,12.1a1.822,1.822,0,0,0,1.183-.41,1.443,1.443,0,0,0,.561-1.025h1.2a2.293,2.293,0,0,1-.437,1.21,2.881,2.881,0,0,1-1.077.916,3.107,3.107,0,0,1-1.425.342,3.047,3.047,0,0,1-2.4-1.008,4.016,4.016,0,0,1-.892-2.758V9.158a4.453,4.453,0,0,1,.4-1.921,3.02,3.02,0,0,1,1.138-1.306,3.233,3.233,0,0,1,1.753-.465,2.966,2.966,0,0,1,2.068.745,2.663,2.663,0,0,1,.878,1.935h-1.2a1.743,1.743,0,0,0-.543-1.179,1.691,1.691,0,0,0-1.207-.461,1.77,1.77,0,0,0-1.494.694,3.259,3.259,0,0,0-.53,2.006v.239a3.194,3.194,0,0,0,.526,1.969A1.779,1.779,0,0,0,37.123,12.1Zm8.928.9a2.657,2.657,0,0,1-.178-.779,2.822,2.822,0,0,1-2.105.916,2.611,2.611,0,0,1-1.794-.619,2,2,0,0,1-.7-1.569,2.091,2.091,0,0,1,.878-1.794,4.142,4.142,0,0,1,2.471-.639h1.23V7.935a1.42,1.42,0,0,0-.4-1.056,1.593,1.593,0,0,0-1.169-.393,1.844,1.844,0,0,0-1.135.342,1.007,1.007,0,0,0-.458.827H41.422a1.745,1.745,0,0,1,.393-1.07,2.683,2.683,0,0,1,1.066-.817,3.588,3.588,0,0,1,1.48-.3,2.924,2.924,0,0,1,2,.639,2.306,2.306,0,0,1,.752,1.76v3.4a4.162,4.162,0,0,0,.26,1.62V13Zm-2.1-.964a2.223,2.223,0,0,0,1.128-.308,1.861,1.861,0,0,0,.772-.8V9.411h-.991q-2.324,0-2.324,1.36a1.151,1.151,0,0,0,.4.93A1.524,1.524,0,0,0,43.952,12.036Zm8.114.068a1.822,1.822,0,0,0,1.183-.41,1.443,1.443,0,0,0,.561-1.025h1.2a2.293,2.293,0,0,1-.437,1.21,2.881,2.881,0,0,1-1.077.916,3.107,3.107,0,0,1-1.425.342,3.047,3.047,0,0,1-2.4-1.008,4.016,4.016,0,0,1-.892-2.758V9.158a4.453,4.453,0,0,1,.4-1.921,3.02,3.02,0,0,1,1.138-1.306,3.233,3.233,0,0,1,1.753-.465,2.966,2.966,0,0,1,2.068.745,2.663,2.663,0,0,1,.878,1.935h-1.2a1.743,1.743,0,0,0-.543-1.179,1.691,1.691,0,0,0-1.207-.461,1.77,1.77,0,0,0-1.494.694,3.259,3.259,0,0,0-.53,2.006v.239a3.194,3.194,0,0,0,.526,1.969A1.779,1.779,0,0,0,52.066,12.1ZM57.8,13H56.537V5.6H57.8ZM56.434,3.642a.755.755,0,0,1,.188-.52.706.706,0,0,1,.557-.212.717.717,0,0,1,.561.212.747.747,0,0,1,.191.52.722.722,0,0,1-.191.513.73.73,0,0,1-.561.205.718.718,0,0,1-.557-.205A.73.73,0,0,1,56.434,3.642ZM59.49,9.233a4.369,4.369,0,0,1,.427-1.955,3.187,3.187,0,0,1,1.189-1.34,3.238,3.238,0,0,1,1.74-.472A3.119,3.119,0,0,1,65.29,6.513a4.024,4.024,0,0,1,.933,2.782v.089a4.407,4.407,0,0,1-.414,1.938,3.14,3.14,0,0,1-1.183,1.336,3.275,3.275,0,0,1-1.767.479,3.111,3.111,0,0,1-2.437-1.046,4,4,0,0,1-.933-2.769Zm1.271.15a3.164,3.164,0,0,0,.571,1.976,1.934,1.934,0,0,0,3.059-.01,3.46,3.46,0,0,0,.567-2.116,3.159,3.159,0,0,0-.578-1.972,1.836,1.836,0,0,0-1.535-.755,1.816,1.816,0,0,0-1.511.745A3.435,3.435,0,0,0,60.761,9.384ZM63.42,2.5h1.531L63.12,4.51l-1.019,0Zm5.585,3.1.041.93a2.7,2.7,0,0,1,2.215-1.066q2.345,0,2.365,2.646V13H72.362V8.105A1.7,1.7,0,0,0,72,6.923a1.466,1.466,0,0,0-1.118-.383,1.825,1.825,0,0,0-1.08.328,2.228,2.228,0,0,0-.725.861V13H67.809V5.6ZM85.391,13H78.87v-.909l3.445-3.828a8.185,8.185,0,0,0,1.056-1.412,2.356,2.356,0,0,0,.291-1.125,1.786,1.786,0,0,0-.472-1.278,1.649,1.649,0,0,0-1.258-.5,1.953,1.953,0,0,0-1.466.537,2.05,2.05,0,0,0-.523,1.494H78.678a2.936,2.936,0,0,1,.885-2.222,3.282,3.282,0,0,1,2.369-.848,3.153,3.153,0,0,1,2.194.728,2.483,2.483,0,0,1,.807,1.938q0,1.47-1.873,3.5l-2.666,2.892h5ZM92.07,9.657h1.381v1.032H92.07V13H90.8V10.689H86.266V9.944l4.457-6.9H92.07Zm-4.368,0h3.1V4.776l-.15.273ZM97.594,5.8a2.548,2.548,0,0,1,.249-1.14,1.859,1.859,0,0,1,.694-.782,1.889,1.889,0,0,1,1.015-.275,1.819,1.819,0,0,1,1.425.61,2.347,2.347,0,0,1,.544,1.623v.052a2.571,2.571,0,0,1-.241,1.13,1.832,1.832,0,0,1-.69.78,1.91,1.91,0,0,1-1.031.279,1.815,1.815,0,0,1-1.422-.61,2.335,2.335,0,0,1-.544-1.615Zm.742.088a1.846,1.846,0,0,0,.333,1.152,1.128,1.128,0,0,0,1.784-.006,2.018,2.018,0,0,0,.331-1.234,1.843,1.843,0,0,0-.337-1.15,1.071,1.071,0,0,0-.9-.441,1.059,1.059,0,0,0-.881.435A2,2,0,0,0,98.335,5.891Zm12.029,3.951a3.662,3.662,0,0,1-1.166,2.437,3.82,3.82,0,0,1-2.608.858,3.507,3.507,0,0,1-2.827-1.265A5.088,5.088,0,0,1,102.7,8.488V7.531a5.671,5.671,0,0,1,.5-2.44,3.7,3.7,0,0,1,1.4-1.617,3.911,3.911,0,0,1,2.105-.564,3.6,3.6,0,0,1,2.543.885,3.706,3.706,0,0,1,1.114,2.451h-1.319a2.86,2.86,0,0,0-.742-1.728,2.244,2.244,0,0,0-1.6-.535,2.348,2.348,0,0,0-1.972.93,4.272,4.272,0,0,0-.714,2.648v.965a4.391,4.391,0,0,0,.677,2.579,2.187,2.187,0,0,0,1.894.958,2.526,2.526,0,0,0,1.678-.5,2.75,2.75,0,0,0,.776-1.726Z" transform="translate(572 2021)" fill="#12263f"/>
    <path id="Trazado_120560" data-name="Trazado 120560" d="M4.467,9.1V13H3.155V3.047H6.826a3.688,3.688,0,0,1,2.56.834,2.827,2.827,0,0,1,.926,2.208,2.79,2.79,0,0,1-.906,2.232A3.853,3.853,0,0,1,6.812,9.1Zm0-1.073H6.826a2.358,2.358,0,0,0,1.613-.5A1.815,1.815,0,0,0,9,6.1a1.876,1.876,0,0,0-.561-1.424A2.209,2.209,0,0,0,6.9,4.12H4.467Zm11.888,4.238a2.686,2.686,0,0,1-2.167.868,2.3,2.3,0,0,1-1.8-.687,2.974,2.974,0,0,1-.625-2.034V5.6h1.265v4.778q0,1.682,1.367,1.682a1.893,1.893,0,0,0,1.928-1.08V5.6h1.265V13h-1.2Zm9.413-2.885a4.4,4.4,0,0,1-.779,2.724A2.49,2.49,0,0,1,22.9,13.137a2.578,2.578,0,0,1-2.167-.991L20.668,13H19.506V2.5h1.265V6.417a2.564,2.564,0,0,1,2.112-.95A2.505,2.505,0,0,1,25,6.485a4.53,4.53,0,0,1,.769,2.789ZM24.5,9.24a3.417,3.417,0,0,0-.5-2,1.652,1.652,0,0,0-1.436-.7,1.857,1.857,0,0,0-1.8,1.162v3.2a1.909,1.909,0,0,0,1.812,1.162,1.643,1.643,0,0,0,1.415-.7A3.634,3.634,0,0,0,24.5,9.24ZM28.735,13H27.47V2.5h1.265Zm3.4,0H30.868V5.6h1.265ZM30.765,3.642a.755.755,0,0,1,.188-.52.706.706,0,0,1,.557-.212.717.717,0,0,1,.561.212.747.747,0,0,1,.191.52.722.722,0,0,1-.191.513.73.73,0,0,1-.561.205.718.718,0,0,1-.557-.205A.73.73,0,0,1,30.765,3.642ZM37.123,12.1a1.822,1.822,0,0,0,1.183-.41,1.443,1.443,0,0,0,.561-1.025h1.2a2.293,2.293,0,0,1-.437,1.21,2.881,2.881,0,0,1-1.077.916,3.107,3.107,0,0,1-1.425.342,3.047,3.047,0,0,1-2.4-1.008,4.016,4.016,0,0,1-.892-2.758V9.158a4.453,4.453,0,0,1,.4-1.921,3.02,3.02,0,0,1,1.138-1.306,3.233,3.233,0,0,1,1.753-.465,2.966,2.966,0,0,1,2.068.745,2.663,2.663,0,0,1,.878,1.935h-1.2a1.743,1.743,0,0,0-.543-1.179,1.691,1.691,0,0,0-1.207-.461,1.77,1.77,0,0,0-1.494.694,3.259,3.259,0,0,0-.53,2.006v.239a3.194,3.194,0,0,0,.526,1.969A1.779,1.779,0,0,0,37.123,12.1Zm8.928.9a2.657,2.657,0,0,1-.178-.779,2.822,2.822,0,0,1-2.105.916,2.611,2.611,0,0,1-1.794-.619,2,2,0,0,1-.7-1.569,2.091,2.091,0,0,1,.878-1.794,4.142,4.142,0,0,1,2.471-.639h1.23V7.935a1.42,1.42,0,0,0-.4-1.056,1.593,1.593,0,0,0-1.169-.393,1.844,1.844,0,0,0-1.135.342,1.007,1.007,0,0,0-.458.827H41.422a1.745,1.745,0,0,1,.393-1.07,2.683,2.683,0,0,1,1.066-.817,3.588,3.588,0,0,1,1.48-.3,2.924,2.924,0,0,1,2,.639,2.306,2.306,0,0,1,.752,1.76v3.4a4.162,4.162,0,0,0,.26,1.62V13Zm-2.1-.964a2.223,2.223,0,0,0,1.128-.308,1.861,1.861,0,0,0,.772-.8V9.411h-.991q-2.324,0-2.324,1.36a1.151,1.151,0,0,0,.4.93A1.524,1.524,0,0,0,43.952,12.036Zm8.114.068a1.822,1.822,0,0,0,1.183-.41,1.443,1.443,0,0,0,.561-1.025h1.2a2.293,2.293,0,0,1-.437,1.21,2.881,2.881,0,0,1-1.077.916,3.107,3.107,0,0,1-1.425.342,3.047,3.047,0,0,1-2.4-1.008,4.016,4.016,0,0,1-.892-2.758V9.158a4.453,4.453,0,0,1,.4-1.921,3.02,3.02,0,0,1,1.138-1.306,3.233,3.233,0,0,1,1.753-.465,2.966,2.966,0,0,1,2.068.745,2.663,2.663,0,0,1,.878,1.935h-1.2a1.743,1.743,0,0,0-.543-1.179,1.691,1.691,0,0,0-1.207-.461,1.77,1.77,0,0,0-1.494.694,3.259,3.259,0,0,0-.53,2.006v.239a3.194,3.194,0,0,0,.526,1.969A1.779,1.779,0,0,0,52.066,12.1ZM57.8,13H56.537V5.6H57.8ZM56.434,3.642a.755.755,0,0,1,.188-.52.706.706,0,0,1,.557-.212.717.717,0,0,1,.561.212.747.747,0,0,1,.191.52.722.722,0,0,1-.191.513.73.73,0,0,1-.561.205.718.718,0,0,1-.557-.205A.73.73,0,0,1,56.434,3.642ZM59.49,9.233a4.369,4.369,0,0,1,.427-1.955,3.187,3.187,0,0,1,1.189-1.34,3.238,3.238,0,0,1,1.74-.472A3.119,3.119,0,0,1,65.29,6.513a4.024,4.024,0,0,1,.933,2.782v.089a4.407,4.407,0,0,1-.414,1.938,3.14,3.14,0,0,1-1.183,1.336,3.275,3.275,0,0,1-1.767.479,3.111,3.111,0,0,1-2.437-1.046,4,4,0,0,1-.933-2.769Zm1.271.15a3.164,3.164,0,0,0,.571,1.976,1.934,1.934,0,0,0,3.059-.01,3.46,3.46,0,0,0,.567-2.116,3.159,3.159,0,0,0-.578-1.972,1.836,1.836,0,0,0-1.535-.755,1.816,1.816,0,0,0-1.511.745A3.435,3.435,0,0,0,60.761,9.384ZM63.42,2.5h1.531L63.12,4.51l-1.019,0Zm5.585,3.1.041.93a2.7,2.7,0,0,1,2.215-1.066q2.345,0,2.365,2.646V13H72.362V8.105A1.7,1.7,0,0,0,72,6.923a1.466,1.466,0,0,0-1.118-.383,1.825,1.825,0,0,0-1.08.328,2.228,2.228,0,0,0-.725.861V13H67.809V5.6ZM85.391,13H78.87v-.909l3.445-3.828a8.185,8.185,0,0,0,1.056-1.412,2.356,2.356,0,0,0,.291-1.125,1.786,1.786,0,0,0-.472-1.278,1.649,1.649,0,0,0-1.258-.5,1.953,1.953,0,0,0-1.466.537,2.05,2.05,0,0,0-.523,1.494H78.678a2.936,2.936,0,0,1,.885-2.222,3.282,3.282,0,0,1,2.369-.848,3.153,3.153,0,0,1,2.194.728,2.483,2.483,0,0,1,.807,1.938q0,1.47-1.873,3.5l-2.666,2.892h5ZM92.07,9.657h1.381v1.032H92.07V13H90.8V10.689H86.266V9.944l4.457-6.9H92.07Zm-4.368,0h3.1V4.776l-.15.273ZM97.594,5.8a2.548,2.548,0,0,1,.249-1.14,1.859,1.859,0,0,1,.694-.782,1.889,1.889,0,0,1,1.015-.275,1.819,1.819,0,0,1,1.425.61,2.347,2.347,0,0,1,.544,1.623v.052a2.571,2.571,0,0,1-.241,1.13,1.832,1.832,0,0,1-.69.78,1.91,1.91,0,0,1-1.031.279,1.815,1.815,0,0,1-1.422-.61,2.335,2.335,0,0,1-.544-1.615Zm.742.088a1.846,1.846,0,0,0,.333,1.152,1.128,1.128,0,0,0,1.784-.006,2.018,2.018,0,0,0,.331-1.234,1.843,1.843,0,0,0-.337-1.15,1.071,1.071,0,0,0-.9-.441,1.059,1.059,0,0,0-.881.435A2,2,0,0,0,98.335,5.891Zm12.029,3.951a3.662,3.662,0,0,1-1.166,2.437,3.82,3.82,0,0,1-2.608.858,3.507,3.507,0,0,1-2.827-1.265A5.088,5.088,0,0,1,102.7,8.488V7.531a5.671,5.671,0,0,1,.5-2.44,3.7,3.7,0,0,1,1.4-1.617,3.911,3.911,0,0,1,2.105-.564,3.6,3.6,0,0,1,2.543.885,3.706,3.706,0,0,1,1.114,2.451h-1.319a2.86,2.86,0,0,0-.742-1.728,2.244,2.244,0,0,0-1.6-.535,2.348,2.348,0,0,0-1.972.93,4.272,4.272,0,0,0-.714,2.648v.965a4.391,4.391,0,0,0,.677,2.579,2.187,2.187,0,0,0,1.894.958,2.526,2.526,0,0,0,1.678-.5,2.75,2.75,0,0,0,.776-1.726Z" transform="translate(439 2094)" fill="#12263f"/>
    <path id="Trazado_120566" data-name="Trazado 120566" d="M-32.409-4.437a6.172,6.172,0,0,1-2.458-1.193,2.279,2.279,0,0,1-.769-1.747,2.408,2.408,0,0,1,.94-1.945,3.736,3.736,0,0,1,2.444-.769,4.078,4.078,0,0,1,1.829.4A3.007,3.007,0,0,1-29.179-8.6a2.8,2.8,0,0,1,.441,1.524h-1.319A1.82,1.82,0,0,0-30.632-8.5a2.335,2.335,0,0,0-1.62-.518,2.391,2.391,0,0,0-1.514.428A1.428,1.428,0,0,0-34.31-7.4a1.285,1.285,0,0,0,.516,1.031,5.062,5.062,0,0,0,1.757.77,8.152,8.152,0,0,1,1.941.77,2.946,2.946,0,0,1,1.039.981,2.5,2.5,0,0,1,.338,1.319,2.326,2.326,0,0,1-.943,1.938,4.022,4.022,0,0,1-2.522.728A4.678,4.678,0,0,1-34.1-.256a3.221,3.221,0,0,1-1.371-1.077,2.627,2.627,0,0,1-.482-1.552h1.319a1.714,1.714,0,0,0,.667,1.425,2.806,2.806,0,0,0,1.781.523,2.58,2.58,0,0,0,1.593-.424,1.377,1.377,0,0,0,.554-1.155,1.351,1.351,0,0,0-.513-1.131A5.911,5.911,0,0,0-32.409-4.437Zm9.741,3.705a2.686,2.686,0,0,1-2.167.868,2.3,2.3,0,0,1-1.8-.687,2.974,2.974,0,0,1-.625-2.034V-7.4H-26v4.778Q-26-.937-24.63-.937A1.893,1.893,0,0,0-22.7-2.017V-7.4h1.265V0h-1.2Zm7.458-1.23a.931.931,0,0,0-.386-.8,3.718,3.718,0,0,0-1.347-.489,6.367,6.367,0,0,1-1.524-.492,2.169,2.169,0,0,1-.834-.684,1.635,1.635,0,0,1-.27-.943A1.919,1.919,0,0,1-18.8-6.9a3,3,0,0,1,1.965-.629,3.091,3.091,0,0,1,2.041.649,2.063,2.063,0,0,1,.783,1.661h-1.271a1.142,1.142,0,0,0-.441-.9,1.652,1.652,0,0,0-1.111-.376,1.729,1.729,0,0,0-1.08.3.947.947,0,0,0-.39.786.767.767,0,0,0,.362.69,4.458,4.458,0,0,0,1.309.444,6.821,6.821,0,0,1,1.535.506,2.239,2.239,0,0,1,.872.708,1.74,1.74,0,0,1,.284,1.008,1.893,1.893,0,0,1-.793,1.589,3.326,3.326,0,0,1-2.058.6,3.725,3.725,0,0,1-1.572-.314,2.557,2.557,0,0,1-1.07-.878,2.117,2.117,0,0,1-.386-1.22h1.265a1.309,1.309,0,0,0,.509,1.008A1.976,1.976,0,0,0-16.8-.9a2.039,2.039,0,0,0,1.152-.291A.893.893,0,0,0-15.21-1.962ZM-9.331-.9a1.822,1.822,0,0,0,1.183-.41,1.443,1.443,0,0,0,.561-1.025h1.2a2.293,2.293,0,0,1-.437,1.21,2.881,2.881,0,0,1-1.077.916A3.107,3.107,0,0,1-9.331.137a3.047,3.047,0,0,1-2.4-1.008,4.016,4.016,0,0,1-.892-2.758v-.212a4.453,4.453,0,0,1,.4-1.921,3.02,3.02,0,0,1,1.138-1.306,3.233,3.233,0,0,1,1.753-.465,2.966,2.966,0,0,1,2.068.745,2.663,2.663,0,0,1,.878,1.935h-1.2a1.743,1.743,0,0,0-.543-1.179,1.691,1.691,0,0,0-1.207-.461,1.77,1.77,0,0,0-1.494.694,3.259,3.259,0,0,0-.53,2.006v.239a3.194,3.194,0,0,0,.526,1.969A1.779,1.779,0,0,0-9.331-.9Zm7.937-5.366a3.79,3.79,0,0,0-.622-.048A1.667,1.667,0,0,0-3.705-5.25V0H-4.97V-7.4h1.23l.021.854a1.969,1.969,0,0,1,1.764-.991,1.292,1.292,0,0,1,.561.1ZM1.142,0H-.123V-7.4H1.142ZM-.226-9.358a.755.755,0,0,1,.188-.52A.706.706,0,0,1,.52-10.09a.717.717,0,0,1,.561.212.747.747,0,0,1,.191.52.722.722,0,0,1-.191.513.73.73,0,0,1-.561.205.718.718,0,0,1-.557-.205A.73.73,0,0,1-.226-9.358ZM9.413-3.616A4.429,4.429,0,0,1,8.641-.9,2.476,2.476,0,0,1,6.549.137,2.713,2.713,0,0,1,4.43-.718V2.844H3.165V-7.4H4.32l.062.82a2.605,2.605,0,0,1,2.146-.957,2.522,2.522,0,0,1,2.109,1,4.477,4.477,0,0,1,.776,2.8ZM8.148-3.76a3.268,3.268,0,0,0-.533-1.976A1.718,1.718,0,0,0,6.152-6.46,1.859,1.859,0,0,0,4.43-5.441v3.534A1.863,1.863,0,0,0,6.166-.9a1.71,1.71,0,0,0,1.446-.721A3.567,3.567,0,0,0,8.148-3.76ZM13.986-.9a1.822,1.822,0,0,0,1.183-.41,1.443,1.443,0,0,0,.561-1.025h1.2a2.293,2.293,0,0,1-.437,1.21,2.881,2.881,0,0,1-1.077.916,3.107,3.107,0,0,1-1.425.342,3.047,3.047,0,0,1-2.4-1.008,4.016,4.016,0,0,1-.892-2.758v-.212a4.453,4.453,0,0,1,.4-1.921,3.02,3.02,0,0,1,1.138-1.306,3.233,3.233,0,0,1,1.753-.465,2.966,2.966,0,0,1,2.068.745,2.663,2.663,0,0,1,.878,1.935h-1.2a1.743,1.743,0,0,0-.543-1.179,1.691,1.691,0,0,0-1.207-.461,1.77,1.77,0,0,0-1.494.694,3.259,3.259,0,0,0-.53,2.006v.239a3.194,3.194,0,0,0,.526,1.969A1.779,1.779,0,0,0,13.986-.9Zm5.735.9H18.457V-7.4h1.265ZM18.354-9.358a.755.755,0,0,1,.188-.52.706.706,0,0,1,.557-.212.717.717,0,0,1,.561.212.747.747,0,0,1,.191.52.722.722,0,0,1-.191.513.73.73,0,0,1-.561.205.718.718,0,0,1-.557-.205A.73.73,0,0,1,18.354-9.358ZM21.41-3.767a4.369,4.369,0,0,1,.427-1.955,3.187,3.187,0,0,1,1.189-1.34,3.238,3.238,0,0,1,1.74-.472A3.119,3.119,0,0,1,27.21-6.487a4.024,4.024,0,0,1,.933,2.782v.089a4.407,4.407,0,0,1-.414,1.938A3.14,3.14,0,0,1,26.547-.342,3.275,3.275,0,0,1,24.78.137,3.111,3.111,0,0,1,22.343-.909a4,4,0,0,1-.933-2.769Zm1.271.15a3.164,3.164,0,0,0,.571,1.976A1.827,1.827,0,0,0,24.78-.9a1.816,1.816,0,0,0,1.531-.755,3.46,3.46,0,0,0,.567-2.116A3.159,3.159,0,0,0,26.3-5.739a1.836,1.836,0,0,0-1.535-.755,1.816,1.816,0,0,0-1.511.745A3.434,3.434,0,0,0,22.682-3.616ZM25.341-10.5h1.531L25.04-8.49l-1.019,0Zm5.585,3.1.041.93a2.7,2.7,0,0,1,2.215-1.066q2.345,0,2.365,2.646V0H34.282V-4.895a1.7,1.7,0,0,0-.366-1.183A1.466,1.466,0,0,0,32.8-6.46a1.825,1.825,0,0,0-1.08.328,2.228,2.228,0,0,0-.725.861V0H29.729V-7.4Z" transform="translate(495 1981)" fill="#12263f"/>
    <path id="Trazado_120563" data-name="Trazado 120563" d="M-32.409-4.437a6.172,6.172,0,0,1-2.458-1.193,2.279,2.279,0,0,1-.769-1.747,2.408,2.408,0,0,1,.94-1.945,3.736,3.736,0,0,1,2.444-.769,4.078,4.078,0,0,1,1.829.4A3.007,3.007,0,0,1-29.179-8.6a2.8,2.8,0,0,1,.441,1.524h-1.319A1.82,1.82,0,0,0-30.632-8.5a2.335,2.335,0,0,0-1.62-.518,2.391,2.391,0,0,0-1.514.428A1.428,1.428,0,0,0-34.31-7.4a1.285,1.285,0,0,0,.516,1.031,5.062,5.062,0,0,0,1.757.77,8.152,8.152,0,0,1,1.941.77,2.946,2.946,0,0,1,1.039.981,2.5,2.5,0,0,1,.338,1.319,2.326,2.326,0,0,1-.943,1.938,4.022,4.022,0,0,1-2.522.728A4.678,4.678,0,0,1-34.1-.256a3.221,3.221,0,0,1-1.371-1.077,2.627,2.627,0,0,1-.482-1.552h1.319a1.714,1.714,0,0,0,.667,1.425,2.806,2.806,0,0,0,1.781.523,2.58,2.58,0,0,0,1.593-.424,1.377,1.377,0,0,0,.554-1.155,1.351,1.351,0,0,0-.513-1.131A5.911,5.911,0,0,0-32.409-4.437Zm9.741,3.705a2.686,2.686,0,0,1-2.167.868,2.3,2.3,0,0,1-1.8-.687,2.974,2.974,0,0,1-.625-2.034V-7.4H-26v4.778Q-26-.937-24.63-.937A1.893,1.893,0,0,0-22.7-2.017V-7.4h1.265V0h-1.2Zm7.458-1.23a.931.931,0,0,0-.386-.8,3.718,3.718,0,0,0-1.347-.489,6.367,6.367,0,0,1-1.524-.492,2.169,2.169,0,0,1-.834-.684,1.635,1.635,0,0,1-.27-.943A1.919,1.919,0,0,1-18.8-6.9a3,3,0,0,1,1.965-.629,3.091,3.091,0,0,1,2.041.649,2.063,2.063,0,0,1,.783,1.661h-1.271a1.142,1.142,0,0,0-.441-.9,1.652,1.652,0,0,0-1.111-.376,1.729,1.729,0,0,0-1.08.3.947.947,0,0,0-.39.786.767.767,0,0,0,.362.69,4.458,4.458,0,0,0,1.309.444,6.821,6.821,0,0,1,1.535.506,2.239,2.239,0,0,1,.872.708,1.74,1.74,0,0,1,.284,1.008,1.893,1.893,0,0,1-.793,1.589,3.326,3.326,0,0,1-2.058.6,3.725,3.725,0,0,1-1.572-.314,2.557,2.557,0,0,1-1.07-.878,2.117,2.117,0,0,1-.386-1.22h1.265a1.309,1.309,0,0,0,.509,1.008A1.976,1.976,0,0,0-16.8-.9a2.039,2.039,0,0,0,1.152-.291A.893.893,0,0,0-15.21-1.962ZM-9.331-.9a1.822,1.822,0,0,0,1.183-.41,1.443,1.443,0,0,0,.561-1.025h1.2a2.293,2.293,0,0,1-.437,1.21,2.881,2.881,0,0,1-1.077.916A3.107,3.107,0,0,1-9.331.137a3.047,3.047,0,0,1-2.4-1.008,4.016,4.016,0,0,1-.892-2.758v-.212a4.453,4.453,0,0,1,.4-1.921,3.02,3.02,0,0,1,1.138-1.306,3.233,3.233,0,0,1,1.753-.465,2.966,2.966,0,0,1,2.068.745,2.663,2.663,0,0,1,.878,1.935h-1.2a1.743,1.743,0,0,0-.543-1.179,1.691,1.691,0,0,0-1.207-.461,1.77,1.77,0,0,0-1.494.694,3.259,3.259,0,0,0-.53,2.006v.239a3.194,3.194,0,0,0,.526,1.969A1.779,1.779,0,0,0-9.331-.9Zm7.937-5.366a3.79,3.79,0,0,0-.622-.048A1.667,1.667,0,0,0-3.705-5.25V0H-4.97V-7.4h1.23l.021.854a1.969,1.969,0,0,1,1.764-.991,1.292,1.292,0,0,1,.561.1ZM1.142,0H-.123V-7.4H1.142ZM-.226-9.358a.755.755,0,0,1,.188-.52A.706.706,0,0,1,.52-10.09a.717.717,0,0,1,.561.212.747.747,0,0,1,.191.52.722.722,0,0,1-.191.513.73.73,0,0,1-.561.205.718.718,0,0,1-.557-.205A.73.73,0,0,1-.226-9.358ZM9.413-3.616A4.429,4.429,0,0,1,8.641-.9,2.476,2.476,0,0,1,6.549.137,2.713,2.713,0,0,1,4.43-.718V2.844H3.165V-7.4H4.32l.062.82a2.605,2.605,0,0,1,2.146-.957,2.522,2.522,0,0,1,2.109,1,4.477,4.477,0,0,1,.776,2.8ZM8.148-3.76a3.268,3.268,0,0,0-.533-1.976A1.718,1.718,0,0,0,6.152-6.46,1.859,1.859,0,0,0,4.43-5.441v3.534A1.863,1.863,0,0,0,6.166-.9a1.71,1.71,0,0,0,1.446-.721A3.567,3.567,0,0,0,8.148-3.76ZM13.986-.9a1.822,1.822,0,0,0,1.183-.41,1.443,1.443,0,0,0,.561-1.025h1.2a2.293,2.293,0,0,1-.437,1.21,2.881,2.881,0,0,1-1.077.916,3.107,3.107,0,0,1-1.425.342,3.047,3.047,0,0,1-2.4-1.008,4.016,4.016,0,0,1-.892-2.758v-.212a4.453,4.453,0,0,1,.4-1.921,3.02,3.02,0,0,1,1.138-1.306,3.233,3.233,0,0,1,1.753-.465,2.966,2.966,0,0,1,2.068.745,2.663,2.663,0,0,1,.878,1.935h-1.2a1.743,1.743,0,0,0-.543-1.179,1.691,1.691,0,0,0-1.207-.461,1.77,1.77,0,0,0-1.494.694,3.259,3.259,0,0,0-.53,2.006v.239a3.194,3.194,0,0,0,.526,1.969A1.779,1.779,0,0,0,13.986-.9Zm5.735.9H18.457V-7.4h1.265ZM18.354-9.358a.755.755,0,0,1,.188-.52.706.706,0,0,1,.557-.212.717.717,0,0,1,.561.212.747.747,0,0,1,.191.52.722.722,0,0,1-.191.513.73.73,0,0,1-.561.205.718.718,0,0,1-.557-.205A.73.73,0,0,1,18.354-9.358ZM21.41-3.767a4.369,4.369,0,0,1,.427-1.955,3.187,3.187,0,0,1,1.189-1.34,3.238,3.238,0,0,1,1.74-.472A3.119,3.119,0,0,1,27.21-6.487a4.024,4.024,0,0,1,.933,2.782v.089a4.407,4.407,0,0,1-.414,1.938A3.14,3.14,0,0,1,26.547-.342,3.275,3.275,0,0,1,24.78.137,3.111,3.111,0,0,1,22.343-.909a4,4,0,0,1-.933-2.769Zm1.271.15a3.164,3.164,0,0,0,.571,1.976A1.827,1.827,0,0,0,24.78-.9a1.816,1.816,0,0,0,1.531-.755,3.46,3.46,0,0,0,.567-2.116A3.159,3.159,0,0,0,26.3-5.739a1.836,1.836,0,0,0-1.535-.755,1.816,1.816,0,0,0-1.511.745A3.434,3.434,0,0,0,22.682-3.616ZM25.341-10.5h1.531L25.04-8.49l-1.019,0Zm5.585,3.1.041.93a2.7,2.7,0,0,1,2.215-1.066q2.345,0,2.365,2.646V0H34.282V-4.895a1.7,1.7,0,0,0-.366-1.183A1.466,1.466,0,0,0,32.8-6.46a1.825,1.825,0,0,0-1.08.328,2.228,2.228,0,0,0-.725.861V0H29.729V-7.4Z" transform="translate(622 2074)" fill="#12263f"/>
    <path id="Trazado_120561" data-name="Trazado 120561" d="M15.214,13V3.047H18.7a4.578,4.578,0,0,1,2.748.694,2.373,2.373,0,0,1,.937,2.034,2.249,2.249,0,0,1-.376,1.289,2.172,2.172,0,0,1-1.046.817,2.1,2.1,0,0,1,1.207.772,2.284,2.284,0,0,1,.441,1.422,2.627,2.627,0,0,1-.916,2.174A4.124,4.124,0,0,1,19.083,13Zm2.051-4.334v2.687h1.757a1.7,1.7,0,0,0,1.131-.345,1.184,1.184,0,0,0,.407-.954,1.25,1.25,0,0,0-1.415-1.388Zm0-1.449h1.518q1.552-.027,1.552-1.237a1.143,1.143,0,0,0-.393-.974,2.067,2.067,0,0,0-1.241-.3H17.265Zm10.91.239a5.367,5.367,0,0,0-.711-.055,1.447,1.447,0,0,0-1.47.759V13H24.019V5.6h1.866l.055.882a1.831,1.831,0,0,1,1.647-1.019,2.07,2.07,0,0,1,.615.089Zm.4,1.777A4.387,4.387,0,0,1,29,7.271a3.1,3.1,0,0,1,1.22-1.333,3.56,3.56,0,0,1,1.849-.472,3.368,3.368,0,0,1,2.444.916,3.676,3.676,0,0,1,1.056,2.488l.014.506a3.866,3.866,0,0,1-.95,2.731,3.683,3.683,0,0,1-5.1,0,3.934,3.934,0,0,1-.954-2.789Zm1.976.14a2.765,2.765,0,0,0,.4,1.612,1.424,1.424,0,0,0,2.256.007,3.025,3.025,0,0,0,.4-1.763,2.737,2.737,0,0,0-.4-1.6,1.311,1.311,0,0,0-1.135-.568,1.29,1.29,0,0,0-1.121.565A3.076,3.076,0,0,0,30.547,9.374Zm8.935.66-.711.711V13H36.8V2.5h1.976V8.317l.383-.492L41.047,5.6h2.372L40.747,8.687,43.652,13h-2.27Zm8.06,3.1a3.631,3.631,0,0,1-2.649-1,3.548,3.548,0,0,1-1.022-2.659V9.288A4.468,4.468,0,0,1,44.3,7.3a3.161,3.161,0,0,1,1.22-1.354,3.425,3.425,0,0,1,1.8-.475,3.07,3.07,0,0,1,2.389.957,3.889,3.889,0,0,1,.872,2.714v.807h-4.71a1.835,1.835,0,0,0,.578,1.162,1.746,1.746,0,0,0,1.22.438,2.132,2.132,0,0,0,1.784-.827l.971,1.087a2.966,2.966,0,0,1-1.2.981A3.947,3.947,0,0,1,47.542,13.137ZM47.316,7.06a1.234,1.234,0,0,0-.954.4,2.062,2.062,0,0,0-.468,1.14h2.748V8.44a1.471,1.471,0,0,0-.355-1.02A1.274,1.274,0,0,0,47.316,7.06Zm8.545.4A5.367,5.367,0,0,0,55.15,7.4a1.447,1.447,0,0,0-1.47.759V13H51.7V5.6h1.866l.055.882a1.831,1.831,0,0,1,1.647-1.019,2.07,2.07,0,0,1,.615.089Zm7.246-4.409,2.557,7.219,2.543-7.219H70.9V13H68.842V10.279l.205-4.7L66.361,13H64.953l-2.68-7.41.205,4.689V13H60.427V3.047Zm17.746,5.2a6,6,0,0,1-.451,2.423,4.16,4.16,0,0,1-1.251,1.651l1.654,1.3L79.5,14.777l-2.119-1.7a4.486,4.486,0,0,1-.752.062,4.141,4.141,0,0,1-2.208-.595,3.951,3.951,0,0,1-1.5-1.7,5.836,5.836,0,0,1-.54-2.54V7.812a5.977,5.977,0,0,1,.53-2.587,3.945,3.945,0,0,1,1.5-1.716,4.387,4.387,0,0,1,4.423,0,3.945,3.945,0,0,1,1.5,1.716,5.96,5.96,0,0,1,.53,2.581ZM78.775,7.8a4.188,4.188,0,0,0-.561-2.379,1.98,1.98,0,0,0-3.192-.01,4.141,4.141,0,0,0-.567,2.355v.485a4.241,4.241,0,0,0,.561,2.365,1.963,1.963,0,0,0,3.2.031,4.216,4.216,0,0,0,.561-2.362Zm10.849-3.09H86.575V13H84.524V4.708H81.516V3.047h8.107Zm8.771,0H95.345V13H93.294V4.708H90.287V3.047h8.107Z" transform="translate(435 2133)" fill="#12263f"/>
    <path id="Trazado_120565" data-name="Trazado 120565" d="M26.172,9.685a3.522,3.522,0,0,1-1.186,2.529,4.165,4.165,0,0,1-2.82.923,3.745,3.745,0,0,1-3.011-1.289,5.284,5.284,0,0,1-1.1-3.538V7.7a5.966,5.966,0,0,1,.506-2.529A3.791,3.791,0,0,1,20.01,3.495a4.05,4.05,0,0,1,2.184-.584,4.058,4.058,0,0,1,2.775.923,3.785,3.785,0,0,1,1.217,2.591H24.135a2.079,2.079,0,0,0-.537-1.4,1.987,1.987,0,0,0-1.4-.434,1.742,1.742,0,0,0-1.535.735,4.118,4.118,0,0,0-.523,2.28v.752a4.408,4.408,0,0,0,.489,2.358,1.71,1.71,0,0,0,1.542.745,2.025,2.025,0,0,0,1.418-.434,1.961,1.961,0,0,0,.537-1.343Zm.909-.451a4.387,4.387,0,0,1,.424-1.962,3.1,3.1,0,0,1,1.22-1.333,3.56,3.56,0,0,1,1.849-.472,3.368,3.368,0,0,1,2.444.916,3.676,3.676,0,0,1,1.056,2.488l.014.506a3.866,3.866,0,0,1-.95,2.731,3.683,3.683,0,0,1-5.1,0,3.934,3.934,0,0,1-.954-2.789Zm1.976.14a2.765,2.765,0,0,0,.4,1.612,1.424,1.424,0,0,0,2.256.007,3.025,3.025,0,0,0,.4-1.763,2.737,2.737,0,0,0-.4-1.6,1.311,1.311,0,0,0-1.135-.568,1.29,1.29,0,0,0-1.121.565A3.076,3.076,0,0,0,29.057,9.374Zm8.1-3.77.062.827a2.6,2.6,0,0,1,2.126-.964,1.973,1.973,0,0,1,1.962,1.128,2.54,2.54,0,0,1,2.222-1.128,2.206,2.206,0,0,1,1.791.7,3.221,3.221,0,0,1,.588,2.109V13H43.925V8.283a1.408,1.408,0,0,0-.246-.919,1.091,1.091,0,0,0-.868-.291,1.233,1.233,0,0,0-1.23.848L41.587,13H39.612V8.29a1.391,1.391,0,0,0-.253-.93,1.1,1.1,0,0,0-.861-.287,1.28,1.28,0,0,0-1.217.7V13H35.305V5.6ZM54.083,9.37a4.436,4.436,0,0,1-.776,2.738,2.488,2.488,0,0,1-2.1,1.029,2.3,2.3,0,0,1-1.812-.779v3.486H47.425V5.6h1.832l.068.725A2.322,2.322,0,0,1,51.2,5.467a2.5,2.5,0,0,1,2.126,1.012,4.556,4.556,0,0,1,.759,2.789Zm-1.976-.144a2.911,2.911,0,0,0-.366-1.593,1.191,1.191,0,0,0-1.063-.561,1.294,1.294,0,0,0-1.278.711v3.028a1.316,1.316,0,0,0,1.292.731Q52.108,11.544,52.108,9.227Zm7.629,3.021a2.477,2.477,0,0,1-2.023.889,2.337,2.337,0,0,1-1.815-.684,2.918,2.918,0,0,1-.639-2V5.6h1.976v4.784q0,1.157,1.053,1.157a1.426,1.426,0,0,0,1.381-.7V5.6h1.982V13H59.792Zm5.77-8.463V5.6h1.265V7.053H65.506v3.691a.881.881,0,0,0,.157.588.79.79,0,0,0,.6.178,3.15,3.15,0,0,0,.581-.048v1.5a4.067,4.067,0,0,1-1.2.178,1.886,1.886,0,0,1-2.119-2.1V7.053h-1.08V5.6h1.08V3.785ZM72.158,13a2.194,2.194,0,0,1-.2-.663,2.39,2.39,0,0,1-1.866.8,2.626,2.626,0,0,1-1.8-.629,2.023,2.023,0,0,1-.714-1.586,2.09,2.09,0,0,1,.872-1.8,4.3,4.3,0,0,1,2.519-.636h.909V8.058a1.219,1.219,0,0,0-.263-.82,1.035,1.035,0,0,0-.831-.308A1.177,1.177,0,0,0,70,7.169a.813.813,0,0,0-.284.656H67.742a1.985,1.985,0,0,1,.4-1.189,2.621,2.621,0,0,1,1.121-.858,4.086,4.086,0,0,1,1.627-.311,3.228,3.228,0,0,1,2.17.687,2.4,2.4,0,0,1,.8,1.931v3.206a3.536,3.536,0,0,0,.294,1.593V13Zm-1.634-1.374a1.7,1.7,0,0,0,.807-.195,1.28,1.28,0,0,0,.547-.523V9.637h-.738q-1.483,0-1.579,1.025l-.007.116a.791.791,0,0,0,.26.608A1.009,1.009,0,0,0,70.524,11.626ZM75.07,9.247a4.457,4.457,0,0,1,.776-2.755,2.517,2.517,0,0,1,2.123-1.025,2.265,2.265,0,0,1,1.784.807V2.5h1.982V13H79.951l-.1-.786a2.325,2.325,0,0,1-1.9.923,2.511,2.511,0,0,1-2.1-1.029A4.6,4.6,0,0,1,75.07,9.247Zm1.976.147a2.92,2.92,0,0,0,.362,1.6,1.18,1.18,0,0,0,1.053.555,1.322,1.322,0,0,0,1.292-.774V7.847a1.3,1.3,0,0,0-1.278-.774Q77.045,7.073,77.045,9.394Zm5.913-.161a4.387,4.387,0,0,1,.424-1.962A3.1,3.1,0,0,1,84.6,5.938a3.56,3.56,0,0,1,1.849-.472,3.368,3.368,0,0,1,2.444.916,3.676,3.676,0,0,1,1.056,2.488l.014.506a3.866,3.866,0,0,1-.95,2.731,3.683,3.683,0,0,1-5.1,0,3.934,3.934,0,0,1-.954-2.789Zm1.976.14a2.765,2.765,0,0,0,.4,1.612,1.424,1.424,0,0,0,2.256.007,3.025,3.025,0,0,0,.4-1.763,2.737,2.737,0,0,0-.4-1.6,1.311,1.311,0,0,0-1.135-.568,1.29,1.29,0,0,0-1.121.565A3.076,3.076,0,0,0,84.934,9.374Zm10.4-1.918a5.367,5.367,0,0,0-.711-.055,1.447,1.447,0,0,0-1.47.759V13H91.182V5.6h1.866l.055.882A1.831,1.831,0,0,1,94.75,5.467a2.07,2.07,0,0,1,.615.089Z" transform="translate(546 1900)" fill="#12263f"/>
    <path id="Trazado_120564" data-name="Trazado 120564" d="M17.9,8.249a6.008,6.008,0,0,1-.52,2.577A3.913,3.913,0,0,1,15.9,12.535a4.113,4.113,0,0,1-2.218.6,4.141,4.141,0,0,1-2.208-.595,3.951,3.951,0,0,1-1.5-1.7,5.837,5.837,0,0,1-.54-2.54V7.812a5.977,5.977,0,0,1,.53-2.587,3.945,3.945,0,0,1,1.5-1.716,4.118,4.118,0,0,1,2.211-.6,4.118,4.118,0,0,1,2.211.6,3.945,3.945,0,0,1,1.5,1.716A5.96,5.96,0,0,1,17.9,7.8ZM15.826,7.8a4.188,4.188,0,0,0-.561-2.379,1.827,1.827,0,0,0-1.6-.813,1.827,1.827,0,0,0-1.593.8,4.141,4.141,0,0,0-.567,2.355v.485a4.241,4.241,0,0,0,.561,2.365,1.822,1.822,0,0,0,1.613.841,1.806,1.806,0,0,0,1.586-.81,4.216,4.216,0,0,0,.561-2.362Zm5.8-4.013V5.6h1.265V7.053H21.63v3.691a.881.881,0,0,0,.157.588.79.79,0,0,0,.6.178,3.15,3.15,0,0,0,.581-.048v1.5a4.067,4.067,0,0,1-1.2.178,1.886,1.886,0,0,1-2.119-2.1V7.053h-1.08V5.6h1.08V3.785Zm6.521,3.671A5.367,5.367,0,0,0,27.44,7.4a1.447,1.447,0,0,0-1.47.759V13H24V5.6h1.866l.055.882a1.831,1.831,0,0,1,1.647-1.019,2.07,2.07,0,0,1,.615.089Zm.4,1.777a4.387,4.387,0,0,1,.424-1.962,3.1,3.1,0,0,1,1.22-1.333,3.56,3.56,0,0,1,1.849-.472,3.368,3.368,0,0,1,2.444.916,3.676,3.676,0,0,1,1.056,2.488l.014.506a3.866,3.866,0,0,1-.95,2.731,3.683,3.683,0,0,1-5.1,0,3.934,3.934,0,0,1-.954-2.789Zm1.976.14a2.765,2.765,0,0,0,.4,1.612,1.424,1.424,0,0,0,2.256.007,3.025,3.025,0,0,0,.4-1.763,2.737,2.737,0,0,0-.4-1.6,1.311,1.311,0,0,0-1.135-.568,1.29,1.29,0,0,0-1.121.565A3.076,3.076,0,0,0,30.523,9.374Zm10.254,1.582a.637.637,0,0,0-.359-.571,4.077,4.077,0,0,0-1.152-.373q-2.639-.554-2.639-2.242a2.032,2.032,0,0,1,.817-1.644,3.3,3.3,0,0,1,2.136-.66,3.547,3.547,0,0,1,2.252.663,2.09,2.09,0,0,1,.844,1.723H40.7a.956.956,0,0,0-.273-.7,1.157,1.157,0,0,0-.854-.277A1.182,1.182,0,0,0,38.8,7.1a.712.712,0,0,0-.273.574.609.609,0,0,0,.311.53,3.2,3.2,0,0,0,1.049.349,8.571,8.571,0,0,1,1.244.332A2.044,2.044,0,0,1,42.7,10.874a1.929,1.929,0,0,1-.868,1.637,3.745,3.745,0,0,1-2.242.625,3.912,3.912,0,0,1-1.651-.332,2.77,2.77,0,0,1-1.131-.909,2.113,2.113,0,0,1-.41-1.248h1.873a1.031,1.031,0,0,0,.39.807,1.546,1.546,0,0,0,.971.28,1.43,1.43,0,0,0,.858-.215A.67.67,0,0,0,40.777,10.956Zm10.685,0a.637.637,0,0,0-.359-.571,4.077,4.077,0,0,0-1.152-.373q-2.639-.554-2.639-2.242a2.032,2.032,0,0,1,.817-1.644,3.3,3.3,0,0,1,2.136-.66,3.547,3.547,0,0,1,2.252.663,2.09,2.09,0,0,1,.844,1.723H51.387a.956.956,0,0,0-.273-.7,1.157,1.157,0,0,0-.854-.277,1.182,1.182,0,0,0-.772.226.712.712,0,0,0-.273.574.609.609,0,0,0,.311.53,3.2,3.2,0,0,0,1.049.349,8.571,8.571,0,0,1,1.244.332,2.044,2.044,0,0,1,1.565,1.989,1.929,1.929,0,0,1-.868,1.637,3.745,3.745,0,0,1-2.242.625,3.912,3.912,0,0,1-1.651-.332A2.77,2.77,0,0,1,47.49,11.9a2.113,2.113,0,0,1-.41-1.248h1.873a1.031,1.031,0,0,0,.39.807,1.546,1.546,0,0,0,.971.28,1.43,1.43,0,0,0,.858-.215A.67.67,0,0,0,51.462,10.956Zm6.6,2.181a3.631,3.631,0,0,1-2.649-1,3.548,3.548,0,0,1-1.022-2.659V9.288A4.468,4.468,0,0,1,54.818,7.3a3.161,3.161,0,0,1,1.22-1.354,3.425,3.425,0,0,1,1.8-.475,3.07,3.07,0,0,1,2.389.957A3.889,3.889,0,0,1,61.1,9.138v.807h-4.71a1.835,1.835,0,0,0,.578,1.162,1.746,1.746,0,0,0,1.22.438,2.132,2.132,0,0,0,1.784-.827l.971,1.087a2.966,2.966,0,0,1-1.2.981A3.947,3.947,0,0,1,58.059,13.137ZM57.833,7.06a1.234,1.234,0,0,0-.954.4,2.062,2.062,0,0,0-.468,1.14h2.748V8.44A1.471,1.471,0,0,0,58.8,7.42,1.274,1.274,0,0,0,57.833,7.06ZM64.04,5.6l.062.854a2.582,2.582,0,0,1,2.126-.991,2.146,2.146,0,0,1,1.75.69,3.221,3.221,0,0,1,.588,2.064V13H66.59V8.27a1.282,1.282,0,0,0-.273-.913,1.224,1.224,0,0,0-.909-.284,1.359,1.359,0,0,0-1.251.711V13H62.181V5.6Zm10.028,5.353a.637.637,0,0,0-.359-.571,4.077,4.077,0,0,0-1.152-.373q-2.639-.554-2.639-2.242a2.032,2.032,0,0,1,.817-1.644,3.3,3.3,0,0,1,2.136-.66,3.547,3.547,0,0,1,2.252.663,2.09,2.09,0,0,1,.844,1.723H73.993a.956.956,0,0,0-.273-.7,1.157,1.157,0,0,0-.854-.277,1.182,1.182,0,0,0-.772.226.712.712,0,0,0-.273.574.609.609,0,0,0,.311.53,3.2,3.2,0,0,0,1.049.349,8.571,8.571,0,0,1,1.244.332,2.044,2.044,0,0,1,1.565,1.989,1.929,1.929,0,0,1-.868,1.637,3.745,3.745,0,0,1-2.242.625,3.912,3.912,0,0,1-1.651-.332A2.77,2.77,0,0,1,70.1,11.9a2.113,2.113,0,0,1-.41-1.248H71.56a1.031,1.031,0,0,0,.39.807,1.546,1.546,0,0,0,.971.28,1.43,1.43,0,0,0,.858-.215A.67.67,0,0,0,74.068,10.956Zm2.885-1.723a4.387,4.387,0,0,1,.424-1.962A3.1,3.1,0,0,1,78.6,5.938a3.56,3.56,0,0,1,1.849-.472,3.368,3.368,0,0,1,2.444.916,3.676,3.676,0,0,1,1.056,2.488l.014.506a3.866,3.866,0,0,1-.95,2.731,3.683,3.683,0,0,1-5.1,0,3.934,3.934,0,0,1-.954-2.789Zm1.976.14a2.765,2.765,0,0,0,.4,1.612,1.424,1.424,0,0,0,2.256.007,3.025,3.025,0,0,0,.4-1.763,2.737,2.737,0,0,0-.4-1.6,1.311,1.311,0,0,0-1.135-.568,1.29,1.29,0,0,0-1.121.565A3.076,3.076,0,0,0,78.929,9.374Zm10.4-1.918a5.367,5.367,0,0,0-.711-.055,1.447,1.447,0,0,0-1.47.759V13H85.177V5.6h1.866l.055.882a1.831,1.831,0,0,1,1.647-1.019,2.07,2.07,0,0,1,.615.089Zm4.225,5.681a3.631,3.631,0,0,1-2.649-1,3.548,3.548,0,0,1-1.022-2.659V9.288A4.468,4.468,0,0,1,90.317,7.3a3.161,3.161,0,0,1,1.22-1.354,3.425,3.425,0,0,1,1.8-.475,3.07,3.07,0,0,1,2.389.957A3.889,3.889,0,0,1,96.6,9.138v.807H91.89a1.835,1.835,0,0,0,.578,1.162,1.746,1.746,0,0,0,1.22.438,2.132,2.132,0,0,0,1.784-.827l.971,1.087a2.966,2.966,0,0,1-1.2.981A3.947,3.947,0,0,1,93.558,13.137ZM93.332,7.06a1.234,1.234,0,0,0-.954.4A2.062,2.062,0,0,0,91.91,8.6h2.748V8.44A1.471,1.471,0,0,0,94.3,7.42,1.274,1.274,0,0,0,93.332,7.06Zm8.395,3.9a.637.637,0,0,0-.359-.571,4.077,4.077,0,0,0-1.152-.373q-2.639-.554-2.639-2.242a2.032,2.032,0,0,1,.817-1.644,3.3,3.3,0,0,1,2.136-.66,3.547,3.547,0,0,1,2.252.663,2.09,2.09,0,0,1,.844,1.723h-1.976a.956.956,0,0,0-.273-.7,1.157,1.157,0,0,0-.854-.277,1.182,1.182,0,0,0-.772.226.712.712,0,0,0-.273.574.609.609,0,0,0,.311.53,3.2,3.2,0,0,0,1.049.349,8.571,8.571,0,0,1,1.244.332,2.044,2.044,0,0,1,1.565,1.989,1.929,1.929,0,0,1-.868,1.637,3.745,3.745,0,0,1-2.242.625,3.912,3.912,0,0,1-1.651-.332,2.77,2.77,0,0,1-1.131-.909,2.113,2.113,0,0,1-.41-1.248h1.873a1.031,1.031,0,0,0,.39.807,1.546,1.546,0,0,0,.971.28,1.43,1.43,0,0,0,.858-.215A.67.67,0,0,0,101.727,10.956Z" transform="translate(580 2182)" fill="#12263f"/>
    <g id="layer2" transform="translate(203.471 2024.471)">
      <path id="path5012" d="M15.352,58.844h13.5a8.082,8.082,0,0,0,8.1-8.1V8.894a8.082,8.082,0,0,0-8.1-8.1H9.952a8.082,8.082,0,0,0-8.1,8.1v49.95Z" transform="translate(5.427 1.085)" fill="#38668c"/>
      <path id="path5014" d="M4.891,8.02A2.242,2.242,0,0,0,2.381,10.3V29.2H15.794c-.672-5.58-5.313-6.942-5.313-9.45v-5.4C10.354,10.13,7.223,8.02,4.891,8.02Z" transform="translate(7.598 30.731)" fill="#2c5170"/>
      <path id="path5016" d="M24.51,49.1a2.694,2.694,0,0,0,2.7-2.7V4.552a2.694,2.694,0,0,0-2.7-2.7H20.46L19.042,3.2H10.913L9.66,1.852H5.61a2.694,2.694,0,0,0-2.7,2.7V49.1Z" transform="translate(9.769 5.427)" fill="#e4eff8"/>
      <path id="path5018" d="M5.61,1.852a2.694,2.694,0,0,0-2.7,2.7V49.1h2.7V7.252a2.694,2.694,0,0,1,2.7-2.7H9.729L10.981,5.9H19.11l1.419-1.35H27.21a2.694,2.694,0,0,0-2.7-2.7H20.46L19.042,3.2H10.913L9.66,1.852Z" transform="translate(9.769 5.427)" fill="#c4dcf0"/>
      <path id="path5020" d="M9.952.794a8.082,8.082,0,0,0-8.1,8.1v31.05c0-1.586,1.215-2.332,2.7-2.262V8.894a8.082,8.082,0,0,1,8.1-8.1Z" transform="translate(5.427 1.085)" fill="#f8f8f8"/>
      <path id="path5022" d="M6.615.794a8.082,8.082,0,0,1,8.1,8.1v41.85a8.082,8.082,0,0,1-8.1,8.1h2.7a8.082,8.082,0,0,0,8.1-8.1V8.894a8.082,8.082,0,0,0-8.1-8.1Z" transform="translate(24.965 1.085)" fill="#2c5170"/>
      <path id="rect5024" d="M3.758,14.552h20.25a2.694,2.694,0,0,1,2.7,2.7v2.7a2.694,2.694,0,0,1-2.7,2.7H3.758a2.694,2.694,0,0,1-2.7-2.7v-2.7a2.694,2.694,0,0,1,2.7-2.7Z" transform="translate(2.171 57.527)" fill="#38668c"/>
      <path id="path5026" d="M4.762,14.552a2.694,2.694,0,0,1,2.7,2.7v2.7a2.694,2.694,0,0,1-2.7,2.7h4.05a2.694,2.694,0,0,0,2.7-2.7v-2.7a2.694,2.694,0,0,0-2.7-2.7Z" transform="translate(17.367 57.527)" fill="#2c5170"/>
      <path id="path5028" d="M15.352,30.548c-.015-6.736-5.4-8.1-5.4-10.8v-5.4c-.2-6.75-8.1-8.1-8.1-4.05v20.25Z" transform="translate(5.427 30.731)" fill="#ffc6a0"/>
      <path id="path5030" d="M27.794,33.409h-13.5a8.082,8.082,0,0,1-8.1-8.1V6.994H6.141C1.968,7.833.794,11.5.794,14.044V25.53c0,3.828,4.05,11.929,4.05,14.629v5.4h20.49c0-2.7,2.9-6.751,2.9-12.192Z" transform="translate(1.086 26.521)" fill="#ffc6a0"/>
      <path id="path5032" d="M.794,14.045V25.53c0,3.828,4.05,11.929,4.05,14.629v5.4h2.7v-5.4c0-2.7-4.05-10.8-4.05-14.629V14.044a7.32,7.32,0,0,1,2.7-5.914L6.168,6.994c-4.2.839-5.374,4.5-5.374,7.051Z" transform="translate(1.085 26.521)" fill="#f8f8f8"/>
      <path id="path5036" d="M11.755,12.164l-.435.041H7.7c-.015,5.419-2.892,9.457-2.892,12.15h4.05c0-2.7,2.9-6.751,2.9-12.192Z" transform="translate(17.559 47.724)" fill="#ffaf7a"/>
      <path id="circle5038" d="M20.481,3.494a2.7,2.7,0,1,1-2.7-2.7,2.7,2.7,0,0,1,2.7,2.7Z" transform="translate(59.698 1.085)" fill="#ff5151"/>
      <path id="path5041" d="M21.913,1.852a5.388,5.388,0,0,0-5.4,5.4V39.766a10.8,10.8,0,1,0,10.8-.005V7.252a5.388,5.388,0,0,0-5.4-5.4Z" transform="translate(43.417 5.427)" fill="#e4eff8"/>
      <path id="path5044" d="M21.913,1.852a5.388,5.388,0,0,0-5.4,5.4V39.766a10.79,10.79,0,0,0,5.4,20.137,10.62,10.62,0,0,0,1.35-.092,10.784,10.784,0,0,1-4.05-20.044V7.252a5.375,5.375,0,0,1,4.05-5.213,5.4,5.4,0,0,0-1.35-.187Z" transform="translate(43.417 5.427)" fill="#f8f8f8"/>
      <path id="path5046" d="M14.857,1.852a5.4,5.4,0,0,0-2.025.4,5.384,5.384,0,0,1,3.375,5V39.76a10.79,10.79,0,0,1-3.375,19.947A10.792,10.792,0,0,0,20.257,39.76V7.252a5.388,5.388,0,0,0-5.4-5.4Z" transform="translate(50.472 5.427)" fill="#c4dcf0"/>
      <path id="path5048" d="M20.535,14.369a4.05,4.05,0,1,1-4.05-4.05A4.05,4.05,0,0,1,20.535,14.369Z" transform="translate(48.844 40.161)" fill="#ff5151"/>
      <path id="path5050" d="M16.485,10.319a4.02,4.02,0,0,1,1.35.248,4.027,4.027,0,0,0,0,7.6,4.043,4.043,0,1,1-1.35-7.852Z" transform="translate(48.844 40.161)" fill="#f8f8f8"/>
      <path id="path5053" d="M3.758,14.552a2.694,2.694,0,0,0-2.7,2.7v2.7a2.694,2.694,0,0,0,2.7,2.7h2.7a2.694,2.694,0,0,1-2.7-2.7v-2.7a2.694,2.694,0,0,1,2.7-2.7Z" transform="translate(2.171 57.527)" fill="#f8f8f8"/>
      <path id="path5055" d="M2.91,8.023V23.786h8.224C9.743,22.18,8.31,21.13,8.31,19.736v-5.4C8.186,10.228,5.219,8.132,2.91,8.023Z" transform="translate(9.769 30.744)" fill="#c4dcf0"/>
      <path id="path5058" d="M14.782,29.13a1.246,1.246,0,0,0-.2-.651c-.965-4.98-5.2-6.334-5.2-8.73v-5.4C9.254,10.13,6.123,8.02,3.792,8.02a2.718,2.718,0,0,0-1.8.593,6.444,6.444,0,0,1,3.341,5.735v5.4c1.428,7.38,5.171,4.455,5.4,10.869A1.278,1.278,0,0,0,12.013,31.9h2.769Z" transform="translate(5.997 30.731)" fill="#ffaf7a"/>
      <path id="path5060" d="M14.315,10.319a4.02,4.02,0,0,0-1.35.248,4.027,4.027,0,0,1,0,7.6,4.043,4.043,0,1,0,1.35-7.852Z" transform="translate(51.015 40.161)" fill="#ff2929"/>
      <path id="path6715" d="M15.379.529a9.437,9.437,0,0,0-9.45,9.447l0,22.483a7.438,7.438,0,0,0-4.1,3.238A9.4,9.4,0,0,0,.529,40.563V52.051c0,2.174,1.087,5.338,2.1,8.192.509,1.427,1.008,2.8,1.374,3.958a9.894,9.894,0,0,1,.572,2.481v4.277a4.052,4.052,0,0,0-2.7,3.826v2.7a4.042,4.042,0,0,0,4.045,4.045H26.185a4.042,4.042,0,0,0,4.045-4.045v-2.7A4.031,4.031,0,0,0,27.9,71.112c.234-.979.736-2.241,1.239-3.644A24.12,24.12,0,0,0,30.6,61.279h3.676a9.437,9.437,0,0,0,9.45-9.447c0-13.666,0-29.183,0-41.855A9.437,9.437,0,0,0,34.279.529Zm62.1,0A4.05,4.05,0,1,0,81.53,4.574,4.048,4.048,0,0,0,77.482.529Zm0,2.7A1.35,1.35,0,1,1,76.13,4.574,1.343,1.343,0,0,1,77.482,3.229Zm-43.2,0a6.721,6.721,0,0,1,6.75,6.745c0,14.7,0,27.68,0,41.855a6.721,6.721,0,0,1-6.75,6.745H21.824a10.533,10.533,0,0,0-1.02-2.7H34.28a4.042,4.042,0,0,0,4.05-4.047c0-13.666,0-29.183,0-41.855a4.042,4.042,0,0,0-4.05-4.047H30.235a1.355,1.355,0,0,0-1,.43l-.846.918H21.267l-.846-.918a1.351,1.351,0,0,0-1-.43H15.379a4.042,4.042,0,0,0-4.05,4.047l0,27.638A5.87,5.87,0,0,0,9.784,37.4a4.743,4.743,0,0,0-1.152.14l0-27.564a6.721,6.721,0,0,1,6.75-6.745Zm24.305,9.445V44.433a12.153,12.153,0,1,0,13.495,0V12.677a6.747,6.747,0,0,0-13.495,0ZM18.836,8.629l.857.92a1.352,1.352,0,0,0,.986.427h8.3a1.351,1.351,0,0,0,.986-.427l.857-.92H34.28a1.336,1.336,0,0,1,1.347,1.347c0,13.627,0,28.952,0,41.855a1.336,1.336,0,0,1-1.347,1.347H18.82c-.6-.652-1.2-1.238-1.558-1.674a1.741,1.741,0,0,1-.533-1.028v-5.4a7.99,7.99,0,0,0-2.7-6l0-29.1a1.336,1.336,0,0,1,1.347-1.347Zm46.5,0a4.037,4.037,0,0,1,4.047,4.045V45.185a1.353,1.353,0,0,0,.667,1.168,9.453,9.453,0,1,1-9.429,0,1.353,1.353,0,0,0,.667-1.168V12.677a4.037,4.037,0,0,1,4.047-4.045Zm-16.2,4.047a1.35,1.35,0,1,0,0,2.7h5.4a1.35,1.35,0,1,0,0-2.7Zm-20.25,1.35a1.3,1.3,0,0,0-1.35,1.35v1.35h-9.45a1.35,1.35,0,1,0,0,2.7h9.447v1.35a1.351,1.351,0,0,0,2.7,0v-1.35h1.35a1.35,1.35,0,1,0,0-2.7H30.23v-1.35a1.3,1.3,0,0,0-1.35-1.35Zm36.45,1.35a1.3,1.3,0,0,0-1.35,1.35V49.316a5.4,5.4,0,1,0,2.7,0V16.729A1.3,1.3,0,0,0,65.33,15.379ZM51.753,19.427a1.351,1.351,0,0,0,0,2.7H54.53a1.35,1.35,0,1,0,0-2.7ZM20.779,23.479a1.3,1.3,0,0,0-1.35,1.35v1.35h-1.35a1.35,1.35,0,1,0,0,2.7h1.35v1.35a1.35,1.35,0,1,0,2.7,0v-1.35h9.45a1.35,1.35,0,1,0,0-2.7H22.13v-1.35A1.3,1.3,0,0,0,20.779,23.479Zm28.35,2.7a1.35,1.35,0,1,0,0,2.7h5.4a1.35,1.35,0,1,0,0-2.7Zm-20.25,6.75a1.3,1.3,0,0,0-1.35,1.35v1.35h-9.45a1.35,1.35,0,1,0,0,2.7h9.447v1.35a1.351,1.351,0,0,0,2.7,0v-1.35h1.35a1.35,1.35,0,1,0,0-2.7H30.23v-1.35a1.3,1.3,0,0,0-1.35-1.35Zm22.874,0a1.35,1.35,0,1,0,0,2.7H54.53a1.35,1.35,0,1,0,0-2.7ZM5.932,42.374v9.458a1.35,1.35,0,1,0,2.7,0v-10.8a.75.75,0,0,1,.438-.8,2.5,2.5,0,0,1,1.756.051,4.994,4.994,0,0,1,3.2,4.833v5.36a4.327,4.327,0,0,0,1.15,2.742c.589.715,1.257,1.336,1.883,2.041a8.472,8.472,0,0,1,2.362,6.02,1.35,1.35,0,1,0,2.7,0h5.769a22.031,22.031,0,0,1-1.3,5.281,37.618,37.618,0,0,0-1.371,4.166H7.28V66.683a11.463,11.463,0,0,0-.7-3.3c-.393-1.243-.9-2.634-1.4-4.047C4.168,56.509,3.232,53.7,3.232,52.052V40.563a6.9,6.9,0,0,1,.9-3.459,4.659,4.659,0,0,1,1.8-1.717Zm43.2-2.695a1.35,1.35,0,1,0,0,2.7h5.4a1.35,1.35,0,1,0,0-2.7Zm16.2,12.15a2.7,2.7,0,1,1-2.7,2.7,2.7,2.7,0,0,1,2.7-2.7Zm-59.4,21.6H26.182a1.345,1.345,0,0,1,1.347,1.358v2.7a1.342,1.342,0,0,1-1.345,1.345H5.924a1.342,1.342,0,0,1-1.345-1.345v-2.7a1.345,1.345,0,0,1,1.35-1.358Z" transform="translate(0 0)"/>
    </g>
    <g id="Grupo_85189" data-name="Grupo 85189" transform="translate(406.521 1884.811)">
      <path id="Trazado_119077" data-name="Trazado 119077" d="M114.493,149.768a23.852,23.852,0,0,0-2.825.17,19.769,19.769,0,0,0-18.857-13.967,19.4,19.4,0,0,0-6.339,1.059A25.607,25.607,0,0,0,37.622,147.8a25.227,25.227,0,0,0,.768,6.162,21.682,21.682,0,0,0,3.174,43.115h72.929a23.653,23.653,0,0,0,0-47.306Z" transform="translate(0 0)" fill="#1b59ed"/>
      <path id="Trazado_119078" data-name="Trazado 119078" d="M114.493,149.768a23.852,23.852,0,0,0-2.825.17,19.769,19.769,0,0,0-18.857-13.967,19.4,19.4,0,0,0-6.339,1.059A25.607,25.607,0,0,0,37.622,147.8a25.227,25.227,0,0,0,.768,6.162,21.682,21.682,0,0,0,3.174,43.115h72.929a23.653,23.653,0,0,0,0-47.306Zm0,43.363H41.563a17.727,17.727,0,0,1-.528-35.449,1.971,1.971,0,0,0,1.8-2.631,21.66,21.66,0,0,1,40.716-14.783,1.97,1.97,0,0,0,2.672,1.1,15.73,15.73,0,0,1,22.041,11.185,1.97,1.97,0,0,0,2.322,1.543,19.985,19.985,0,0,1,3.9-.39,19.71,19.71,0,1,1,0,39.421Z" transform="translate(0 0)"/>
    </g>
    <text id="MQTT" transform="translate(464.083 2062.834)" fill="#fff" font-size="16" font-family="Roboto-Black, Roboto" font-weight="800"><tspan x="0" y="0">MQTT</tspan></text>
    <g id="Grupo_85190" data-name="Grupo 85190" transform="translate(-2166.5 2388) rotate(-90)">
      <line id="Lnea_293" data-name="Lnea 293" y2="126" transform="translate(327.5 2451.5)" fill="none" stroke="#1b59ed" stroke-linecap="round" stroke-width="3"/>
      <path id="Trazado_119010" data-name="Trazado 119010" d="M-8006-9182.5l6.017,7.25,6.65-7.25" transform="translate(8327.166 11753.75)" fill="none" stroke="#1b59ed" stroke-linecap="round" stroke-width="3"/>
    </g>
    <g id="Grupo_85191" data-name="Grupo 85191" transform="translate(2219.955 104.517) rotate(49)">
      <line id="Lnea_293-2" data-name="Lnea 293" y2="90.008" transform="translate(327.5 2451.5)" fill="none" stroke="#38dbcf" stroke-linecap="round" stroke-width="3"/>
      <path id="Trazado_119010-2" data-name="Trazado 119010" d="M-8006-9182.5l6.017,7.25,6.65-7.25" transform="translate(8327.166 11717.759)" fill="none" stroke="#38dbcf" stroke-linecap="round" stroke-width="3"/>
    </g>
    <g id="Grupo_85203" data-name="Grupo 85203" transform="translate(-1327.156 433.934) rotate(-41)">
      <line id="Lnea_293-3" data-name="Lnea 293" y2="86.414" transform="translate(327.5 2451.5)" fill="none" stroke="#1b59ed" stroke-linecap="round" stroke-width="3"/>
      <path id="Trazado_119010-3" data-name="Trazado 119010" d="M-8006-9182.5l6.017,7.25,6.65-7.25" transform="translate(8327.166 11714.165)" fill="none" stroke="#1b59ed" stroke-linecap="round" stroke-width="3"/>
    </g>
    <g id="Grupo_85192" data-name="Grupo 85192" transform="translate(-972.623 4024.777) rotate(-135)">
      <line id="Lnea_293-4" data-name="Lnea 293" y2="92.689" transform="translate(327.5 2451.5)" fill="none" stroke="#1b59ed" stroke-linecap="round" stroke-width="3"/>
      <path id="Trazado_119010-4" data-name="Trazado 119010" d="M-8006-9182.5l6.017,7.25,6.65-7.25" transform="translate(8327.166 11720.44)" fill="none" stroke="#1b59ed" stroke-linecap="round" stroke-width="3"/>
    </g>
    <g id="Grupo_85204" data-name="Grupo 85204" transform="translate(2580.479 3613.53) rotate(135)">
      <line id="Lnea_293-5" data-name="Lnea 293" y2="78.169" transform="translate(327.5 2451.5)" fill="none" stroke="#ff6d6d" stroke-linecap="round" stroke-width="3"/>
      <path id="Trazado_119010-5" data-name="Trazado 119010" d="M-8006-9182.5l6.017,7.25,6.65-7.25" transform="translate(8327.166 11705.92)" fill="none" stroke="#ff6d6d" stroke-linecap="round" stroke-width="3"/>
    </g>
    <g id="ordenador-portatil_1_" data-name="ordenador-portatil (1)" transform="translate(563.882 1925.873)">
      <path id="Trazado_119189" data-name="Trazado 119189" d="M115.008,112.7H48.423V67.828A1.126,1.126,0,0,1,49.549,66.7h64.334a1.126,1.126,0,0,1,1.126,1.126V112.7Z" transform="translate(-40.657 -65.499)" fill="#dfeaef"/>
      <path id="Trazado_119190" data-name="Trazado 119190" d="M113.882,66.7H105.51a1.126,1.126,0,0,1,1.126,1.126v38.257a1.323,1.323,0,0,1-1.323,1.323H48.423V112.7h66.585V67.827A1.126,1.126,0,0,0,113.882,66.7Z" transform="translate(-40.657 -65.498)" fill="#bfcfd6"/>
      <path id="Trazado_119191" data-name="Trazado 119191" d="M79.423,130.235V98.384a.683.683,0,0,1,.683-.683h55.274a.683.683,0,0,1,.683.683v31.851a.683.683,0,0,1-.683.683H80.106A.683.683,0,0,1,79.423,130.235Z" transform="translate(-66.685 -91.526)" fill="#38dbcf"/>
      <path id="Trazado_119192" data-name="Trazado 119192" d="M135.381,97.7h-2.716v29.33a.683.683,0,0,1-.683.683H79.423v2.52a.683.683,0,0,0,.683.683h55.274a.683.683,0,0,0,.683-.683V98.385A.683.683,0,0,0,135.381,97.7Z" transform="translate(-66.685 -91.527)" fill="#28cec9"/>
      <path id="Trazado_119193" data-name="Trazado 119193" d="M85.649,421.142H9.063A1.563,1.563,0,0,1,7.5,419.58v-3.052H87.212v3.052A1.563,1.563,0,0,1,85.649,421.142Z" transform="translate(-6.297 -359.218)" fill="#6f98a3"/>
      <path id="Trazado_119194" data-name="Trazado 119194" d="M87.212,348.757H7.5l6.563-12.946H80.648Z" transform="translate(-6.297 -291.447)" fill="#9ebecc"/>
      <path id="Trazado_119195" data-name="Trazado 119195" d="M80.648,335.811H71.239l4.313,8.508a1.43,1.43,0,0,1-1.275,2.076H8.7l-1.2,2.362H87.212Z" transform="translate(-6.297 -291.447)" fill="#86aebc"/>
      <path id="Trazado_119196" data-name="Trazado 119196" d="M211.31,382.644l-1.57-5.693a1.062,1.062,0,0,0-1.024-.78H192.8a1.062,1.062,0,0,0-1.024.78l-1.57,5.693Z" transform="translate(-159.698 -325.333)" fill="#dfeaef"/>
      <path id="Trazado_119197" data-name="Trazado 119197" d="M190.854,401.8l-.651,2.363h21.106l-.652-2.363Z" transform="translate(-159.697 -346.851)" fill="#bfcfd6"/>
      <path id="Trazado_119198" data-name="Trazado 119198" d="M82.114,116.437c0-.012,0-.024,0-.036a1.179,1.179,0,0,0-.021-.14l0-.013a1.163,1.163,0,0,0-.035-.123l-.012-.032q-.02-.055-.046-.106c0-.006,0-.012-.008-.018l-6.433-12.689V61.53A2.331,2.331,0,0,0,73.225,59.2H8.892A2.331,2.331,0,0,0,6.563,61.53v41.748L.13,115.967c0,.006,0,.012-.008.018-.017.034-.032.07-.046.106l-.012.032a1.225,1.225,0,0,0-.035.124l0,.013a1.185,1.185,0,0,0-.021.14c0,.012,0,.024,0,.036s0,.05,0,.075v3.052a2.769,2.769,0,0,0,2.766,2.766H79.352a2.769,2.769,0,0,0,2.766-2.766v-3.052C82.118,116.486,82.115,116.461,82.114,116.437ZM8.969,61.607H73.148v40.756H8.969Zm-.464,43.161H73.612l5.344,10.54H52.528L51.2,110.5a2.271,2.271,0,0,0-2.184-1.663H33.1a2.271,2.271,0,0,0-2.184,1.663l-1.327,4.81H3.161Zm41.527,10.54H32.086l1.122-4.067h15.7Zm29.68,4.254a.36.36,0,0,1-.36.36H2.766a.36.36,0,0,1-.36-.36v-1.849H79.712Z" transform="translate(0 -59.201)"/>
      <path id="Trazado_119199" data-name="Trazado 119199" d="M129.767,213.756a1.2,1.2,0,0,0-1.2,1.2v12.2H74.329v-12.2a1.2,1.2,0,1,0-2.406,0v12.718a1.888,1.888,0,0,0,1.886,1.886h55.274a1.888,1.888,0,0,0,1.886-1.886V214.959A1.2,1.2,0,0,0,129.767,213.756Z" transform="translate(-60.388 -188.968)"/>
      <path id="Trazado_119200" data-name="Trazado 119200" d="M129.083,90.2H73.809a1.888,1.888,0,0,0-1.886,1.886v12.718a1.2,1.2,0,1,0,2.406,0v-12.2h54.235v12.2a1.2,1.2,0,1,0,2.406,0V92.088A1.888,1.888,0,0,0,129.083,90.2Z" transform="translate(-60.388 -85.23)"/>
    </g>
    <g id="sensor-de-movimiento" transform="translate(568.005 2088)">
      <g id="Grupo_85193" data-name="Grupo 85193" transform="translate(64.185 34.988)">
        <path id="Trazado_119694" data-name="Trazado 119694" d="M115.237,91.819a15.182,15.182,0,0,1-5.95-1.222,2.035,2.035,0,0,1,.8-3.911,2.187,2.187,0,0,1,.772.142,12.178,12.178,0,0,0,4.293.775,12.36,12.36,0,0,0,4.405-.822,2.176,2.176,0,0,1,.785-.147,2.042,2.042,0,0,1,.826,3.912A14.921,14.921,0,0,1,115.237,91.819Z" transform="translate(-108.043 -86.634)" fill="#f9cfcf"/>
      </g>
      <g id="Grupo_85194" data-name="Grupo 85194" transform="translate(46.489 51.903)">
        <path id="Trazado_119695" data-name="Trazado 119695" d="M107.908,134.23a2.039,2.039,0,0,0-2.829.052,30.548,30.548,0,0,1-21.36,9.189h-.132a30.559,30.559,0,0,1-21.3-8.987,2.039,2.039,0,0,0-2.83-.026h0a2.051,2.051,0,0,0-.045,2.932,34.113,34.113,0,0,0,24.174,10.466h.158a34.084,34.084,0,0,0,24.233-10.693A2.052,2.052,0,0,0,107.908,134.23Z" transform="translate(-58.821 -133.685)" fill="#ff6d6d"/>
      </g>
      <g id="Grupo_85195" data-name="Grupo 85195" transform="translate(69.123 24.815)">
        <path id="Trazado_119696" data-name="Trazado 119696" d="M124.017,62.836a2.25,2.25,0,1,1,2.236-2.25A2.246,2.246,0,0,1,124.017,62.836Z" transform="translate(-121.781 -58.336)" fill="#ff6d6d"/>
      </g>
      <g id="Grupo_85196" data-name="Grupo 85196" transform="translate(55.897 43.533)">
        <path id="Trazado_119697" data-name="Trazado 119697" d="M115.312,111.012a2.068,2.068,0,0,1-.108,3.019,22.7,22.7,0,0,1-14.718,5.6h-.108a22.716,22.716,0,0,1-14.663-5.465A2.072,2.072,0,0,1,88.38,111a18.963,18.963,0,0,0,12,4.254h.088a18.949,18.949,0,0,0,12.045-4.367,2.082,2.082,0,0,1,2.8.13Z" transform="translate(-84.989 -110.402)" fill="#ff6d6d"/>
      </g>
      <g id="Grupo_85197" data-name="Grupo 85197" transform="translate(39.567 61.661)">
        <path id="Trazado_119698" data-name="Trazado 119698" d="M102.467,161.413a2.151,2.151,0,0,0-3.01.057A39.455,39.455,0,0,1,71.4,173.715h-.169a39.471,39.471,0,0,1-27.952-11.954,2.158,2.158,0,0,0-3.12,2.982A43.169,43.169,0,0,0,71.23,178.421h.2a43.137,43.137,0,0,0,31.146-13.97,2.151,2.151,0,0,0-.11-3.038Z" transform="translate(-39.567 -160.827)" fill="#ff6d6d"/>
      </g>
      <g id="Grupo_85198" data-name="Grupo 85198" transform="translate(56.181 29.339)">
        <path id="Trazado_119699" data-name="Trazado 119699" d="M120.861,99.132l-1.4-.558-9.518-3.592a1.4,1.4,0,0,1-.731-.63l-2.4-4.311a6.324,6.324,0,0,0-4.235-4.685,7.316,7.316,0,1,0-3.64-.069,6.275,6.275,0,0,0-.925.338,2.8,2.8,0,0,0-.863.318l-6.393,3.648a3.08,3.08,0,0,0-1.44,1.847l-3.445,12.346a2.294,2.294,0,0,0,4.341,1.464l.558-1.4,3.55-9.4v14.381l-6.075,21.709-.849,3.033v.243a.774.774,0,0,0,.774.774h8.363A.577.577,0,0,0,97.1,134a1.392,1.392,0,0,0-.577-1.129l-2.213-1.6,6.313-14.413,7.14,16.3.127.409a.867.867,0,0,0,.828.61H116.2a.769.769,0,0,0,.769-.769,1.975,1.975,0,0,0-1.21-1.821l-2.773-1.166-6.037-21.573V99.993c.034.011.067.024.1.034l12.346,3.445a2.294,2.294,0,0,0,1.465-4.341Z" transform="translate(-85.781 -70.92)" fill="#1b59ed"/>
      </g>
      <g id="Grupo_85199" data-name="Grupo 85199" transform="translate(50.972 6.719)">
        <path id="Trazado_119700" data-name="Trazado 119700" d="M109.459,11.955H73.269a1.977,1.977,0,0,1,0-3.955h36.19a1.977,1.977,0,1,1,0,3.955Z" transform="translate(-71.292 -8)" fill="#38dbcf"/>
      </g>
      <g id="Grupo_85200" data-name="Grupo 85200" transform="translate(54.867 10.674)">
        <path id="Trazado_119701" data-name="Trazado 119701" d="M105.522,31.836H91.083a8.959,8.959,0,0,1-8.958-8.958V19H114.48v3.877A8.959,8.959,0,0,1,105.522,31.836Z" transform="translate(-82.125 -19)" fill="#abdcff"/>
      </g>
      <g id="Grupo_85201" data-name="Grupo 85201" transform="translate(50.253 6)">
        <path id="Trazado_119702" data-name="Trazado 119702" d="M108.178,11.393H71.988a2.7,2.7,0,1,1,0-5.393h36.19a2.7,2.7,0,1,1,0,5.393ZM71.988,7.438a1.258,1.258,0,0,0,0,2.517h36.19a1.258,1.258,0,0,0,0-2.517Z" transform="translate(-69.292 -6)"/>
      </g>
      <g id="Grupo_85202" data-name="Grupo 85202" transform="translate(54.148 9.955)">
        <path id="Trazado_119703" data-name="Trazado 119703" d="M104.241,31.273H89.8A9.689,9.689,0,0,1,80.125,21.6V17.719A.719.719,0,0,1,80.844,17H113.2a.719.719,0,0,1,.719.719V21.6A9.689,9.689,0,0,1,104.241,31.273ZM81.563,18.438V21.6A8.249,8.249,0,0,0,89.8,29.835h14.438A8.249,8.249,0,0,0,112.48,21.6V18.438Z" transform="translate(-80.125 -17)"/>
      </g>
    </g>
  </g>
</svg>
