<svg xmlns="http://www.w3.org/2000/svg" xmlns:xlink="http://www.w3.org/1999/xlink" width="66" height="66" viewBox="0 0 66 66">
  <defs>
    <clipPath id="clip-path">
      <rect id="Rectángulo_34502" data-name="Rectángulo 34502" width="66" height="66" transform="translate(302 602)" fill="#ffcd38"/>
    </clipPath>
  </defs>
  <g id="Enmascarar_grupo_91" data-name="Enmascarar grupo 91" transform="translate(-302 -602)" clip-path="url(#clip-path)">
    <g id="reconocimiento-facial_1_" data-name="reconocimiento-facial (1)" transform="translate(302 602)">
      <g id="Grupo_85123" data-name="Grupo 85123">
        <g id="Grupo_85121" data-name="Grupo 85121">
          <path id="Trazado_119491" data-name="Trazado 119491" d="M12.568.967H.967v11.6H6.123V6.123h6.445Z" fill="#c9ebfa"/>
          <path id="Trazado_119492" data-name="Trazado 119492" d="M53.432.967h11.6v11.6H59.877V6.123H53.432Z" fill="#c9ebfa"/>
        </g>
        <g id="Grupo_85122" data-name="Grupo 85122">
          <path id="Trazado_119493" data-name="Trazado 119493" d="M12.568,65.033H.967v-11.6H6.123v6.445h6.445Z" fill="#c9ebfa"/>
          <path id="Trazado_119494" data-name="Trazado 119494" d="M53.432,65.033h11.6v-11.6H59.877v6.445H53.432Z" fill="#c9ebfa"/>
        </g>
      </g>
      <path id="Trazado_119495" data-name="Trazado 119495" d="M14.953,42.257h2.578v-7.9H14.953a2.578,2.578,0,0,0-2.578,2.578v2.748a2.578,2.578,0,0,0,2.578,2.578Z" fill="#ffdec7"/>
      <path id="Trazado_119496" data-name="Trazado 119496" d="M48.469,28.281v14.6A13.535,13.535,0,0,1,34.934,56.418H31.066A13.535,13.535,0,0,1,17.531,42.883V33.956a7.431,7.431,0,0,0,5.027-7.031V24.914h23.4a7.692,7.692,0,0,0,1.726-.195,8.488,8.488,0,0,1,.784,3.562Z" fill="#ffdec7"/>
      <path id="Trazado_119497" data-name="Trazado 119497" d="M26.829,32.178a7.4,7.4,0,0,0,2.151-4.686H45.959a10.16,10.16,0,0,0,2.44-.3,8.385,8.385,0,0,0-.714-2.478,7.692,7.692,0,0,1-1.726.195h-23.4v2.012a7.431,7.431,0,0,1-5.027,7.031v8.927A13.535,13.535,0,0,0,31.066,56.418h3.867c.434,0,.865-.021,1.289-.062A13.534,13.534,0,0,1,23.977,42.883V33.956a7.426,7.426,0,0,0,2.853-1.779Z" fill="#fec5a5"/>
      <path id="Trazado_119498" data-name="Trazado 119498" d="M29.2,9.582a12.766,12.766,0,0,0-11.881,8.094,7.429,7.429,0,0,0-4.941,7V31.6a2.757,2.757,0,0,0,2.757,2.757,7.427,7.427,0,0,0,7.427-7.427V24.914h23.4a7.666,7.666,0,0,0,0-15.332Z" fill="#548eb5"/>
      <path id="Trazado_119499" data-name="Trazado 119499" d="M35.643,9.582a12.767,12.767,0,0,0-11.881,8.094,7.428,7.428,0,0,0-4.941,7V31.6a2.73,2.73,0,0,0,.446,1.5,7.387,7.387,0,0,1-4.134,1.257A2.758,2.758,0,0,1,12.375,31.6V24.674a7.428,7.428,0,0,1,4.941-7A12.767,12.767,0,0,1,29.2,9.582Z" fill="#447d99"/>
      <path id="Trazado_119500" data-name="Trazado 119500" d="M51.047,42.257H48.469v-7.9h2.578a2.578,2.578,0,0,1,2.578,2.578v2.748a2.578,2.578,0,0,1-2.578,2.578Z" fill="#fec5a5"/>
      <g id="Grupo_85138" data-name="Grupo 85138">
        <g id="Grupo_85130" data-name="Grupo 85130">
          <g id="Grupo_85126" data-name="Grupo 85126">
            <g id="Grupo_85124" data-name="Grupo 85124">
              <path id="Trazado_119501" data-name="Trazado 119501" d="M6.123,13.535H.967A.967.967,0,0,1,0,12.568V.967A.967.967,0,0,1,.967,0h11.6a.967.967,0,0,1,.967.967V6.123a.967.967,0,0,1-.967.967H7.09v5.479A.967.967,0,0,1,6.123,13.535ZM1.934,11.6H5.156V6.123a.967.967,0,0,1,.967-.967H11.6V1.934H1.934Z"/>
            </g>
            <g id="Grupo_85125" data-name="Grupo 85125">
              <path id="Trazado_119502" data-name="Trazado 119502" d="M65.033,13.535H59.877a.967.967,0,0,1-.967-.967V7.09H53.432a.967.967,0,0,1-.967-.967V.967A.967.967,0,0,1,53.432,0h11.6A.967.967,0,0,1,66,.967v11.6A.967.967,0,0,1,65.033,13.535ZM60.844,11.6h3.223V1.934H54.4V5.156h5.479a.967.967,0,0,1,.967.967Z"/>
            </g>
          </g>
          <g id="Grupo_85129" data-name="Grupo 85129">
            <g id="Grupo_85127" data-name="Grupo 85127">
              <path id="Trazado_119503" data-name="Trazado 119503" d="M12.568,66H.967A.967.967,0,0,1,0,65.033v-11.6a.967.967,0,0,1,.967-.967H6.123a.967.967,0,0,1,.967.967V58.91h5.479a.967.967,0,0,1,.967.967v5.156A.967.967,0,0,1,12.568,66ZM1.934,64.066H11.6V60.844H6.123a.967.967,0,0,1-.967-.967V54.4H1.934Z"/>
            </g>
            <g id="Grupo_85128" data-name="Grupo 85128">
              <path id="Trazado_119504" data-name="Trazado 119504" d="M65.033,66h-11.6a.967.967,0,0,1-.967-.967V59.877a.967.967,0,0,1,.967-.967H58.91V53.432a.967.967,0,0,1,.967-.967h5.156a.967.967,0,0,1,.967.967v11.6A.967.967,0,0,1,65.033,66ZM54.4,64.066h9.668V54.4H60.844v5.479a.967.967,0,0,1-.967.967H54.4Z"/>
            </g>
          </g>
        </g>
        <g id="Grupo_85137" data-name="Grupo 85137">
          <g id="Grupo_85135" data-name="Grupo 85135">
            <g id="Grupo_85131" data-name="Grupo 85131">
              <path id="Trazado_119505" data-name="Trazado 119505" d="M33,49.752a7.323,7.323,0,0,1-5.375-2.358.967.967,0,0,1,1.423-1.309,5.372,5.372,0,0,0,7.9,0,.967.967,0,0,1,1.423,1.309A7.323,7.323,0,0,1,33,49.752Z"/>
            </g>
            <g id="Grupo_85134" data-name="Grupo 85134">
              <g id="Grupo_85132" data-name="Grupo 85132">
                <path id="Trazado_119506" data-name="Trazado 119506" d="M25.566,39.185a.967.967,0,0,1-.967-.967V36.53a.967.967,0,0,1,1.934,0v1.688A.967.967,0,0,1,25.566,39.185Z"/>
              </g>
              <g id="Grupo_85133" data-name="Grupo 85133">
                <path id="Trazado_119507" data-name="Trazado 119507" d="M40.434,39.185a.967.967,0,0,1-.967-.967V36.53a.967.967,0,0,1,1.934,0v1.688A.967.967,0,0,1,40.434,39.185Z"/>
              </g>
            </g>
          </g>
          <g id="Grupo_85136" data-name="Grupo 85136">
            <path id="Trazado_119508" data-name="Trazado 119508" d="M51.047,33.386H49.436V28.281a9.377,9.377,0,0,0-.469-2.942A8.633,8.633,0,0,0,45.959,8.615H43.6a.967.967,0,0,0,0,1.934h2.355a6.7,6.7,0,0,1,0,13.4H30.443a.967.967,0,0,0,0,1.934H45.959a8.679,8.679,0,0,0,1.123-.075,7.45,7.45,0,0,1,.42,2.476v14.6A12.614,12.614,0,0,1,35.094,55.451a.967.967,0,0,0,.012,1.933h.012a14.5,14.5,0,0,0,14.313-14.16h1.616a3.549,3.549,0,0,0,3.545-3.545V36.931a3.549,3.549,0,0,0-3.545-3.545Zm1.611,6.293a1.613,1.613,0,0,1-1.611,1.611H49.436V35.32h1.611a1.613,1.613,0,0,1,1.611,1.611Z"/>
            <path id="Trazado_119509" data-name="Trazado 119509" d="M30.906,55.45A12.614,12.614,0,0,1,18.5,42.883V34.618a8.736,8.736,0,0,0,5.027-8.738h2.7a.967.967,0,0,0,0-1.934H22.559a.967.967,0,0,0-.967.967c.208,3.332-.811,6.941-4.366,8.126-1.276.436-3.884.77-3.884-1.443V24.674a6.472,6.472,0,0,1,4.3-6.087.967.967,0,0,0,.576-.557A11.733,11.733,0,0,1,29.2,10.549H39.391a.967.967,0,1,0,0-1.934H29.2A13.924,13.924,0,0,0,16.58,16.923a8.41,8.41,0,0,0-5.172,7.75V31.6A3.714,3.714,0,0,0,12.578,34.3a3.537,3.537,0,0,0-1.169,2.629v2.748a3.549,3.549,0,0,0,3.545,3.545h1.615a14.5,14.5,0,0,0,14.313,14.16h.012a.967.967,0,0,0,.012-1.933ZM13.342,39.679V36.931a1.613,1.613,0,0,1,1.611-1.611h1.611V41.29H14.953a1.613,1.613,0,0,1-1.611-1.611Z"/>
          </g>
        </g>
      </g>
    </g>
  </g>
</svg>
