<svg xmlns="http://www.w3.org/2000/svg" width="118" height="118" viewBox="0 0 118 118">
  <g id="Grupo_86475" data-name="Grupo 86475" transform="translate(-320 -6095)">
    <circle id="Elipse_5144" data-name="Elipse 5144" cx="59" cy="59" r="59" transform="translate(320 6095)" fill="#ffcd38"/>
    <path id="internet-of-things" d="M54.606,36.44a1.287,1.287,0,0,1-1.82,1.82,16.431,16.431,0,0,0-23.238,0,1.287,1.287,0,0,1-1.82-1.82,19.006,19.006,0,0,1,26.878,0Zm-13.439-.42a13.768,13.768,0,0,0-9.8,4.059,1.287,1.287,0,1,0,1.82,1.819,11.286,11.286,0,0,1,15.96,0,1.287,1.287,0,1,0,1.82-1.819,13.768,13.768,0,0,0-9.8-4.059Zm0,5.146a8.656,8.656,0,0,0-6.161,2.552,1.287,1.287,0,1,0,1.82,1.82,6.139,6.139,0,0,1,8.682,0,1.287,1.287,0,1,0,1.82-1.82,8.656,8.656,0,0,0-6.161-2.552Zm3.566,8.713a3.566,3.566,0,1,1-3.566-3.566,3.566,3.566,0,0,1,3.566,3.566Zm-2.573,0a.993.993,0,1,0-.993.993.993.993,0,0,0,.993-.993Zm40.178-8.714A6.88,6.88,0,0,1,68.7,42.452H63.645a22.425,22.425,0,0,1-5.681,13.69l3.582,3.582a6.87,6.87,0,1,1-1.821,1.818l-3.581-3.581a22.425,22.425,0,0,1-13.69,5.681V68.7a6.88,6.88,0,1,1-2.573,0V63.643a22.425,22.425,0,0,1-13.69-5.681l-3.581,3.581a6.881,6.881,0,0,1-10.555,8.735h0a6.88,6.88,0,0,1,8.734-10.553l3.582-3.582a22.425,22.425,0,0,1-5.681-13.69H13.633a6.88,6.88,0,1,1,0-2.573h5.055a22.425,22.425,0,0,1,5.681-13.69l-3.582-3.582a6.88,6.88,0,1,1,1.819-1.819l3.582,3.582a22.424,22.424,0,0,1,13.69-5.682V13.632a6.88,6.88,0,1,1,2.573,0v5.055a22.424,22.424,0,0,1,13.69,5.682l3.582-3.582a6.871,6.871,0,1,1,1.819,1.819l-3.582,3.582a22.425,22.425,0,0,1,5.681,13.69H68.7a6.88,6.88,0,0,1,13.638,1.287Zm-19.969-21.2a4.305,4.305,0,1,0,0-6.091A4.305,4.305,0,0,0,62.369,19.963Zm-21.2-8.782A4.307,4.307,0,1,0,36.86,6.874,4.307,4.307,0,0,0,41.167,11.181Zm-21.2,8.782a4.307,4.307,0,1,0-6.091,0A4.307,4.307,0,0,0,19.965,19.963Zm-8.782,21.2a4.307,4.307,0,1,0-4.307,4.307A4.307,4.307,0,0,0,11.183,41.165ZM21.226,65.412a4.307,4.307,0,1,0-7.353,3.045h0a4.307,4.307,0,0,0,7.353-3.045Zm19.94,5.736a4.307,4.307,0,1,0,4.307,4.307A4.307,4.307,0,0,0,41.167,71.149ZM65.414,61.107a4.306,4.306,0,1,0,3.045,7.35h0a4.305,4.305,0,0,0-3.045-7.35ZM61.109,41.165A19.942,19.942,0,1,0,41.167,61.107,19.942,19.942,0,0,0,61.109,41.165Zm18.656,0a4.307,4.307,0,1,0-4.307,4.307,4.307,4.307,0,0,0,4.307-4.307Z" transform="translate(338.334 6112.835)" fill="#12263f"/>
  </g>
</svg>
