<svg xmlns="http://www.w3.org/2000/svg" xmlns:xlink="http://www.w3.org/1999/xlink" width="100" height="100" viewBox="0 0 100 100">
  <defs>
    <clipPath id="clip-path">
      <rect id="Rectángulo_34462" data-name="Rectángulo 34462" width="70" height="70" transform="translate(875 8453)" fill="#12263f"/>
    </clipPath>
  </defs>
  <circle id="Elipse_5171" data-name="Elipse 5171" cx="50" cy="50" r="50" fill="#fff"/>
  <g id="Enmascarar_grupo_89" data-name="Enmascarar grupo 89" transform="translate(-860 -8438)" clip-path="url(#clip-path)">
    <g id="contrasena" transform="translate(872.51 8450.511)">
      <path id="Trazado_119130" data-name="Trazado 119130" d="M66.778,8.933H8.2A5.718,5.718,0,0,0,2.49,14.644v45.1a6.3,6.3,0,0,0,6.3,6.3H66.192a6.3,6.3,0,0,0,6.3-6.3v-45.1a5.718,5.718,0,0,0-5.711-5.711Zm3.661,5.711v6.844H30.98l4.969-10.5H66.778a3.665,3.665,0,0,1,3.661,3.661ZM8.2,10.983H33.682l-4.97,10.5H4.54V14.644A3.665,3.665,0,0,1,8.2,10.983ZM66.192,64H8.787A4.252,4.252,0,0,1,4.54,59.749V23.538h65.9V59.749A4.252,4.252,0,0,1,66.192,64Z" fill="#12263f"/>
      <path id="Trazado_119131" data-name="Trazado 119131" d="M12.635,19.6a3.368,3.368,0,1,0-3.368-3.368A3.368,3.368,0,0,0,12.635,19.6Zm0-4.686a1.318,1.318,0,1,1-1.318,1.318,1.318,1.318,0,0,1,1.318-1.318Z" fill="#12263f"/>
      <path id="Trazado_119132" data-name="Trazado 119132" d="M22.04,19.6a3.368,3.368,0,1,0-3.368-3.368A3.368,3.368,0,0,0,22.04,19.6Zm0-4.686a1.318,1.318,0,1,1-1.318,1.318A1.318,1.318,0,0,1,22.04,14.917Z" fill="#12263f"/>
      <path id="Trazado_119133" data-name="Trazado 119133" d="M39.553,17.26h26.21a1.025,1.025,0,1,0,0-2.05H39.553a1.025,1.025,0,0,0,0,2.05Z" fill="#12263f"/>
      <path id="Trazado_119134" data-name="Trazado 119134" d="M57.406,46.569H17.573a1.026,1.026,0,0,0-1.025,1.025V59.31a1.025,1.025,0,0,0,1.025,1.025H57.406a1.025,1.025,0,0,0,1.025-1.025V47.594A1.026,1.026,0,0,0,57.406,46.569ZM56.381,58.285H18.6V48.619H56.381Z" fill="#12263f"/>
      <path id="Trazado_119135" data-name="Trazado 119135" d="M22.9,55.634a1.026,1.026,0,0,0,1.425.268l.742-.506v.4a1.025,1.025,0,0,0,2.05,0v-.4l.74.506a1.025,1.025,0,1,0,1.157-1.693l-1.1-.755,1.1-.756a1.025,1.025,0,1,0-1.157-1.693l-.74.506v-.4a1.025,1.025,0,1,0-2.05,0v.4l-.739-.506A1.025,1.025,0,0,0,23.175,52.7l1.1.756-1.1.755a1.026,1.026,0,0,0-.271,1.425Z" fill="#12263f"/>
      <path id="Trazado_119136" data-name="Trazado 119136" d="M34.3,55.634a1.026,1.026,0,0,0,1.425.268l.739-.506v.4a1.025,1.025,0,0,0,2.05,0v-.4l.739.506a1.025,1.025,0,1,0,1.157-1.693l-1.106-.755,1.105-.756a1.025,1.025,0,0,0-1.157-1.693l-.739.506v-.4a1.025,1.025,0,0,0-2.05,0v.4l-.739-.506A1.025,1.025,0,0,0,34.567,52.7l1.105.756-1.105.755A1.026,1.026,0,0,0,34.3,55.634Z" fill="#12263f"/>
      <path id="Trazado_119137" data-name="Trazado 119137" d="M45.694,55.634a1.026,1.026,0,0,0,1.425.268l.739-.506v.4a1.025,1.025,0,1,0,2.05,0v-.4l.739.506A1.025,1.025,0,1,0,51.8,54.209l-1.1-.755,1.1-.756a1.025,1.025,0,1,0-1.157-1.693l-.739.506v-.4a1.025,1.025,0,0,0-2.05,0v.4l-.74-.506A1.025,1.025,0,0,0,45.961,52.7l1.1.756-1.1.755A1.025,1.025,0,0,0,45.694,55.634Z" fill="#12263f"/>
      <path id="Trazado_119138" data-name="Trazado 119138" d="M34.989,43.992h5a4.824,4.824,0,0,0,4.822-4.818V34.967a1.026,1.026,0,0,0-1.025-1.025H42.533v-1.52a5.044,5.044,0,0,0-10.087,0v1.52H31.195a1.026,1.026,0,0,0-1.025,1.025v4.206a4.824,4.824,0,0,0,4.819,4.818ZM34.5,32.423a2.993,2.993,0,1,1,5.987,0v1.52H34.5Zm-2.279,3.57H42.762v3.181a2.772,2.772,0,0,1-2.771,2.768h-5a2.772,2.772,0,0,1-2.771-2.767Z" fill="#12263f"/>
    </g>
  </g>
</svg>
