<svg xmlns="http://www.w3.org/2000/svg" xmlns:xlink="http://www.w3.org/1999/xlink" width="100" height="100" viewBox="0 0 100 100">
  <defs>
    <clipPath id="clip-path">
      <rect id="Rectángulo_34460" data-name="Rectángulo 34460" width="70" height="70" transform="translate(250 8453)" fill="#12263f"/>
    </clipPath>
  </defs>
  <g id="Grupo_86482" data-name="Grupo 86482" transform="translate(-235 -8633)">
    <g id="Grupo_86481" data-name="Grupo 86481">
      <circle id="Elipse_5170" data-name="Elipse 5170" cx="50" cy="50" r="50" transform="translate(235 8633)" fill="#fff"/>
      <g id="Enmascarar_grupo_88" data-name="Enmascarar grupo 88" transform="translate(0 195)" clip-path="url(#clip-path)">
        <g id="face-detection" transform="translate(250 8453)">
          <path id="Trazado_119129" data-name="Trazado 119129" d="M36.392,68.622a1.379,1.379,0,1,1-1.379-1.378A1.381,1.381,0,0,1,36.392,68.622Zm-30.329,0V66.879a18.509,18.509,0,0,1,8.959-15.833,45.907,45.907,0,0,1,11.848-5V43.827a12.674,12.674,0,0,1-1.889-2.085,32.989,32.989,0,0,1-4.013-7.381,2.888,2.888,0,0,1-2.215-1.643c-.417-.882-3.306-6.227-3.749-7.178a4.157,4.157,0,0,1,2.2-5.561,4.385,4.385,0,0,1,.952-.276A15.929,15.929,0,0,1,33.622,0a5.894,5.894,0,0,1,4.113,1.661.03.03,0,0,0,.042,0A5.9,5.9,0,0,1,41.89,0,10.829,10.829,0,0,1,52.707,10.817v2.509a23.189,23.189,0,0,1-.882,6.349,3.846,3.846,0,0,1,.974.282A4.16,4.16,0,0,1,55,25.519c-.467.939-3.332,6.3-3.749,7.178A2.89,2.89,0,0,1,49.04,34.34a32.991,32.991,0,0,1-4.019,7.4,12.687,12.687,0,0,1-1.891,2.088v2.219a45.909,45.909,0,0,1,11.848,5,18.509,18.509,0,0,1,8.959,15.833v1.743A1.378,1.378,0,0,1,62.559,70H41.213a1.379,1.379,0,0,1-1.375-1.47,1.41,1.41,0,0,1,1.423-1.286h19.92A15.977,15.977,0,0,0,53.56,53.411a43.132,43.132,0,0,0-10.587-4.554,8.13,8.13,0,0,1-15.944,0A43.143,43.143,0,0,0,16.44,53.411,15.784,15.784,0,0,0,8.819,67.244H28.813a1.379,1.379,0,0,1,1.373,1.474A1.411,1.411,0,0,1,28.763,70H7.441a1.378,1.378,0,0,1-1.378-1.378Zm14.4-52.5a7.134,7.134,0,0,1,5.3-2.485,7.025,7.025,0,0,1,4.442,1.583,6.49,6.49,0,0,0,10.577-5.054,1.378,1.378,0,0,1,2.755,0,4.427,4.427,0,0,0,2.472,3.982,9.107,9.107,0,0,1,3.58,2.991,20.514,20.514,0,0,0,.356-3.817v-2.51A8.07,8.07,0,0,0,41.89,2.756a3.151,3.151,0,0,0-2.2.888,2.776,2.776,0,0,1-3.87,0,3.151,3.151,0,0,0-2.2-.888A13.126,13.126,0,0,0,20.468,16.127ZM40.374,45.662a12.422,12.422,0,0,1-10.748,0v1.6a5.374,5.374,0,0,0,10.748,0Zm2.413-5.537a30.175,30.175,0,0,0,4.024-7.706,1.373,1.373,0,0,1,1.893-.784c.511-1.089,3.39-6.412,3.807-7.294a1.426,1.426,0,0,0-.789-1.847,1.486,1.486,0,0,0-1.256.063,1.385,1.385,0,0,1-2.022-1.024,6.223,6.223,0,0,0-3.6-4.886,6.907,6.907,0,0,1-2.494-1.98,10.694,10.694,0,0,1-1.544,2.054,9.188,9.188,0,0,1-12.34.638,4.24,4.24,0,0,0-5.654.287A4.509,4.509,0,0,0,21.5,20.782v.542a1.381,1.381,0,0,1-2,1.232,1.49,1.49,0,0,0-1.215-.041,1.4,1.4,0,0,0-.789,1.847c.413.884,3.356,6.287,3.791,7.273a1.41,1.41,0,0,1,1.909.8,30.218,30.218,0,0,0,4.019,7.689,9.577,9.577,0,0,0,15.571,0ZM64.626,8.268V1.378A1.378,1.378,0,0,0,63.248,0h-6.89a1.378,1.378,0,0,0,0,2.756H61.87V8.268a1.378,1.378,0,0,0,2.756,0Zm0,37.618V39a1.378,1.378,0,0,0-2.756,0v5.512H56.358a1.378,1.378,0,1,0,0,2.756h6.89A1.378,1.378,0,0,0,64.626,45.886ZM8.13,8.268V2.756h5.512a1.378,1.378,0,1,0,0-2.756H6.752A1.378,1.378,0,0,0,5.374,1.378v6.89a1.378,1.378,0,0,0,2.756,0Zm6.89,37.618a1.378,1.378,0,0,0-1.378-1.378H8.13V39a1.378,1.378,0,0,0-2.756,0v6.89a1.378,1.378,0,0,0,1.378,1.378h6.89A1.378,1.378,0,0,0,15.02,45.886Z" fill="#12263f"/>
        </g>
      </g>
    </g>
  </g>
</svg>
