<svg xmlns="http://www.w3.org/2000/svg" xmlns:xlink="http://www.w3.org/1999/xlink" width="66" height="66" viewBox="0 0 66 66">
  <defs>
    <clipPath id="clip-path">
      <rect id="Rect치ngulo_34508" data-name="Rect치ngulo 34508" width="66" height="66" transform="translate(-1445 -11098)" fill="#ffcd38"/>
    </clipPath>
  </defs>
  <g id="Enmascarar_grupo_93" data-name="Enmascarar grupo 93" transform="translate(1445 11098)" clip-path="url(#clip-path)">
    <g id="Planning-paper-document-smartphone-pen" transform="translate(-1447.2 -11100.2)">
      <path id="Trazado_119519" data-name="Trazado 119519" d="M67.1,23.1v44H9.9a6.6,6.6,0,1,1,6.6-6.6V23.1Z" fill="#fee9ab"/>
      <path id="Trazado_119520" data-name="Trazado 119520" d="M62.7,23.1h4.4v44H62.7Z" fill="#ffd422"/>
      <path id="Trazado_119521" data-name="Trazado 119521" d="M62.7,55a3.3,3.3,0,0,1-3.3,3.3H49.5V51.7h9.9A3.3,3.3,0,0,1,62.7,55Z" fill="#ff3051"/>
      <path id="Trazado_119522" data-name="Trazado 119522" d="M52.8,16.5h8.8v6.6H52.8Z" fill="#ffc477"/>
      <path id="Trazado_119523" data-name="Trazado 119523" d="M57.2,16.5h4.4v6.6H57.2Z" fill="#ffa733"/>
      <rect id="Rect치ngulo_34511" data-name="Rect치ngulo 34511" width="24.2" height="41.8" rx="2.2" transform="translate(28.6 3.3)" fill="#46f8ff"/>
      <path id="Trazado_119524" data-name="Trazado 119524" d="M52.8,5.5V42.9a2.207,2.207,0,0,1-2.2,2.2H46.2a2.207,2.207,0,0,0,2.2-2.2V5.5a2.207,2.207,0,0,0-2.2-2.2h4.4a2.207,2.207,0,0,1,2.2,2.2Z" fill="#00d7df"/>
      <path id="Trazado_119525" data-name="Trazado 119525" d="M49.5,52.8v4.4h-22L20.9,55l6.6-2.2Z" fill="#acabb1"/>
      <path id="Trazado_119526" data-name="Trazado 119526" d="M62.7,55a3.3,3.3,0,0,1-3.3,3.3H55a3.3,3.3,0,1,0,0-6.6h4.4A3.3,3.3,0,0,1,62.7,55Z" fill="#cd2a00"/>
      <path id="Trazado_119527" data-name="Trazado 119527" d="M48.4,18.7H40.7V11a7.7,7.7,0,0,1,7.7,7.7Z" fill="#ff3051"/>
      <path id="Trazado_119528" data-name="Trazado 119528" d="M40.7,18.7h7.7A7.7,7.7,0,1,1,40.7,11Z" fill="#9cdd05"/>
      <path id="Trazado_119529" data-name="Trazado 119529" d="M48.4,18.7H46.2a7.7,7.7,0,0,0-5.5-7.381V11a7.7,7.7,0,0,1,7.7,7.7Z" fill="#cd2a00"/>
      <path id="Trazado_119530" data-name="Trazado 119530" d="M48.4,18.7a7.7,7.7,0,0,1-7.7,7.7,6.022,6.022,0,0,1-1.1-.088A7.677,7.677,0,0,0,46.2,18.7Z" fill="#5eac24"/>
      <path id="Trazado_119531" data-name="Trazado 119531" d="M16.5,16.5H28.6v6.6H16.5Z" fill="#ffc477"/>
      <path id="Trazado_119532" data-name="Trazado 119532" d="M16.5,23.1V60.5a6.6,6.6,0,0,0-13.2,0v-44a6.6,6.6,0,0,1,13.2,0Z" fill="#ffc477"/>
      <path id="Trazado_119533" data-name="Trazado 119533" d="M67.1,22H62.7V16.5a1.1,1.1,0,0,0-1.1-1.1H53.9V5.5a3.31,3.31,0,0,0-3.3-3.3H30.8a3.31,3.31,0,0,0-3.3,3.3v9.9H17.512A7.7,7.7,0,0,0,2.2,16.5v44a7.709,7.709,0,0,0,7.7,7.7H67.1a1.1,1.1,0,0,0,1.1-1.1v-44A1.1,1.1,0,0,0,67.1,22ZM53.9,17.6h6.6V22H53.9Zm-24.2,22H45.1V37.4H29.7V5.5a1.1,1.1,0,0,1,1.1-1.1H50.6a1.1,1.1,0,0,1,1.1,1.1V37.4H47.3v2.2h4.4v3.3A1.1,1.1,0,0,1,50.6,44H30.8a1.1,1.1,0,0,1-1.1-1.1Zm-12.1-22h9.9V22H17.6ZM4.4,16.5a5.5,5.5,0,0,1,11,0V55.121a7.677,7.677,0,0,0-11,0ZM66,66H9.9a5.5,5.5,0,1,1,5.5-5.5,1.1,1.1,0,1,0,2.2,0V24.2h9.9V42.9a3.31,3.31,0,0,0,3.3,3.3H50.6a3.31,3.31,0,0,0,3.3-3.3V24.2H66Z"/>
      <path id="Trazado_119534" data-name="Trazado 119534" d="M59.4,50.6H49.5a1.1,1.1,0,0,0-1.1,1.1H27.5a1.3,1.3,0,0,0-.352.055l-6.6,2.2a1.1,1.1,0,0,0,0,2.09l6.6,2.2a1.3,1.3,0,0,0,.352.055H48.4a1.1,1.1,0,0,0,1.1,1.1h8.8v2.2H48.4v2.2h11a1.1,1.1,0,0,0,1.1-1.1V59.246A4.392,4.392,0,0,0,59.4,50.6Zm-11,5.5H27.676l-3.3-1.1,3.3-1.1H48.4Zm11,1.1H50.6V52.8h8.8a2.2,2.2,0,1,1,0,4.4Z"/>
      <path id="Trazado_119535" data-name="Trazado 119535" d="M40.7,9.9a8.8,8.8,0,1,0,8.8,8.8A8.8,8.8,0,0,0,40.7,9.9Zm1.1,2.3a6.591,6.591,0,0,1,5.4,5.4H41.8ZM40.7,25.3a6.6,6.6,0,0,1-1.1-13.1v6.5a1.1,1.1,0,0,0,1.1,1.1h6.5A6.608,6.608,0,0,1,40.7,25.3Z"/>
      <path id="Trazado_119536" data-name="Trazado 119536" d="M56.1,2.2h2.2V4.4H56.1Z"/>
      <path id="Trazado_119537" data-name="Trazado 119537" d="M60.5,2.2h7.7V4.4H60.5Z"/>
      <path id="Trazado_119538" data-name="Trazado 119538" d="M56.1,6.6h2.2V8.8H56.1Z"/>
      <path id="Trazado_119539" data-name="Trazado 119539" d="M60.5,6.6h7.7V8.8H60.5Z"/>
      <path id="Trazado_119540" data-name="Trazado 119540" d="M56.1,11h2.2v2.2H56.1Z"/>
      <path id="Trazado_119541" data-name="Trazado 119541" d="M60.5,11h7.7v2.2H60.5Z"/>
    </g>
  </g>
</svg>
