<svg xmlns="http://www.w3.org/2000/svg" width="1239" height="448" viewBox="0 0 1239 448">
  <path id="Trazado_120573" data-name="Trazado 120573" d="M10,0H1229a10,10,0,0,1,10,10V438a10,10,0,0,1-10,10H10A10,10,0,0,1,0,438V10A10,10,0,0,1,10,0Z" fill="#d7f8f5"/>
  <g id="Grupo_83760" data-name="Grupo 83760" transform="translate(160.164 -9092.482)">
    <rect id="Rectángulo_34466" data-name="Rectángulo 34466" width="176" height="40" rx="20" transform="translate(166.417 9148.381)" fill="#ffcd38"/>
    <rect id="Rectángulo_34467" data-name="Rectángulo 34467" width="176" height="40" rx="20" transform="translate(95.417 9274.381)" fill="#ffcd38"/>
    <g id="clave" transform="translate(334.305 9173.638) rotate(45)">
      <path id="Trazado_119139" data-name="Trazado 119139" d="M69.581,2.433A2.423,2.423,0,0,0,68.73.563,1.963,1.963,0,0,0,68.119.2C68.071.18,68,.156,67.939.132a2.84,2.84,0,0,0-.348-.084,2.187,2.187,0,0,0-.4-.036H63.575L55.4,0a1.494,1.494,0,0,0-.839.479L28.508,26.531a22.285,22.285,0,0,0-2.914-.683,21.639,21.639,0,0,0-5.347-.216A21.99,21.99,0,0,0,4.759,61.214c.5.624,1.019,1.211,1.558,1.763A22,22,0,0,0,43.026,41.049l2.589-2.589a.766.766,0,0,0,.216-.588l-.588-6.378a.736.736,0,0,1,.168-.527.725.725,0,0,1,.636-.276l2.877.264,2.961.276a.75.75,0,0,0,.8-.8l-.54-5.838a.737.737,0,0,1,.167-.528.71.71,0,0,1,.635-.276l2.877.264,2.961.276a.748.748,0,0,0,.8-.8l-.527-5.862a.717.717,0,0,1,.168-.527.708.708,0,0,1,.623-.264l3.441.312,2.973.263a.712.712,0,0,0,.575-.215l2.421-2.494a1.22,1.22,0,0,0,.336-.839ZM19.936,57.917a5.891,5.891,0,0,1-8.3,0,.634.634,0,0,1-.12-.144,2.54,2.54,0,0,1-.372-.431l-.012-.012a2.787,2.787,0,0,1-.312-.455,2.871,2.871,0,0,1-.276-.492,4.753,4.753,0,0,1-.252-.564,2.856,2.856,0,0,1-.144-.455,5.85,5.85,0,0,1,7.229-7.229,2.82,2.82,0,0,1,.455.144,4.713,4.713,0,0,1,.564.252,2.871,2.871,0,0,1,.492.276,2.792,2.792,0,0,1,.456.312l.012.012a2.54,2.54,0,0,1,.432.372.631.631,0,0,1,.143.12,5.867,5.867,0,0,1,0,8.3Zm0,0" transform="translate(1.195 1.199)" fill="#e6ae08"/>
      <path id="Trazado_119140" data-name="Trazado 119140" d="M65.985,2.433a2.423,2.423,0,0,0-.851-1.87A1.959,1.959,0,0,0,64.522.2C64.474.18,64.4.156,64.342.132a2.84,2.84,0,0,0-.348-.084,2.188,2.188,0,0,0-.4-.036h-.024L55.4,0a1.494,1.494,0,0,0-.839.479L28.508,26.531a22.285,22.285,0,0,0-2.914-.683l-.683.683a22.126,22.126,0,0,0-4.664-.9A21.99,21.99,0,0,0,4.759,61.214c.5.624,1.019,1.211,1.558,1.763A21.89,21.89,0,0,0,20.26,69.462,21.989,21.989,0,0,0,39.43,41.049l2.589-2.589a.766.766,0,0,0,.216-.588l-.588-6.378a.743.743,0,0,1,.8-.8l2.962.276,2.877.264a.754.754,0,0,0,.8-.8l-.54-5.838a.744.744,0,0,1,.8-.8l2.961.276,2.877.264a.754.754,0,0,0,.8-.8l-.527-5.862a.731.731,0,0,1,.791-.791l2.973.264,3.44.311a.712.712,0,0,0,.576-.215l.048-.048,2.374-2.446a1.219,1.219,0,0,0,.336-.839ZM19.936,57.917a5.846,5.846,0,0,1-5.946,1.427c-2.026.659-.324.18-1.93-1.427a.634.634,0,0,1-.12-.144,2.54,2.54,0,0,1-.372-.431l-.012-.012a2.787,2.787,0,0,1-.312-.455,2.871,2.871,0,0,1-.276-.492,4.753,4.753,0,0,1-.252-.564,2.856,2.856,0,0,1-.144-.455,5.837,5.837,0,0,1,1.486-5.743c1.559-1.558-.252-2.05,1.726-1.486a1.2,1.2,0,0,1,.192.06,5.784,5.784,0,0,1,3.405-.06,2.82,2.82,0,0,1,.455.144,4.713,4.713,0,0,1,.564.252,2.871,2.871,0,0,1,.492.276,2.791,2.791,0,0,1,.456.312l.012.012a2.54,2.54,0,0,1,.432.372.631.631,0,0,1,.143.12,5.867,5.867,0,0,1,0,8.3Zm0,0" transform="translate(1.195 1.199)" fill="#ffcd38"/>
      <path id="Trazado_119141" data-name="Trazado 119141" d="M23.194,71.94c-.431,0-.861-.012-1.293-.036a23.2,23.2,0,1,1,7.457-45.528L54.9.831A2.7,2.7,0,0,1,56.457.009c.05-.007.123.015.15-.009L68.372.011A3.685,3.685,0,0,1,70.931,1.07a3.572,3.572,0,0,1,1.048,2.569L72,15.1a2.4,2.4,0,0,1-.677,1.674h0L68.9,19.264a1.915,1.915,0,0,1-1.541.571l-5.851-.526.477,5.306a1.932,1.932,0,0,1-2.1,2.1l-5.292-.484.483,5.291a1.932,1.932,0,0,1-2.1,2.1l-5.289-.483.533,5.825a1.927,1.927,0,0,1-.558,1.543L45.573,42.59A23.2,23.2,0,0,1,23.194,71.94Zm-.031-44.006A20.806,20.806,0,1,0,43.078,42.6a1.2,1.2,0,0,1,.3-1.2l2.434-2.434L45.246,32.8a1.933,1.933,0,0,1,2.1-2.1l5.291.484-.484-5.291a1.933,1.933,0,0,1,2.1-2.1l5.292.484-.477-5.3a1.933,1.933,0,0,1,2.1-2.1l6.174.556L69.6,15.1l0,0L69.581,3.631a1.2,1.2,0,0,0-1.2-1.223h-.006L56.748,2.4a1.593,1.593,0,0,0-.151.13L30.553,28.573a1.2,1.2,0,0,1-1.2.3,21.049,21.049,0,0,0-6.189-.936Zm0,0" transform="translate(0 0)"/>
      <path id="Trazado_119142" data-name="Trazado 119142" d="M7.058,14.125a7.062,7.062,0,1,1,5-2.066,7.062,7.062,0,0,1-5,2.066Zm0-11.727a4.665,4.665,0,1,0,3.3,1.365A4.665,4.665,0,0,0,7.058,2.4Zm0,0" transform="translate(9.922 47.906)"/>
      <path id="Trazado_119143" data-name="Trazado 119143" d="M1.2,21.077a1.2,1.2,0,0,1-.848-2.047L19.018.364a1.2,1.2,0,1,1,1.7,1.7L2.046,20.726a1.2,1.2,0,0,1-.848.352Zm0,0" transform="translate(33.412 11.238)"/>
      <path id="Trazado_119144" data-name="Trazado 119144" d="M2.4,1.2A1.2,1.2,0,1,0,1.2,2.4,1.2,1.2,0,0,0,2.4,1.2Zm0,0" transform="translate(55.215 8.343)"/>
    </g>
    <path id="Trazado_120574" data-name="Trazado 120574" d="M11.32-4.333a4.673,4.673,0,0,1-.721,2.36A4.35,4.35,0,0,1,8.75-.387a6.3,6.3,0,0,1-2.72.563A5.025,5.025,0,0,1,2.057-1.468,6.786,6.786,0,0,1,.606-6.108v-.633a7.746,7.746,0,0,1,.655-3.292,4.961,4.961,0,0,1,1.885-2.18,5.26,5.26,0,0,1,2.848-.769,5.516,5.516,0,0,1,3.744,1.226,4.844,4.844,0,0,1,1.608,3.379H8.271a2.292,2.292,0,0,0-.589-1.679,2.422,2.422,0,0,0-1.687-.51A1.843,1.843,0,0,0,4.307-9.7a5.536,5.536,0,0,0-.562,2.751v.905A6.125,6.125,0,0,0,4.258-3.12a1.882,1.882,0,0,0,1.771.879,2.369,2.369,0,0,0,1.626-.5,2.126,2.126,0,0,0,.6-1.591ZM15.768,0H12.8V-13.5h2.971Zm7.181,0a3.344,3.344,0,0,1-.281-.853A2.754,2.754,0,0,1,20.382.176,3.374,3.374,0,0,1,18.1-.637a2.588,2.588,0,0,1-.94-2.043A2.66,2.66,0,0,1,18.3-5.019a5.821,5.821,0,0,1,3.322-.791h.914v-.5q0-1.316-1.134-1.316a.927.927,0,0,0-1.055,1.042H17.385a2.655,2.655,0,0,1,1.173-2.239,4.931,4.931,0,0,1,2.993-.86,4.323,4.323,0,0,1,2.874.888,3.086,3.086,0,0,1,1.081,2.435v4.21a4.311,4.311,0,0,0,.4,2V0ZM21.094-1.934a1.652,1.652,0,0,0,.918-.237,1.487,1.487,0,0,0,.523-.536V-4.228h-.861q-1.547,0-1.547,1.389a.848.848,0,0,0,.272.655A.986.986,0,0,0,21.094-1.934Zm9.712-1.591,1.5-5.985h3.12L32.326,0H29.3L26.2-9.51h3.129ZM40.8.176a4.889,4.889,0,0,1-3.542-1.305,4.507,4.507,0,0,1-1.354-3.4v-.246a5.84,5.84,0,0,1,.541-2.575,3.955,3.955,0,0,1,1.578-1.727,4.763,4.763,0,0,1,2.461-.611,4.117,4.117,0,0,1,3.164,1.244,4.887,4.887,0,0,1,1.16,3.467v1.151H38.918a2.135,2.135,0,0,0,.694,1.257A2.066,2.066,0,0,0,41-2.109a2.662,2.662,0,0,0,2.2-.984l1.354,1.6A3.784,3.784,0,0,1,42.983-.277,5.3,5.3,0,0,1,40.8.176ZM40.465-7.4q-1.3,0-1.547,1.723h2.988v-.229a1.467,1.467,0,0,0-.36-1.1A1.434,1.434,0,0,0,40.465-7.4ZM53.7-4.342V0H50.616V-12.8h5.106a5.948,5.948,0,0,1,2.6.541,4.074,4.074,0,0,1,1.749,1.538,4.2,4.2,0,0,1,.62,2.263,3.7,3.7,0,0,1-1.34,2.993A5.561,5.561,0,0,1,55.67-4.342Zm0-2.382h2.021a1.906,1.906,0,0,0,1.367-.448,1.665,1.665,0,0,0,.47-1.266,2.059,2.059,0,0,0-.483-1.433,1.712,1.712,0,0,0-1.318-.545H53.7Zm14.159,5.7a3.054,3.054,0,0,1-2.54,1.2,3,3,0,0,1-2.369-.91,3.826,3.826,0,0,1-.8-2.615V-9.51h2.962v6.179A1.065,1.065,0,0,0,66.3-2.109a1.548,1.548,0,0,0,1.45-.729V-9.51h2.979V0H67.948ZM66.806-13.5h3.129l-2.443,2.76-2.417,0Zm14.37,8.824a5.8,5.8,0,0,1-.967,3.595A3.238,3.238,0,0,1,77.484.176,2.81,2.81,0,0,1,75.146-.976L75.023,0H72.369V-13.5h2.962v4.755a2.711,2.711,0,0,1,2.136-.94,3.239,3.239,0,0,1,2.742,1.274,5.826,5.826,0,0,1,.967,3.586Zm-2.971-.189a3.866,3.866,0,0,0-.365-1.952A1.229,1.229,0,0,0,76.72-7.4a1.418,1.418,0,0,0-1.389.763v3.773a1.426,1.426,0,0,0,1.406.755,1.258,1.258,0,0,0,1.327-1.018A7.309,7.309,0,0,0,78.205-4.865ZM85.605,0H82.635V-13.5h2.971Zm4.948,0H87.583V-9.51h2.971ZM87.407-11.962A1.322,1.322,0,0,1,87.864-13a1.724,1.724,0,0,1,1.187-.4,1.724,1.724,0,0,1,1.187.4,1.322,1.322,0,0,1,.457,1.037,1.322,1.322,0,0,1-.457,1.037,1.724,1.724,0,0,1-1.187.4,1.724,1.724,0,0,1-1.187-.4A1.322,1.322,0,0,1,87.407-11.962ZM96.4-2.109a1.317,1.317,0,0,0,.967-.338,1.241,1.241,0,0,0,.334-.945h2.777A3.288,3.288,0,0,1,99.356-.826a4.168,4.168,0,0,1-2.887,1,4.22,4.22,0,0,1-3.27-1.3,5.125,5.125,0,0,1-1.2-3.6v-.123A5.792,5.792,0,0,1,92.536-7.4a3.872,3.872,0,0,1,1.534-1.7,4.573,4.573,0,0,1,2.373-.593,4.116,4.116,0,0,1,2.944,1.028,3.647,3.647,0,0,1,1.09,2.786H97.7A1.626,1.626,0,0,0,97.339-7a1.244,1.244,0,0,0-.967-.4q-1.151,0-1.345,1.468a10.357,10.357,0,0,0-.062,1.283,4.068,4.068,0,0,0,.343,1.986A1.187,1.187,0,0,0,96.4-2.109ZM107.086,0a3.344,3.344,0,0,1-.281-.853A2.754,2.754,0,0,1,104.52.176a3.374,3.374,0,0,1-2.285-.813,2.588,2.588,0,0,1-.94-2.043,2.66,2.66,0,0,1,1.143-2.338,5.821,5.821,0,0,1,3.322-.791h.914v-.5q0-1.316-1.134-1.316a.927.927,0,0,0-1.055,1.042h-2.962A2.655,2.655,0,0,1,102.7-8.825a4.931,4.931,0,0,1,2.993-.86,4.323,4.323,0,0,1,2.874.888,3.086,3.086,0,0,1,1.081,2.435v4.21a4.311,4.311,0,0,0,.4,2V0Zm-1.854-1.934a1.652,1.652,0,0,0,.918-.237,1.487,1.487,0,0,0,.523-.536V-4.228h-.861q-1.547,0-1.547,1.389a.848.848,0,0,0,.272.655A.986.986,0,0,0,105.231-1.934Z" transform="translate(200.417 9174.381)" fill="#12263f"/>
    <path id="Trazado_120575" data-name="Trazado 120575" d="M11.32-4.333a4.673,4.673,0,0,1-.721,2.36A4.35,4.35,0,0,1,8.75-.387a6.3,6.3,0,0,1-2.72.563A5.025,5.025,0,0,1,2.057-1.468,6.786,6.786,0,0,1,.606-6.108v-.633a7.746,7.746,0,0,1,.655-3.292,4.961,4.961,0,0,1,1.885-2.18,5.26,5.26,0,0,1,2.848-.769,5.516,5.516,0,0,1,3.744,1.226,4.844,4.844,0,0,1,1.608,3.379H8.271a2.292,2.292,0,0,0-.589-1.679,2.422,2.422,0,0,0-1.687-.51A1.843,1.843,0,0,0,4.307-9.7a5.536,5.536,0,0,0-.562,2.751v.905A6.125,6.125,0,0,0,4.258-3.12a1.882,1.882,0,0,0,1.771.879,2.369,2.369,0,0,0,1.626-.5,2.126,2.126,0,0,0,.6-1.591ZM15.768,0H12.8V-13.5h2.971Zm7.181,0a3.344,3.344,0,0,1-.281-.853A2.754,2.754,0,0,1,20.382.176,3.374,3.374,0,0,1,18.1-.637a2.588,2.588,0,0,1-.94-2.043A2.66,2.66,0,0,1,18.3-5.019a5.821,5.821,0,0,1,3.322-.791h.914v-.5q0-1.316-1.134-1.316a.927.927,0,0,0-1.055,1.042H17.385a2.655,2.655,0,0,1,1.173-2.239,4.931,4.931,0,0,1,2.993-.86,4.323,4.323,0,0,1,2.874.888,3.086,3.086,0,0,1,1.081,2.435v4.21a4.311,4.311,0,0,0,.4,2V0ZM21.094-1.934a1.652,1.652,0,0,0,.918-.237,1.487,1.487,0,0,0,.523-.536V-4.228h-.861q-1.547,0-1.547,1.389a.848.848,0,0,0,.272.655A.986.986,0,0,0,21.094-1.934Zm9.712-1.591,1.5-5.985h3.12L32.326,0H29.3L26.2-9.51h3.129ZM40.8.176a4.889,4.889,0,0,1-3.542-1.305,4.507,4.507,0,0,1-1.354-3.4v-.246a5.84,5.84,0,0,1,.541-2.575,3.955,3.955,0,0,1,1.578-1.727,4.763,4.763,0,0,1,2.461-.611,4.117,4.117,0,0,1,3.164,1.244,4.887,4.887,0,0,1,1.16,3.467v1.151H38.918a2.135,2.135,0,0,0,.694,1.257A2.066,2.066,0,0,0,41-2.109a2.662,2.662,0,0,0,2.2-.984l1.354,1.6A3.784,3.784,0,0,1,42.983-.277,5.3,5.3,0,0,1,40.8.176ZM40.465-7.4q-1.3,0-1.547,1.723h2.988v-.229a1.467,1.467,0,0,0-.36-1.1A1.434,1.434,0,0,0,40.465-7.4ZM53.7-4.342V0H50.616V-12.8h5.106a5.948,5.948,0,0,1,2.6.541,4.074,4.074,0,0,1,1.749,1.538,4.2,4.2,0,0,1,.62,2.263,3.7,3.7,0,0,1-1.34,2.993A5.561,5.561,0,0,1,55.67-4.342Zm0-2.382h2.021a1.906,1.906,0,0,0,1.367-.448,1.665,1.665,0,0,0,.47-1.266,2.059,2.059,0,0,0-.483-1.433,1.712,1.712,0,0,0-1.318-.545H53.7Zm14.247-.105-.976-.07a1.752,1.752,0,0,0-1.793.879V0H62.218V-9.51H65l.1,1.222a2.294,2.294,0,0,1,2.083-1.4A2.888,2.888,0,0,1,68-9.58ZM72.141,0H69.17V-9.51h2.971ZM68.994-11.962A1.322,1.322,0,0,1,69.451-13a1.724,1.724,0,0,1,1.187-.4,1.724,1.724,0,0,1,1.187.4,1.322,1.322,0,0,1,.457,1.037,1.322,1.322,0,0,1-.457,1.037,1.724,1.724,0,0,1-1.187.4,1.724,1.724,0,0,1-1.187-.4A1.322,1.322,0,0,1,68.994-11.962Zm8.763,8.438,1.5-5.985h3.12L79.277,0H76.254l-3.1-9.51H76.28ZM88.488,0a3.344,3.344,0,0,1-.281-.853A2.754,2.754,0,0,1,85.922.176a3.374,3.374,0,0,1-2.285-.813,2.588,2.588,0,0,1-.94-2.043,2.66,2.66,0,0,1,1.143-2.338,5.821,5.821,0,0,1,3.322-.791h.914v-.5q0-1.316-1.134-1.316a.927.927,0,0,0-1.055,1.042H82.925A2.655,2.655,0,0,1,84.1-8.825a4.931,4.931,0,0,1,2.993-.86,4.323,4.323,0,0,1,2.874.888,3.086,3.086,0,0,1,1.081,2.435v4.21a4.311,4.311,0,0,0,.4,2V0ZM86.634-1.934a1.652,1.652,0,0,0,.918-.237,1.487,1.487,0,0,0,.523-.536V-4.228h-.861q-1.547,0-1.547,1.389a.848.848,0,0,0,.272.655A.986.986,0,0,0,86.634-1.934Zm5.678-2.892a5.809,5.809,0,0,1,.976-3.56,3.211,3.211,0,0,1,2.725-1.3,2.731,2.731,0,0,1,2.145,1V-13.5h2.971V0H98.464l-.149-1.02a2.8,2.8,0,0,1-2.32,1.2,3.205,3.205,0,0,1-2.689-1.3A5.993,5.993,0,0,1,92.312-4.825Zm2.962.185q0,2.531,1.477,2.531a1.458,1.458,0,0,0,1.406-.826V-6.557A1.419,1.419,0,0,0,96.768-7.4q-1.371,0-1.485,2.215ZM108.167,0a3.344,3.344,0,0,1-.281-.853A2.754,2.754,0,0,1,105.6.176a3.374,3.374,0,0,1-2.285-.813,2.588,2.588,0,0,1-.94-2.043,2.66,2.66,0,0,1,1.143-2.338,5.821,5.821,0,0,1,3.322-.791h.914v-.5q0-1.316-1.134-1.316a.927.927,0,0,0-1.055,1.042H102.6a2.655,2.655,0,0,1,1.173-2.239,4.931,4.931,0,0,1,2.993-.86,4.323,4.323,0,0,1,2.874.888,3.086,3.086,0,0,1,1.081,2.435v4.21a4.311,4.311,0,0,0,.4,2V0Zm-1.854-1.934a1.652,1.652,0,0,0,.918-.237,1.487,1.487,0,0,0,.523-.536V-4.228h-.861q-1.547,0-1.547,1.389a.848.848,0,0,0,.272.655A.986.986,0,0,0,106.313-1.934Z" transform="translate(129.417 9300.381)" fill="#12263f"/>
    <path id="Trazado_120579" data-name="Trazado 120579" d="M4.964-5.387A7.494,7.494,0,0,1,1.98-6.836a2.768,2.768,0,0,1-.934-2.121,2.923,2.923,0,0,1,1.141-2.362,4.536,4.536,0,0,1,2.968-.934,4.951,4.951,0,0,1,2.22.481,3.651,3.651,0,0,1,1.511,1.328,3.4,3.4,0,0,1,.535,1.851h-1.6a2.21,2.21,0,0,0-.7-1.729,2.835,2.835,0,0,0-1.967-.629,2.9,2.9,0,0,0-1.839.52,1.734,1.734,0,0,0-.66,1.443,1.56,1.56,0,0,0,.627,1.252A6.147,6.147,0,0,0,5.416-6.8a9.9,9.9,0,0,1,2.357.935A3.577,3.577,0,0,1,9.035-4.673a3.04,3.04,0,0,1,.411,1.6A2.824,2.824,0,0,1,8.3-.718,4.884,4.884,0,0,1,5.238.166,5.681,5.681,0,0,1,2.914-.311,3.911,3.911,0,0,1,1.249-1.619,3.191,3.191,0,0,1,.664-3.5h1.6a2.082,2.082,0,0,0,.809,1.731,3.408,3.408,0,0,0,2.162.635,3.133,3.133,0,0,0,1.934-.515,1.672,1.672,0,0,0,.672-1.4,1.641,1.641,0,0,0-.623-1.374A7.178,7.178,0,0,0,4.964-5.387ZM14.975.166A3.924,3.924,0,0,1,12-1.033a4.452,4.452,0,0,1-1.146-3.208v-.282a5.39,5.39,0,0,1,.51-2.386A3.982,3.982,0,0,1,12.8-8.554a3.59,3.59,0,0,1,1.988-.594,3.364,3.364,0,0,1,2.723,1.154,5,5,0,0,1,.971,3.3v.639H12.393a3.193,3.193,0,0,0,.776,2.146,2.44,2.44,0,0,0,1.888.818,2.675,2.675,0,0,0,1.378-.332,3.462,3.462,0,0,0,.988-.88l.938.73A3.772,3.772,0,0,1,14.975.166Zm-.191-8.052a2.048,2.048,0,0,0-1.561.677,3.288,3.288,0,0,0-.78,1.9h4.5v-.116a2.925,2.925,0,0,0-.631-1.814A1.928,1.928,0,0,0,14.784-7.886ZM24.6-7.6a4.6,4.6,0,0,0-.755-.058,2.024,2.024,0,0,0-2.05,1.287V0H20.254V-8.981h1.494l.025,1.038a2.391,2.391,0,0,1,2.142-1.2,1.569,1.569,0,0,1,.681.116Zm4.524,5.52,2.225-6.9h1.569L29.692,0h-1.17L25.268-8.981h1.569ZM36.059,0H34.523V-8.981h1.536ZM34.4-11.364a.917.917,0,0,1,.228-.631.857.857,0,0,1,.677-.257.87.87,0,0,1,.681.257.907.907,0,0,1,.232.631.877.877,0,0,1-.232.623.886.886,0,0,1-.681.249.872.872,0,0,1-.677-.249A.886.886,0,0,1,34.4-11.364Zm3.744,6.8a5.261,5.261,0,0,1,.979-3.324,3.1,3.1,0,0,1,2.565-1.258,3.115,3.115,0,0,1,2.5,1.079V-12.75h1.536V0H44.31l-.075-.963A3.127,3.127,0,0,1,41.67.166a3.068,3.068,0,0,1-2.544-1.278,5.321,5.321,0,0,1-.984-3.337Zm1.536.174A3.984,3.984,0,0,0,40.309-2a2.039,2.039,0,0,0,1.743.863,2.24,2.24,0,0,0,2.133-1.312V-6.574a2.257,2.257,0,0,0-2.117-1.27,2.049,2.049,0,0,0-1.76.872A4.386,4.386,0,0,0,39.678-4.391ZM47.7-4.574a5.3,5.3,0,0,1,.519-2.374,3.87,3.87,0,0,1,1.444-1.627,3.932,3.932,0,0,1,2.113-.573,3.788,3.788,0,0,1,2.968,1.27A4.886,4.886,0,0,1,55.873-4.5v.108a5.351,5.351,0,0,1-.5,2.353A3.813,3.813,0,0,1,53.934-.415a3.977,3.977,0,0,1-2.146.581A3.778,3.778,0,0,1,48.829-1.1,4.861,4.861,0,0,1,47.7-4.466Zm1.544.183a3.842,3.842,0,0,0,.693,2.4,2.218,2.218,0,0,0,1.855.9A2.2,2.2,0,0,0,53.648-2a4.2,4.2,0,0,0,.689-2.569,3.836,3.836,0,0,0-.7-2.395,2.23,2.23,0,0,0-1.864-.917,2.205,2.205,0,0,0-1.834.9A4.17,4.17,0,0,0,49.24-4.391ZM62.14-7.6a4.6,4.6,0,0,0-.755-.058,2.024,2.024,0,0,0-2.05,1.287V0H57.8V-8.981h1.494l.025,1.038a2.391,2.391,0,0,1,2.142-1.2,1.569,1.569,0,0,1,.681.116Zm5.246,3.038a5.261,5.261,0,0,1,.979-3.324A3.1,3.1,0,0,1,70.93-9.147a3.115,3.115,0,0,1,2.5,1.079V-12.75h1.536V0H73.553l-.075-.963A3.127,3.127,0,0,1,70.914.166a3.068,3.068,0,0,1-2.544-1.278,5.321,5.321,0,0,1-.984-3.337Zm1.536.174A3.984,3.984,0,0,0,69.552-2a2.039,2.039,0,0,0,1.743.863,2.24,2.24,0,0,0,2.133-1.312V-6.574a2.257,2.257,0,0,0-2.117-1.27,2.049,2.049,0,0,0-1.76.872A4.386,4.386,0,0,0,68.921-4.391ZM81.074.166a3.924,3.924,0,0,1-2.972-1.2,4.452,4.452,0,0,1-1.146-3.208v-.282a5.39,5.39,0,0,1,.51-2.386,3.982,3.982,0,0,1,1.428-1.644,3.59,3.59,0,0,1,1.988-.594,3.364,3.364,0,0,1,2.723,1.154,5,5,0,0,1,.971,3.3v.639H78.492a3.193,3.193,0,0,0,.776,2.146,2.44,2.44,0,0,0,1.888.818,2.675,2.675,0,0,0,1.378-.332,3.462,3.462,0,0,0,.988-.88l.938.73A3.772,3.772,0,0,1,81.074.166Zm-.191-8.052a2.048,2.048,0,0,0-1.561.677,3.288,3.288,0,0,0-.78,1.9h4.5v-.116a2.925,2.925,0,0,0-.631-1.814A1.928,1.928,0,0,0,80.883-7.886Zm13.281,6.8a2.212,2.212,0,0,0,1.436-.5,1.752,1.752,0,0,0,.681-1.245h1.453A2.785,2.785,0,0,1,97.2-1.361,3.5,3.5,0,0,1,95.895-.249a3.772,3.772,0,0,1-1.731.415,3.7,3.7,0,0,1-2.918-1.224,4.877,4.877,0,0,1-1.083-3.349v-.257A5.407,5.407,0,0,1,90.645-7a3.667,3.667,0,0,1,1.382-1.585,3.926,3.926,0,0,1,2.129-.564,3.6,3.6,0,0,1,2.511.9,3.234,3.234,0,0,1,1.067,2.349H96.281a2.116,2.116,0,0,0-.66-1.432,2.053,2.053,0,0,0-1.465-.56,2.149,2.149,0,0,0-1.814.843A3.957,3.957,0,0,0,91.7-4.607v.291a3.878,3.878,0,0,0,.639,2.391A2.16,2.16,0,0,0,94.164-1.087ZM101.128,0H99.593V-12.75h1.536Zm8,0a3.226,3.226,0,0,1-.216-.946A3.426,3.426,0,0,1,106.358.166a3.17,3.17,0,0,1-2.179-.751,2.43,2.43,0,0,1-.851-1.905,2.539,2.539,0,0,1,1.067-2.179,5.029,5.029,0,0,1,3-.776h1.494v-.706a1.725,1.725,0,0,0-.481-1.282,1.935,1.935,0,0,0-1.419-.477,2.239,2.239,0,0,0-1.378.415,1.223,1.223,0,0,0-.556,1h-1.544a2.119,2.119,0,0,1,.477-1.3,3.258,3.258,0,0,1,1.295-.992,4.356,4.356,0,0,1,1.8-.365,3.551,3.551,0,0,1,2.432.776,2.8,2.8,0,0,1,.913,2.137V-2.1a5.054,5.054,0,0,0,.315,1.967V0Zm-2.548-1.17a2.7,2.7,0,0,0,1.37-.374,2.259,2.259,0,0,0,.938-.971V-4.358h-1.2q-2.822,0-2.822,1.652a1.4,1.4,0,0,0,.481,1.129A1.85,1.85,0,0,0,106.582-1.17Zm9.089-.913,2.225-6.9h1.569L116.244,0h-1.17L111.82-8.981h1.569Zm8.89,2.25a3.924,3.924,0,0,1-2.972-1.2,4.452,4.452,0,0,1-1.146-3.208v-.282a5.39,5.39,0,0,1,.51-2.386,3.982,3.982,0,0,1,1.428-1.644,3.59,3.59,0,0,1,1.988-.594,3.364,3.364,0,0,1,2.723,1.154,5,5,0,0,1,.971,3.3v.639H121.98a3.193,3.193,0,0,0,.776,2.146,2.44,2.44,0,0,0,1.888.818,2.675,2.675,0,0,0,1.378-.332,3.462,3.462,0,0,0,.988-.88l.938.73A3.772,3.772,0,0,1,124.562.166Zm-.191-8.052a2.048,2.048,0,0,0-1.561.677,3.288,3.288,0,0,0-.78,1.9h4.5v-.116a2.925,2.925,0,0,0-.631-1.814A1.928,1.928,0,0,0,124.371-7.886Z" transform="translate(615.417 9184.381)" fill="#12263f"/>
    <path id="Trazado_120576" data-name="Trazado 120576" d="M3.461-12.086,7.413-2.225l3.951-9.861h2.067V0H11.837V-4.707l.149-5.08L8.019,0H6.8L2.839-9.762,3-4.707V0H1.4V-12.086ZM19.731.166a3.924,3.924,0,0,1-2.972-1.2,4.452,4.452,0,0,1-1.146-3.208v-.282a5.39,5.39,0,0,1,.51-2.386,3.982,3.982,0,0,1,1.428-1.644,3.59,3.59,0,0,1,1.988-.594,3.364,3.364,0,0,1,2.723,1.154,5,5,0,0,1,.971,3.3v.639H17.149a3.193,3.193,0,0,0,.776,2.146,2.44,2.44,0,0,0,1.888.818,2.675,2.675,0,0,0,1.378-.332,3.462,3.462,0,0,0,.988-.88l.938.73A3.772,3.772,0,0,1,19.731.166ZM19.54-7.886a2.048,2.048,0,0,0-1.561.677,3.288,3.288,0,0,0-.78,1.9h4.5v-.116a2.925,2.925,0,0,0-.631-1.814A1.928,1.928,0,0,0,19.54-7.886Zm6.923-1.1.05,1.129A3.273,3.273,0,0,1,29.2-9.147q2.847,0,2.872,3.212V0H30.539V-5.943a2.068,2.068,0,0,0-.444-1.436,1.78,1.78,0,0,0-1.357-.465,2.216,2.216,0,0,0-1.312.4,2.706,2.706,0,0,0-.88,1.046V0H25.01V-8.981Zm13.157,6.6a1.13,1.13,0,0,0-.469-.967,4.514,4.514,0,0,0-1.635-.594,7.731,7.731,0,0,1-1.851-.6,2.633,2.633,0,0,1-1.013-.83,1.986,1.986,0,0,1-.328-1.146,2.33,2.33,0,0,1,.934-1.868,3.647,3.647,0,0,1,2.386-.764,3.753,3.753,0,0,1,2.478.789,2.5,2.5,0,0,1,.95,2.017H39.528a1.386,1.386,0,0,0-.535-1.087,2.006,2.006,0,0,0-1.349-.457,2.1,2.1,0,0,0-1.312.365,1.15,1.15,0,0,0-.473.955.932.932,0,0,0,.44.838,5.413,5.413,0,0,0,1.59.54,8.283,8.283,0,0,1,1.864.614,2.718,2.718,0,0,1,1.058.859,2.112,2.112,0,0,1,.344,1.224,2.3,2.3,0,0,1-.963,1.93,4.039,4.039,0,0,1-2.5.726,4.523,4.523,0,0,1-1.909-.382,3.105,3.105,0,0,1-1.3-1.067,2.571,2.571,0,0,1-.469-1.482h1.536a1.59,1.59,0,0,0,.618,1.224,2.4,2.4,0,0,0,1.523.452,2.476,2.476,0,0,0,1.4-.353A1.084,1.084,0,0,0,39.62-2.382ZM48.7,0a3.226,3.226,0,0,1-.216-.946A3.426,3.426,0,0,1,45.928.166a3.17,3.17,0,0,1-2.179-.751A2.43,2.43,0,0,1,42.9-2.49a2.539,2.539,0,0,1,1.067-2.179,5.029,5.029,0,0,1,3-.776H48.46v-.706a1.725,1.725,0,0,0-.481-1.282,1.935,1.935,0,0,0-1.419-.477,2.239,2.239,0,0,0-1.378.415,1.223,1.223,0,0,0-.556,1H43.081a2.119,2.119,0,0,1,.477-1.3,3.258,3.258,0,0,1,1.295-.992,4.356,4.356,0,0,1,1.8-.365,3.551,3.551,0,0,1,2.432.776A2.8,2.8,0,0,1,50-6.234V-2.1a5.054,5.054,0,0,0,.315,1.967V0ZM46.152-1.17a2.7,2.7,0,0,0,1.37-.374,2.259,2.259,0,0,0,.938-.971V-4.358h-1.2q-2.822,0-2.822,1.652a1.4,1.4,0,0,0,.481,1.129A1.85,1.85,0,0,0,46.152-1.17Zm7.836-7.811V1.038q0,2.59-2.349,2.59a2.865,2.865,0,0,1-.938-.149V2.258a2.969,2.969,0,0,0,.7.066,1.043,1.043,0,0,0,.784-.278,1.376,1.376,0,0,0,.27-.968V-8.981Zm-1.693-2.382a.921.921,0,0,1,.228-.627.839.839,0,0,1,.668-.261.87.87,0,0,1,.681.257.907.907,0,0,1,.232.631.877.877,0,0,1-.232.623.886.886,0,0,1-.681.249.859.859,0,0,1-.672-.249A.9.9,0,0,1,52.295-11.364ZM60.189.166a3.924,3.924,0,0,1-2.972-1.2,4.452,4.452,0,0,1-1.146-3.208v-.282a5.39,5.39,0,0,1,.51-2.386A3.982,3.982,0,0,1,58.01-8.554,3.59,3.59,0,0,1,60-9.147a3.364,3.364,0,0,1,2.723,1.154,5,5,0,0,1,.971,3.3v.639H57.607a3.193,3.193,0,0,0,.776,2.146,2.44,2.44,0,0,0,1.888.818,2.675,2.675,0,0,0,1.378-.332,3.462,3.462,0,0,0,.988-.88l.938.73A3.772,3.772,0,0,1,60.189.166ZM60-7.886a2.048,2.048,0,0,0-1.561.677,3.288,3.288,0,0,0-.78,1.9h4.5v-.116a2.925,2.925,0,0,0-.631-1.814A1.928,1.928,0,0,0,60-7.886Zm13.281,6.8a2.212,2.212,0,0,0,1.436-.5A1.752,1.752,0,0,0,75.4-2.831h1.453a2.785,2.785,0,0,1-.531,1.469A3.5,3.5,0,0,1,75.01-.249a3.772,3.772,0,0,1-1.731.415,3.7,3.7,0,0,1-2.918-1.224,4.877,4.877,0,0,1-1.083-3.349v-.257A5.407,5.407,0,0,1,69.76-7a3.667,3.667,0,0,1,1.382-1.585,3.926,3.926,0,0,1,2.129-.564,3.6,3.6,0,0,1,2.511.9,3.234,3.234,0,0,1,1.067,2.349H75.4a2.116,2.116,0,0,0-.66-1.432,2.053,2.053,0,0,0-1.465-.56,2.149,2.149,0,0,0-1.814.843,3.957,3.957,0,0,0-.643,2.436v.291a3.878,3.878,0,0,0,.639,2.391A2.16,2.16,0,0,0,73.279-1.087ZM80.244,0H78.708V-8.981h1.536Zm-1.66-11.364a.917.917,0,0,1,.228-.631.857.857,0,0,1,.677-.257.87.87,0,0,1,.681.257.907.907,0,0,1,.232.631.877.877,0,0,1-.232.623.886.886,0,0,1-.681.249.872.872,0,0,1-.677-.249A.886.886,0,0,1,78.583-11.364ZM83.456,0V-7.794H82.037V-8.981h1.419V-9.9a3.058,3.058,0,0,1,.772-2.233,2.916,2.916,0,0,1,2.183-.789,4.055,4.055,0,0,1,1.054.14l-.083,1.238a4.41,4.41,0,0,0-.83-.075,1.5,1.5,0,0,0-1.154.437,1.773,1.773,0,0,0-.407,1.253v.949h1.917v1.187H84.992V0Zm9.488-7.6a4.6,4.6,0,0,0-.755-.058,2.024,2.024,0,0,0-2.05,1.287V0H88.6V-8.981H90.1l.025,1.038a2.391,2.391,0,0,1,2.142-1.2,1.569,1.569,0,0,1,.681.116ZM99.568,0a3.226,3.226,0,0,1-.216-.946A3.426,3.426,0,0,1,96.8.166a3.17,3.17,0,0,1-2.179-.751,2.43,2.43,0,0,1-.851-1.905,2.539,2.539,0,0,1,1.067-2.179,5.029,5.029,0,0,1,3-.776h1.494v-.706a1.725,1.725,0,0,0-.481-1.282,1.935,1.935,0,0,0-1.419-.477,2.239,2.239,0,0,0-1.378.415,1.223,1.223,0,0,0-.556,1H93.948a2.119,2.119,0,0,1,.477-1.3,3.258,3.258,0,0,1,1.295-.992,4.356,4.356,0,0,1,1.8-.365,3.551,3.551,0,0,1,2.432.776,2.8,2.8,0,0,1,.913,2.137V-2.1a5.054,5.054,0,0,0,.315,1.967V0ZM97.02-1.17a2.7,2.7,0,0,0,1.37-.374,2.259,2.259,0,0,0,.938-.971V-4.358h-1.2q-2.822,0-2.822,1.652a1.4,1.4,0,0,0,.481,1.129A1.85,1.85,0,0,0,97.02-1.17Zm5.877-3.4a5.261,5.261,0,0,1,.979-3.324,3.1,3.1,0,0,1,2.565-1.258,3.115,3.115,0,0,1,2.5,1.079V-12.75h1.536V0h-1.411l-.075-.963A3.127,3.127,0,0,1,106.424.166a3.068,3.068,0,0,1-2.544-1.278,5.321,5.321,0,0,1-.984-3.337Zm1.536.174A3.984,3.984,0,0,0,105.063-2a2.039,2.039,0,0,0,1.743.863,2.24,2.24,0,0,0,2.133-1.312V-6.574a2.257,2.257,0,0,0-2.117-1.27,2.049,2.049,0,0,0-1.76.872A4.386,4.386,0,0,0,104.432-4.391Zm8.019-.183a5.3,5.3,0,0,1,.519-2.374,3.87,3.87,0,0,1,1.444-1.627,3.932,3.932,0,0,1,2.113-.573,3.788,3.788,0,0,1,2.968,1.27A4.886,4.886,0,0,1,120.627-4.5v.108a5.351,5.351,0,0,1-.5,2.353,3.813,3.813,0,0,1-1.436,1.623,3.977,3.977,0,0,1-2.146.581,3.778,3.778,0,0,1-2.959-1.27,4.861,4.861,0,0,1-1.133-3.362Zm1.544.183a3.842,3.842,0,0,0,.693,2.4,2.218,2.218,0,0,0,1.855.9A2.2,2.2,0,0,0,118.4-2a4.2,4.2,0,0,0,.689-2.569,3.836,3.836,0,0,0-.7-2.395,2.23,2.23,0,0,0-1.864-.917,2.205,2.205,0,0,0-1.834.9A4.17,4.17,0,0,0,113.995-4.391Z" transform="translate(476.093 9349.783)" fill="#12263f"/>
    <path id="Trazado_120577" data-name="Trazado 120577" d="M1.4,0V-12.086H4.814a5.492,5.492,0,0,1,2.789.7A4.716,4.716,0,0,1,9.475-9.4a6.457,6.457,0,0,1,.668,2.955v.772a6.48,6.48,0,0,1-.66,3A4.642,4.642,0,0,1,7.6-.706,5.842,5.842,0,0,1,4.748,0ZM3-10.783V-1.3H4.673A3.648,3.648,0,0,0,7.541-2.45,4.737,4.737,0,0,0,8.566-5.715v-.706a4.812,4.812,0,0,0-.967-3.2,3.441,3.441,0,0,0-2.743-1.159ZM16.037.166a3.924,3.924,0,0,1-2.972-1.2A4.452,4.452,0,0,1,11.92-4.242v-.282a5.39,5.39,0,0,1,.51-2.386,3.982,3.982,0,0,1,1.428-1.644,3.59,3.59,0,0,1,1.988-.594,3.364,3.364,0,0,1,2.723,1.154,5,5,0,0,1,.971,3.3v.639H13.456a3.193,3.193,0,0,0,.776,2.146,2.44,2.44,0,0,0,1.888.818A2.675,2.675,0,0,0,17.5-1.419a3.462,3.462,0,0,0,.988-.88l.938.73A3.772,3.772,0,0,1,16.037.166Zm-.191-8.052a2.048,2.048,0,0,0-1.561.677,3.288,3.288,0,0,0-.78,1.9H18v-.116a2.925,2.925,0,0,0-.631-1.814A1.928,1.928,0,0,0,15.846-7.886Zm10.7,5.5a1.131,1.131,0,0,0-.469-.967,4.514,4.514,0,0,0-1.635-.594,7.731,7.731,0,0,1-1.851-.6,2.633,2.633,0,0,1-1.013-.83,1.986,1.986,0,0,1-.328-1.146,2.33,2.33,0,0,1,.934-1.868,3.647,3.647,0,0,1,2.386-.764,3.753,3.753,0,0,1,2.478.789A2.5,2.5,0,0,1,28-6.342H26.455a1.386,1.386,0,0,0-.535-1.087,2.006,2.006,0,0,0-1.349-.457,2.1,2.1,0,0,0-1.312.365,1.15,1.15,0,0,0-.473.955.932.932,0,0,0,.44.838,5.413,5.413,0,0,0,1.59.54,8.283,8.283,0,0,1,1.864.614,2.718,2.718,0,0,1,1.058.859,2.112,2.112,0,0,1,.344,1.224,2.3,2.3,0,0,1-.963,1.93,4.039,4.039,0,0,1-2.5.726,4.523,4.523,0,0,1-1.909-.382,3.105,3.105,0,0,1-1.3-1.067,2.571,2.571,0,0,1-.469-1.482h1.536A1.59,1.59,0,0,0,23.1-1.54a2.4,2.4,0,0,0,1.523.452,2.476,2.476,0,0,0,1.4-.353A1.084,1.084,0,0,0,26.546-2.382Zm7.139,1.295a2.212,2.212,0,0,0,1.436-.5A1.752,1.752,0,0,0,35.8-2.831h1.453a2.785,2.785,0,0,1-.531,1.469A3.5,3.5,0,0,1,35.415-.249a3.772,3.772,0,0,1-1.731.415,3.7,3.7,0,0,1-2.918-1.224,4.877,4.877,0,0,1-1.083-3.349v-.257A5.407,5.407,0,0,1,30.165-7a3.667,3.667,0,0,1,1.382-1.585,3.926,3.926,0,0,1,2.129-.564,3.6,3.6,0,0,1,2.511.9,3.234,3.234,0,0,1,1.067,2.349H35.8a2.116,2.116,0,0,0-.66-1.432,2.053,2.053,0,0,0-1.465-.56,2.149,2.149,0,0,0-1.814.843,3.957,3.957,0,0,0-.643,2.436v.291a3.878,3.878,0,0,0,.639,2.391A2.16,2.16,0,0,0,33.685-1.087ZM40.649,0H39.113V-8.981h1.536Zm-1.66-11.364a.917.917,0,0,1,.228-.631.857.857,0,0,1,.677-.257.87.87,0,0,1,.681.257.907.907,0,0,1,.232.631.877.877,0,0,1-.232.623.886.886,0,0,1-.681.249.872.872,0,0,1-.677-.249A.886.886,0,0,1,38.989-11.364ZM43.861,0V-7.794H42.442V-8.981h1.419V-9.9a3.058,3.058,0,0,1,.772-2.233,2.916,2.916,0,0,1,2.183-.789,4.055,4.055,0,0,1,1.054.14l-.083,1.238a4.41,4.41,0,0,0-.83-.075,1.5,1.5,0,0,0-1.154.437A1.773,1.773,0,0,0,45.4-9.931v.949h1.917v1.187H45.4V0Zm9.488-7.6a4.6,4.6,0,0,0-.755-.058,2.024,2.024,0,0,0-2.05,1.287V0H49.008V-8.981H50.5l.025,1.038a2.391,2.391,0,0,1,2.142-1.2,1.569,1.569,0,0,1,.681.116ZM59.973,0a3.226,3.226,0,0,1-.216-.946A3.426,3.426,0,0,1,57.2.166a3.17,3.17,0,0,1-2.179-.751,2.43,2.43,0,0,1-.851-1.905,2.539,2.539,0,0,1,1.067-2.179,5.029,5.029,0,0,1,3-.776h1.494v-.706a1.725,1.725,0,0,0-.481-1.282,1.935,1.935,0,0,0-1.419-.477,2.239,2.239,0,0,0-1.378.415,1.223,1.223,0,0,0-.556,1H54.354a2.119,2.119,0,0,1,.477-1.3,3.258,3.258,0,0,1,1.295-.992,4.356,4.356,0,0,1,1.8-.365,3.551,3.551,0,0,1,2.432.776,2.8,2.8,0,0,1,.913,2.137V-2.1a5.054,5.054,0,0,0,.315,1.967V0ZM57.425-1.17a2.7,2.7,0,0,0,1.37-.374,2.259,2.259,0,0,0,.938-.971V-4.358h-1.2q-2.822,0-2.822,1.652a1.4,1.4,0,0,0,.481,1.129A1.85,1.85,0,0,0,57.425-1.17Zm5.877-3.4a5.261,5.261,0,0,1,.979-3.324,3.1,3.1,0,0,1,2.565-1.258,3.115,3.115,0,0,1,2.5,1.079V-12.75H70.88V0H69.469l-.075-.963A3.127,3.127,0,0,1,66.83.166a3.068,3.068,0,0,1-2.544-1.278A5.321,5.321,0,0,1,63.3-4.449Zm1.536.174A3.984,3.984,0,0,0,65.468-2a2.039,2.039,0,0,0,1.743.863,2.24,2.24,0,0,0,2.133-1.312V-6.574a2.257,2.257,0,0,0-2.117-1.27,2.049,2.049,0,0,0-1.76.872A4.386,4.386,0,0,0,64.837-4.391Zm8.019-.183a5.3,5.3,0,0,1,.519-2.374,3.87,3.87,0,0,1,1.444-1.627,3.932,3.932,0,0,1,2.113-.573A3.788,3.788,0,0,1,79.9-7.877,4.886,4.886,0,0,1,81.032-4.5v.108a5.351,5.351,0,0,1-.5,2.353A3.813,3.813,0,0,1,79.094-.415a3.977,3.977,0,0,1-2.146.581A3.778,3.778,0,0,1,73.989-1.1a4.861,4.861,0,0,1-1.133-3.362Zm1.544.183a3.842,3.842,0,0,0,.693,2.4,2.218,2.218,0,0,0,1.855.9A2.2,2.2,0,0,0,78.808-2,4.2,4.2,0,0,0,79.5-4.574a3.836,3.836,0,0,0-.7-2.395,2.23,2.23,0,0,0-1.864-.917,2.205,2.205,0,0,0-1.834.9A4.17,4.17,0,0,0,74.4-4.391Z" transform="translate(297.666 9480.583)" fill="#12263f"/>
    <path id="Trazado_120578" data-name="Trazado 120578" d="M10.293-3.835A4.447,4.447,0,0,1,8.878-.876,4.638,4.638,0,0,1,5.711.166,4.259,4.259,0,0,1,2.279-1.37,6.178,6.178,0,0,1,.988-5.479V-6.641A6.886,6.886,0,0,1,1.59-9.6,4.5,4.5,0,0,1,3.3-11.567a4.75,4.75,0,0,1,2.557-.685A4.367,4.367,0,0,1,8.94-11.177,4.5,4.5,0,0,1,10.293-8.2h-1.6a3.472,3.472,0,0,0-.9-2.1,2.725,2.725,0,0,0-1.938-.649,2.851,2.851,0,0,0-2.395,1.13A5.187,5.187,0,0,0,2.59-6.6v1.171A5.332,5.332,0,0,0,3.412-2.3a2.655,2.655,0,0,0,2.3,1.163,3.067,3.067,0,0,0,2.038-.6,3.34,3.34,0,0,0,.942-2.1ZM13.9,0H12.36V-8.981H13.9Zm-1.66-11.364a.917.917,0,0,1,.228-.631.857.857,0,0,1,.677-.257.87.87,0,0,1,.681.257.907.907,0,0,1,.232.631.877.877,0,0,1-.232.623.886.886,0,0,1-.681.249.872.872,0,0,1-.677-.249A.886.886,0,0,1,12.235-11.364ZM17.108,0V-7.794H15.688V-8.981h1.419V-9.9a3.058,3.058,0,0,1,.772-2.233,2.916,2.916,0,0,1,2.183-.789,4.055,4.055,0,0,1,1.054.14l-.083,1.238a4.41,4.41,0,0,0-.83-.075,1.5,1.5,0,0,0-1.154.437,1.773,1.773,0,0,0-.407,1.253v.949h1.917v1.187H18.644V0ZM26.6-7.6a4.6,4.6,0,0,0-.755-.058,2.024,2.024,0,0,0-2.05,1.287V0H22.254V-8.981h1.494l.025,1.038a2.391,2.391,0,0,1,2.142-1.2,1.569,1.569,0,0,1,.681.116ZM33.22,0A3.226,3.226,0,0,1,33-.946,3.426,3.426,0,0,1,30.447.166a3.17,3.17,0,0,1-2.179-.751,2.43,2.43,0,0,1-.851-1.905,2.539,2.539,0,0,1,1.067-2.179,5.029,5.029,0,0,1,3-.776h1.494v-.706A1.725,1.725,0,0,0,32.5-7.433a1.935,1.935,0,0,0-1.419-.477A2.239,2.239,0,0,0,29.7-7.5a1.223,1.223,0,0,0-.556,1H27.6a2.119,2.119,0,0,1,.477-1.3,3.258,3.258,0,0,1,1.295-.992,4.356,4.356,0,0,1,1.8-.365,3.551,3.551,0,0,1,2.432.776,2.8,2.8,0,0,1,.913,2.137V-2.1A5.054,5.054,0,0,0,34.83-.133V0ZM30.671-1.17a2.7,2.7,0,0,0,1.37-.374,2.259,2.259,0,0,0,.938-.971V-4.358h-1.2q-2.822,0-2.822,1.652a1.4,1.4,0,0,0,.481,1.129A1.85,1.85,0,0,0,30.671-1.17Zm5.877-3.4a5.261,5.261,0,0,1,.979-3.324,3.1,3.1,0,0,1,2.565-1.258,3.115,3.115,0,0,1,2.5,1.079V-12.75h1.536V0H42.716l-.075-.963A3.127,3.127,0,0,1,40.076.166a3.068,3.068,0,0,1-2.544-1.278,5.321,5.321,0,0,1-.984-3.337Zm1.536.174A3.984,3.984,0,0,0,38.715-2a2.039,2.039,0,0,0,1.743.863,2.24,2.24,0,0,0,2.133-1.312V-6.574a2.257,2.257,0,0,0-2.117-1.27,2.049,2.049,0,0,0-1.76.872A4.386,4.386,0,0,0,38.084-4.391ZM46.1-4.574a5.3,5.3,0,0,1,.519-2.374,3.87,3.87,0,0,1,1.444-1.627,3.932,3.932,0,0,1,2.113-.573,3.788,3.788,0,0,1,2.968,1.27A4.886,4.886,0,0,1,54.279-4.5v.108a5.351,5.351,0,0,1-.5,2.353A3.813,3.813,0,0,1,52.341-.415a3.977,3.977,0,0,1-2.146.581A3.778,3.778,0,0,1,47.236-1.1,4.861,4.861,0,0,1,46.1-4.466Zm1.544.183a3.842,3.842,0,0,0,.693,2.4,2.218,2.218,0,0,0,1.855.9A2.2,2.2,0,0,0,52.054-2a4.2,4.2,0,0,0,.689-2.569,3.836,3.836,0,0,0-.7-2.395,2.23,2.23,0,0,0-1.864-.917,2.205,2.205,0,0,0-1.834.9A4.17,4.17,0,0,0,47.646-4.391Z" transform="translate(673.128 9480.583)" fill="#12263f"/>
    <g id="_25._Keyword" data-name="25. Keyword" transform="translate(481.566 9179.976)">
      <ellipse id="Elipse_5172" data-name="Elipse 5172" cx="37.765" cy="14.23" rx="37.765" ry="14.23" transform="translate(25.177 52.543)" fill="#647499"/>
      <path id="Trazado_119145" data-name="Trazado 119145" d="M89.428,37V54.959c0,7.938-16.881,14.367-37.714,14.367S14,62.9,14,54.959V37c0,3.394,3.089,6.519,8.261,8.979C44.53,56.575,89.428,50.415,89.428,37Z" transform="translate(11.143 29.448)" fill="#ccd3eb"/>
      <path id="Trazado_119146" data-name="Trazado 119146" d="M51.714,58.367C30.881,58.367,14,51.938,14,44v5.388c0,7.938,16.881,14.367,37.714,14.367s37.714-6.429,37.714-14.367V44C89.428,51.938,72.546,58.367,51.714,58.367Z" transform="translate(11.143 35.019)" fill="#96a1c3"/>
      <ellipse id="Elipse_5173" data-name="Elipse 5173" cx="37.765" cy="14.23" rx="37.765" ry="14.23" transform="translate(25.177 19.704)" fill="#96a1c3"/>
      <path id="Trazado_119147" data-name="Trazado 119147" d="M51.714,29.173C33.306,29.173,18,24.145,14.682,17.5A6.106,6.106,0,0,0,14,20.194c0,7.938,16.881,14.367,37.714,14.367s37.714-6.429,37.714-14.367a6.106,6.106,0,0,0-.682-2.694C85.423,24.145,70.122,29.173,51.714,29.173Z" transform="translate(11.143 13.928)" fill="#647499"/>
      <path id="Trazado_119148" data-name="Trazado 119148" d="M89.428,19V36.959c0,7.938-16.881,14.367-37.714,14.367S14,44.9,14,36.959V19c0,3.394,3.089,6.519,8.261,8.979C44.53,38.575,89.428,32.415,89.428,19Z" transform="translate(11.143 15.122)" fill="#ccd3eb"/>
      <path id="Trazado_119149" data-name="Trazado 119149" d="M51.714,40.367C30.881,40.367,14,33.938,14,26v5.388c0,7.938,16.881,14.367,37.714,14.367s37.714-6.429,37.714-14.367V26C89.428,33.938,72.546,40.367,51.714,40.367Z" transform="translate(11.143 20.693)" fill="#96a1c3"/>
      <path id="Trazado_119150" data-name="Trazado 119150" d="M38.592,1A3.592,3.592,0,0,0,35,4.592V31.53l7.184-5.388h39.51a3.592,3.592,0,0,0,3.592-3.592V4.592A3.592,3.592,0,0,0,81.693,1Z" transform="translate(27.856 0.796)" fill="#0074ff"/>
      <path id="Trazado_119151" data-name="Trazado 119151" d="M39.8,8.592H57.755a1.8,1.8,0,1,0,0-3.592H39.8a1.8,1.8,0,1,0,0,3.592Z" transform="translate(30.244 3.979)" fill="#f5f7ff"/>
      <path id="Trazado_119152" data-name="Trazado 119152" d="M54.8,8.592h8.979a1.8,1.8,0,1,0,0-3.592H54.8a1.8,1.8,0,0,0,0,3.592Z" transform="translate(42.183 3.979)" fill="#f5f7ff"/>
      <path id="Trazado_119153" data-name="Trazado 119153" d="M70.143,9H46.8a1.8,1.8,0,1,0,0,3.592H70.143a1.8,1.8,0,1,0,0-3.592Z" transform="translate(35.815 7.163)" fill="#f5f7ff"/>
      <path id="Trazado_119154" data-name="Trazado 119154" d="M43.388,9H39.8a1.8,1.8,0,1,0,0,3.592h3.592a1.8,1.8,0,1,0,0-3.592Z" transform="translate(30.244 7.163)" fill="#f5f7ff"/>
      <path id="Trazado_119155" data-name="Trazado 119155" d="M4.592,49H40.51V74.143H4.592A3.592,3.592,0,0,1,1,70.551V52.592A3.592,3.592,0,0,1,4.592,49Z" transform="translate(0.796 38.999)" fill="#f5f7ff"/>
      <path id="Trazado_119156" data-name="Trazado 119156" d="M23,49H44.551a3.592,3.592,0,0,1,3.592,3.592V70.551a3.592,3.592,0,0,1-3.592,3.592H23Z" transform="translate(18.306 38.999)" fill="#0074ff"/>
      <g id="Grupo_83754" data-name="Grupo 83754" transform="translate(0)">
        <path id="Trazado_119157" data-name="Trazado 119157" d="M48.011,47.861c-1.131.269-2.3.5-3.592.736a1.789,1.789,0,1,0,.647,3.52c1.257-.215,2.5-.485,3.592-.754a1.8,1.8,0,1,0-.826-3.5Z" transform="translate(34.187 38.054)"/>
        <path id="Trazado_119158" data-name="Trazado 119158" d="M53.617,45.968A33.889,33.889,0,0,1,50.2,47.512a1.8,1.8,0,1,0,1.293,3.34,35.328,35.328,0,0,0,3.771-1.8,1.8,1.8,0,1,0-1.652-3.179Z" transform="translate(38.944 36.302)"/>
        <path id="Trazado_119159" data-name="Trazado 119159" d="M48.937,34.6c-1.113.305-2.281.575-3.484.826a1.831,1.831,0,1,0,.718,3.592c1.275-.269,2.514-.557,3.7-.88a1.8,1.8,0,1,0-.934-3.466Z" transform="translate(35.004 27.535)"/>
        <path id="Trazado_119160" data-name="Trazado 119160" d="M48.837,33.363a1.8,1.8,0,0,0-.826-3.5c-1.131.269-2.3.5-3.592.736a1.789,1.789,0,1,0,.647,3.52c1.347-.215,2.586-.485,3.771-.754Z" transform="translate(34.187 23.728)"/>
        <path id="Trazado_119161" data-name="Trazado 119161" d="M53.617,27.968A33.888,33.888,0,0,1,50.2,29.512a1.8,1.8,0,1,0,1.293,3.34,35.326,35.326,0,0,0,3.771-1.8,1.8,1.8,0,1,0-1.652-3.179Z" transform="translate(38.944 21.976)"/>
        <path id="Trazado_119162" data-name="Trazado 119162" d="M49.377,33.657c-11.763,0-22.862-2.137-29.7-5.729a1.8,1.8,0,1,0-1.652,3.179c7.435,3.9,18.785,6.142,31.356,6.142a1.8,1.8,0,0,0,0-3.592Z" transform="translate(13.479 22.016)"/>
        <path id="Trazado_119163" data-name="Trazado 119163" d="M109.55,0h-43.1a5.388,5.388,0,0,0-5.388,5.388V32.326a1.8,1.8,0,0,0,2.873,1.437l6.7-5.029H94.967c1.8,1.275,3.807,3.179,3.807,5.388,0,5.944-14.744,12.571-35.918,12.571S26.938,40.066,26.938,34.122c0-5.011,10.775-10.991,28.86-12.32a1.8,1.8,0,1,0-.251-3.592c-18.965,1.4-32.2,7.938-32.2,15.912V52.081a9.68,9.68,0,0,0,3.879,7.184,9.482,9.482,0,0,0-3.879,7.184c0,19.468-.09,18.372.251,19.755H5.388A5.388,5.388,0,0,0,0,91.591V109.55a5.388,5.388,0,0,0,5.388,5.388H62.856a5.388,5.388,0,0,0,5.388-5.388v-9.123c17.241-.934,34.122-6.609,34.122-16.019V66.448A9.518,9.518,0,0,0,98.5,59.265a9.554,9.554,0,0,0,3.861-7.184V34.122a8.566,8.566,0,0,0-2.119-5.388h9.3a5.388,5.388,0,0,0,5.388-5.388V5.388A5.388,5.388,0,0,0,109.55,0ZM3.592,109.55V91.591a1.8,1.8,0,0,1,1.8-1.8H39.51v21.551H5.388A1.8,1.8,0,0,1,3.592,109.55Zm61.061,0a1.8,1.8,0,0,1-1.8,1.8H43.1V89.795H62.856a1.8,1.8,0,0,1,1.8,1.8ZM68.244,96.8V91.591A5.388,5.388,0,0,0,62.856,86.2H27.369c-.593-1.257-.431-.647-.431-12.823C40.515,85.7,85.2,85.7,98.774,73.38V84.407C98.774,89.687,87.137,95.775,68.244,96.8ZM90.854,59.75a1.8,1.8,0,0,0,.736,3.43,2.065,2.065,0,0,0,.736-.144A29.415,29.415,0,0,0,95.434,61.4a7.022,7.022,0,0,1,3.34,5.046c0,5.944-14.744,12.571-35.918,12.571S26.938,72.393,26.938,66.448a6.968,6.968,0,0,1,3.3-5.011c11.17,6.645,30.422,7.7,43.586,6.2a1.789,1.789,0,1,0-.4-3.556c-23.257,2.622-46.5-4.113-46.5-12V41.054c13.577,12.32,58.259,12.32,71.836,0V52.081C98.774,54.7,95.883,57.469,90.854,59.75Zm20.491-36.4a1.8,1.8,0,0,1-1.8,1.8H70.04c-.79,0-.682,0-5.388,3.592V5.388a1.8,1.8,0,0,1,1.8-1.8h43.1a1.8,1.8,0,0,1,1.8,1.8Z" transform="translate(0)"/>
      </g>
      <path id="Trazado_119164" data-name="Trazado 119164" d="M9.388,61.592H5.8A1.8,1.8,0,0,1,5.8,58H9.388a1.8,1.8,0,0,1,0,3.592Z" transform="translate(3.184 46.162)" fill="#0074ff"/>
      <path id="Trazado_119165" data-name="Trazado 119165" d="M15.388,61.592H11.8A1.8,1.8,0,0,1,11.8,58h3.592a1.8,1.8,0,0,1,0,3.592Z" transform="translate(7.959 46.162)" fill="#0074ff"/>
      <path id="Trazado_119166" data-name="Trazado 119166" d="M21.388,61.592H17.8A1.8,1.8,0,0,1,17.8,58h3.592a1.8,1.8,0,0,1,0,3.592Z" transform="translate(12.734 46.162)" fill="#0074ff"/>
      <path id="Trazado_119167" data-name="Trazado 119167" d="M29.8,3.592h3.592a1.8,1.8,0,0,0,0-3.592H29.8a1.8,1.8,0,1,0,0,3.592Z" transform="translate(22.285)" fill="#96a1c3"/>
      <path id="Trazado_119168" data-name="Trazado 119168" d="M33.388,4H29.8a1.8,1.8,0,1,0,0,3.592h3.592a1.8,1.8,0,0,0,0-3.592Z" transform="translate(22.285 3.184)" fill="#96a1c3"/>
      <path id="Trazado_119169" data-name="Trazado 119169" d="M39.841,63.291l-2.047-2.047a6.268,6.268,0,1,0-2.55,2.55c2.3,2.3,2.406,2.568,3.322,2.568a1.8,1.8,0,0,0,1.275-3.071ZM29.587,58.28a2.694,2.694,0,1,1,2.694,2.694,2.694,2.694,0,0,1-2.694-2.694Z" transform="translate(20.699 41.392)" fill="#f5f7ff"/>
    </g>
    <g id="Grupo_83756" data-name="Grupo 83756" transform="translate(388.521 9231.826) rotate(-90)">
      <line id="Línea_293" data-name="Línea 293" y2="74.436" transform="translate(6.933 0)" fill="none" stroke="#1b59ed" stroke-linecap="round" stroke-width="3"/>
      <path id="Trazado_119010" data-name="Trazado 119010" d="M0,0,6.586,7.937,13.866,0" transform="translate(0 67.594)" fill="none" stroke="#1b59ed" stroke-linecap="round" stroke-width="3"/>
    </g>
    <g id="Grupo_83759" data-name="Grupo 83759" transform="translate(354.468 9307.62) rotate(180)">
      <line id="Línea_293-2" data-name="Línea 293" y2="53.144" transform="translate(6.933)" fill="none" stroke="#1b59ed" stroke-linecap="round" stroke-width="3"/>
      <path id="Trazado_119010-2" data-name="Trazado 119010" d="M0,0,6.586,7.937,13.866,0" transform="translate(0 46.303)" fill="none" stroke="#1b59ed" stroke-linecap="round" stroke-width="3"/>
    </g>
    <g id="Grupo_83758" data-name="Grupo 83758" transform="translate(615.66 9410.617) rotate(90)">
      <line id="Línea_293-3" data-name="Línea 293" y2="195.394" transform="translate(6.933 0)" fill="none" stroke="#1b59ed" stroke-linecap="round" stroke-width="3"/>
      <path id="Trazado_119010-3" data-name="Trazado 119010" d="M0,0,6.586,7.937,13.866,0" transform="translate(0 188.552)" fill="none" stroke="#1b59ed" stroke-linecap="round" stroke-width="3"/>
    </g>
    <g id="Grupo_83757" data-name="Grupo 83757" transform="translate(615.112 9224.893)">
      <path id="Trazado_119201" data-name="Trazado 119201" d="M-82.5,19.143H7.808v107.8" transform="translate(82.5 -19.143)" fill="none" stroke="#1b59ed" stroke-linecap="round" stroke-width="3"/>
      <path id="Trazado_119010-4" data-name="Trazado 119010" d="M-8006-9182.5l6.586,7.937,7.28-7.937" transform="translate(8089.375 9283.455)" fill="none" stroke="#1b59ed" stroke-linecap="round" stroke-width="3"/>
    </g>
    <g id="ordenador-portatil_1_" data-name="ordenador-portatil (1)" transform="translate(270.3 9342.307)">
      <path id="Trazado_119189" data-name="Trazado 119189" d="M159.371,143.348H48.423V68.578A1.876,1.876,0,0,1,50.3,66.7H157.5a1.876,1.876,0,0,1,1.876,1.876v74.77Z" transform="translate(-35.482 -64.697)" fill="#dfeaef"/>
      <path id="Trazado_119190" data-name="Trazado 119190" d="M157.5,66.7h-13.95a1.876,1.876,0,0,1,1.876,1.876v63.747a2.2,2.2,0,0,1-2.2,2.2H48.423v8.819H159.372V68.577A1.876,1.876,0,0,0,157.5,66.7Z" transform="translate(-35.482 -64.697)" fill="#bfcfd6"/>
      <path id="Trazado_119191" data-name="Trazado 119191" d="M79.423,151.912V98.84A1.139,1.139,0,0,1,80.562,97.7h92.1A1.139,1.139,0,0,1,173.8,98.84v53.072a1.139,1.139,0,0,1-1.139,1.139h-92.1A1.138,1.138,0,0,1,79.423,151.912Z" transform="translate(-58.197 -87.412)" fill="#38dbcf"/>
      <path id="Trazado_119192" data-name="Trazado 119192" d="M172.663,97.7h-4.526v48.872A1.139,1.139,0,0,1,167,147.713H79.423v4.2a1.139,1.139,0,0,0,1.139,1.139h92.1a1.139,1.139,0,0,0,1.139-1.139V98.84A1.139,1.139,0,0,0,172.663,97.7Z" transform="translate(-58.197 -87.413)" fill="#28cec9"/>
      <path id="Trazado_119193" data-name="Trazado 119193" d="M137.718,424.217H10.1a2.6,2.6,0,0,1-2.6-2.6v-5.085H140.322v5.085A2.6,2.6,0,0,1,137.718,424.217Z" transform="translate(-5.496 -321.034)" fill="#6f98a3"/>
      <path id="Trazado_119194" data-name="Trazado 119194" d="M140.322,357.383H7.5l10.937-21.572H129.385Z" transform="translate(-5.496 -261.888)" fill="#9ebecc"/>
      <path id="Trazado_119195" data-name="Trazado 119195" d="M129.385,335.811H113.706l7.187,14.176a2.382,2.382,0,0,1-2.125,3.459H9.5l-2,3.937H140.322Z" transform="translate(-5.496 -261.888)" fill="#86aebc"/>
      <path id="Trazado_119196" data-name="Trazado 119196" d="M225.372,386.957l-2.616-9.486a1.77,1.77,0,0,0-1.706-1.3H194.526a1.77,1.77,0,0,0-1.706,1.3l-2.616,9.486Z" transform="translate(-139.373 -291.462)" fill="#dfeaef"/>
      <path id="Trazado_119197" data-name="Trazado 119197" d="M191.289,401.8l-1.086,3.937h35.168l-1.086-3.937Z" transform="translate(-139.372 -310.241)" fill="#bfcfd6"/>
      <path id="Trazado_119198" data-name="Trazado 119198" d="M136.824,154.571c0-.02,0-.04,0-.06a1.964,1.964,0,0,0-.035-.233c0-.007,0-.015-.006-.022a1.938,1.938,0,0,0-.058-.205c-.006-.018-.013-.035-.02-.053q-.034-.091-.076-.177c0-.01-.008-.021-.013-.031l-10.72-21.144V63.081a3.884,3.884,0,0,0-3.88-3.88H14.816a3.884,3.884,0,0,0-3.88,3.88v69.564L.217,153.789c-.005.01-.008.021-.013.031-.028.057-.053.117-.076.177-.007.018-.013.035-.02.053a2.041,2.041,0,0,0-.058.206c0,.007,0,.014-.006.022a1.974,1.974,0,0,0-.035.234c0,.02,0,.04,0,.06,0,.042-.006.083-.006.125v5.085a4.613,4.613,0,0,0,4.608,4.608H132.222a4.613,4.613,0,0,0,4.608-4.608V154.7C136.83,154.653,136.827,154.612,136.824,154.571ZM14.945,63.21h106.94v67.91H14.945Zm-.773,71.918H122.658l8.9,17.563H87.525l-2.21-8.014a3.785,3.785,0,0,0-3.639-2.771H55.153a3.784,3.784,0,0,0-3.639,2.771l-2.21,8.015H5.268Zm69.2,17.563h-29.9l1.869-6.777H81.5Zm49.455,7.089a.6.6,0,0,1-.6.6H4.608a.6.6,0,0,1-.6-.6V156.7H132.822Z" transform="translate(0 -59.201)"/>
      <path id="Trazado_119199" data-name="Trazado 119199" d="M168.307,213.756a2,2,0,0,0-2,2v20.325H75.932V215.76a2,2,0,1,0-4.009,0v21.191a3.146,3.146,0,0,0,3.143,3.143h92.1a3.146,3.146,0,0,0,3.143-3.143V215.76A2,2,0,0,0,168.307,213.756Z" transform="translate(-52.702 -172.452)"/>
      <path id="Trazado_119200" data-name="Trazado 119200" d="M167.168,90.2h-92.1a3.146,3.146,0,0,0-3.143,3.143v21.191a2,2,0,1,0,4.009,0V94.211H166.3v20.325a2,2,0,1,0,4.009,0V93.345A3.146,3.146,0,0,0,167.168,90.2Z" transform="translate(-52.702 -81.917)"/>
    </g>
    <g id="ordenador-portatil_1_2" data-name="ordenador-portatil (1)" transform="translate(637.005 9342.307)">
      <path id="Trazado_119189-2" data-name="Trazado 119189" d="M159.371,143.348H48.423V68.578A1.876,1.876,0,0,1,50.3,66.7H157.5a1.876,1.876,0,0,1,1.876,1.876v74.77Z" transform="translate(-35.482 -64.697)" fill="#dfeaef"/>
      <path id="Trazado_119190-2" data-name="Trazado 119190" d="M157.5,66.7h-13.95a1.876,1.876,0,0,1,1.876,1.876v63.747a2.2,2.2,0,0,1-2.2,2.2H48.423v8.819H159.372V68.577A1.876,1.876,0,0,0,157.5,66.7Z" transform="translate(-35.482 -64.697)" fill="#bfcfd6"/>
      <path id="Trazado_119191-2" data-name="Trazado 119191" d="M79.423,151.912V98.84A1.139,1.139,0,0,1,80.562,97.7h92.1A1.139,1.139,0,0,1,173.8,98.84v53.072a1.139,1.139,0,0,1-1.139,1.139h-92.1A1.138,1.138,0,0,1,79.423,151.912Z" transform="translate(-58.197 -87.412)" fill="#38dbcf"/>
      <path id="Trazado_119192-2" data-name="Trazado 119192" d="M172.663,97.7h-4.526v48.872A1.139,1.139,0,0,1,167,147.713H79.423v4.2a1.139,1.139,0,0,0,1.139,1.139h92.1a1.139,1.139,0,0,0,1.139-1.139V98.84A1.139,1.139,0,0,0,172.663,97.7Z" transform="translate(-58.197 -87.413)" fill="#28cec9"/>
      <path id="Trazado_119193-2" data-name="Trazado 119193" d="M137.718,424.217H10.1a2.6,2.6,0,0,1-2.6-2.6v-5.085H140.322v5.085A2.6,2.6,0,0,1,137.718,424.217Z" transform="translate(-5.496 -321.034)" fill="#6f98a3"/>
      <path id="Trazado_119194-2" data-name="Trazado 119194" d="M140.322,357.383H7.5l10.937-21.572H129.385Z" transform="translate(-5.496 -261.888)" fill="#9ebecc"/>
      <path id="Trazado_119195-2" data-name="Trazado 119195" d="M129.385,335.811H113.706l7.187,14.176a2.382,2.382,0,0,1-2.125,3.459H9.5l-2,3.937H140.322Z" transform="translate(-5.496 -261.888)" fill="#86aebc"/>
      <path id="Trazado_119196-2" data-name="Trazado 119196" d="M225.372,386.957l-2.616-9.486a1.77,1.77,0,0,0-1.706-1.3H194.526a1.77,1.77,0,0,0-1.706,1.3l-2.616,9.486Z" transform="translate(-139.373 -291.462)" fill="#dfeaef"/>
      <path id="Trazado_119197-2" data-name="Trazado 119197" d="M191.289,401.8l-1.086,3.937h35.168l-1.086-3.937Z" transform="translate(-139.372 -310.241)" fill="#bfcfd6"/>
      <path id="Trazado_119198-2" data-name="Trazado 119198" d="M136.824,154.571c0-.02,0-.04,0-.06a1.964,1.964,0,0,0-.035-.233c0-.007,0-.015-.006-.022a1.938,1.938,0,0,0-.058-.205c-.006-.018-.013-.035-.02-.053q-.034-.091-.076-.177c0-.01-.008-.021-.013-.031l-10.72-21.144V63.081a3.884,3.884,0,0,0-3.88-3.88H14.816a3.884,3.884,0,0,0-3.88,3.88v69.564L.217,153.789c-.005.01-.008.021-.013.031-.028.057-.053.117-.076.177-.007.018-.013.035-.02.053a2.041,2.041,0,0,0-.058.206c0,.007,0,.014-.006.022a1.974,1.974,0,0,0-.035.234c0,.02,0,.04,0,.06,0,.042-.006.083-.006.125v5.085a4.613,4.613,0,0,0,4.608,4.608H132.222a4.613,4.613,0,0,0,4.608-4.608V154.7C136.83,154.653,136.827,154.612,136.824,154.571ZM14.945,63.21h106.94v67.91H14.945Zm-.773,71.918H122.658l8.9,17.563H87.525l-2.21-8.014a3.785,3.785,0,0,0-3.639-2.771H55.153a3.784,3.784,0,0,0-3.639,2.771l-2.21,8.015H5.268Zm69.2,17.563h-29.9l1.869-6.777H81.5Zm49.455,7.089a.6.6,0,0,1-.6.6H4.608a.6.6,0,0,1-.6-.6V156.7H132.822Z" transform="translate(0 -59.201)"/>
      <path id="Trazado_119199-2" data-name="Trazado 119199" d="M168.307,213.756a2,2,0,0,0-2,2v20.325H75.932V215.76a2,2,0,1,0-4.009,0v21.191a3.146,3.146,0,0,0,3.143,3.143h92.1a3.146,3.146,0,0,0,3.143-3.143V215.76A2,2,0,0,0,168.307,213.756Z" transform="translate(-52.702 -172.452)"/>
      <path id="Trazado_119200-2" data-name="Trazado 119200" d="M167.168,90.2h-92.1a3.146,3.146,0,0,0-3.143,3.143v21.191a2,2,0,1,0,4.009,0V94.211H166.3v20.325a2,2,0,1,0,4.009,0V93.345A3.146,3.146,0,0,0,167.168,90.2Z" transform="translate(-52.702 -81.917)"/>
    </g>
    <g id="clave-2" data-name="clave" transform="translate(334.334 9281.073) rotate(45)">
      <path id="Trazado_119139-2" data-name="Trazado 119139" d="M70.273,2.457a2.447,2.447,0,0,0-.86-1.889A1.982,1.982,0,0,0,68.8.206c-.048-.024-.121-.048-.182-.073a2.868,2.868,0,0,0-.351-.085,2.209,2.209,0,0,0-.4-.037H64.207L55.95,0A1.508,1.508,0,0,0,55.1.484L28.791,26.795a22.506,22.506,0,0,0-2.943-.69,21.854,21.854,0,0,0-5.4-.218A22.209,22.209,0,0,0,4.806,61.822c.508.63,1.029,1.223,1.574,1.78A22.223,22.223,0,0,0,43.454,41.457l2.615-2.615a.774.774,0,0,0,.218-.593l-.593-6.442a.743.743,0,0,1,.17-.533A.732.732,0,0,1,46.505,31l2.906.267,2.99.278a.757.757,0,0,0,.811-.811l-.545-5.9a.744.744,0,0,1,.169-.533.718.718,0,0,1,.642-.278l2.906.267,2.99.278a.756.756,0,0,0,.811-.811l-.532-5.921a.724.724,0,0,1,.17-.533.715.715,0,0,1,.629-.267l3.475.315,3,.266a.719.719,0,0,0,.581-.218l2.446-2.519a1.232,1.232,0,0,0,.339-.847ZM20.134,58.493a5.949,5.949,0,0,1-8.379,0,.64.64,0,0,1-.121-.145,2.565,2.565,0,0,1-.375-.436l-.012-.012a2.814,2.814,0,0,1-.315-.46,2.9,2.9,0,0,1-.278-.5,4.8,4.8,0,0,1-.254-.569,2.885,2.885,0,0,1-.145-.46,5.908,5.908,0,0,1,7.3-7.3,2.849,2.849,0,0,1,.46.145,4.762,4.762,0,0,1,.569.254,2.9,2.9,0,0,1,.5.278,2.819,2.819,0,0,1,.46.315l.012.012a2.566,2.566,0,0,1,.436.375.637.637,0,0,1,.145.121,5.926,5.926,0,0,1,0,8.379Zm0,0" transform="translate(1.207 1.211)" fill="#f32323"/>
      <path id="Trazado_119140-2" data-name="Trazado 119140" d="M66.641,2.457a2.447,2.447,0,0,0-.86-1.889,1.978,1.978,0,0,0-.618-.363c-.048-.024-.121-.048-.181-.073a2.869,2.869,0,0,0-.351-.085,2.209,2.209,0,0,0-.4-.037h-.024L55.95,0A1.508,1.508,0,0,0,55.1.484L28.791,26.795a22.506,22.506,0,0,0-2.943-.69l-.69.69a22.346,22.346,0,0,0-4.71-.908A22.209,22.209,0,0,0,4.806,61.822c.508.63,1.029,1.223,1.574,1.78a22.108,22.108,0,0,0,14.082,6.55,22.207,22.207,0,0,0,19.36-28.7l2.615-2.615a.774.774,0,0,0,.218-.593l-.593-6.442A.75.75,0,0,1,42.873,31l2.991.278,2.906.267a.761.761,0,0,0,.811-.811l-.545-5.9a.752.752,0,0,1,.811-.811l2.99.278,2.906.267a.761.761,0,0,0,.811-.811l-.533-5.921a.738.738,0,0,1,.8-.8l3,.267,3.474.314a.72.72,0,0,0,.582-.218l.048-.048,2.4-2.47a1.232,1.232,0,0,0,.339-.847ZM20.134,58.493a5.9,5.9,0,0,1-6.005,1.441c-2.047.666-.327.182-1.95-1.441a.64.64,0,0,1-.121-.145,2.565,2.565,0,0,1-.375-.436l-.012-.012a2.814,2.814,0,0,1-.315-.46,2.9,2.9,0,0,1-.278-.5,4.8,4.8,0,0,1-.254-.569,2.885,2.885,0,0,1-.145-.46,5.9,5.9,0,0,1,1.5-5.8c1.574-1.574-.254-2.07,1.743-1.5a1.208,1.208,0,0,1,.194.06,5.841,5.841,0,0,1,3.439-.06,2.849,2.849,0,0,1,.46.145,4.763,4.763,0,0,1,.569.254,2.9,2.9,0,0,1,.5.278,2.819,2.819,0,0,1,.46.315l.012.012a2.566,2.566,0,0,1,.436.375.637.637,0,0,1,.145.121,5.925,5.925,0,0,1,0,8.379Zm0,0" transform="translate(1.207 1.211)" fill="#ff6d6d"/>
      <path id="Trazado_119141-2" data-name="Trazado 119141" d="M23.424,72.655c-.435,0-.869-.012-1.306-.037a23.429,23.429,0,1,1,7.532-45.98L55.449.84A2.727,2.727,0,0,1,57.019.01c.051-.007.125.015.151-.01L69.052.011a3.722,3.722,0,0,1,2.584,1.07,3.607,3.607,0,0,1,1.058,2.595l.021,11.57a2.42,2.42,0,0,1-.684,1.691h0l-2.448,2.518a1.935,1.935,0,0,1-1.556.577L62.118,19.5,62.6,24.86a1.951,1.951,0,0,1-2.12,2.119l-5.345-.489.488,5.344a1.951,1.951,0,0,1-2.122,2.12l-5.342-.488.538,5.883a1.946,1.946,0,0,1-.563,1.558l-2.107,2.107a23.428,23.428,0,0,1-22.6,29.642Zm-.031-44.443A21.013,21.013,0,1,0,43.506,43.019a1.207,1.207,0,0,1,.3-1.212l2.458-2.458L45.7,33.124A1.952,1.952,0,0,1,47.816,31l5.344.489-.489-5.344a1.952,1.952,0,0,1,2.121-2.12l5.345.489-.482-5.358a1.953,1.953,0,0,1,2.119-2.119l6.235.561,2.283-2.349,0,0L70.272,3.667a1.21,1.21,0,0,0-1.21-1.235h-.006l-11.744-.01a1.608,1.608,0,0,0-.152.131l-26.3,26.3a1.211,1.211,0,0,1-1.212.3,21.258,21.258,0,0,0-6.251-.946Zm0,0" transform="translate(0 0)"/>
      <path id="Trazado_119142-2" data-name="Trazado 119142" d="M7.128,14.265a7.132,7.132,0,1,1,5.046-2.087,7.132,7.132,0,0,1-5.046,2.087Zm0-11.844A4.712,4.712,0,1,0,10.462,3.8,4.712,4.712,0,0,0,7.129,2.421Zm0,0" transform="translate(10.021 48.382)"/>
      <path id="Trazado_119143-2" data-name="Trazado 119143" d="M1.211,21.287A1.211,1.211,0,0,1,.354,19.22L19.207.368A1.211,1.211,0,1,1,20.918,2.08L2.067,20.932a1.209,1.209,0,0,1-.856.355Zm0,0" transform="translate(33.744 11.349)"/>
      <path id="Trazado_119144-2" data-name="Trazado 119144" d="M2.421,1.211A1.211,1.211,0,1,0,1.21,2.422,1.211,1.211,0,0,0,2.421,1.211Zm0,0" transform="translate(55.764 8.426)"/>
    </g>
    <g id="clave-3" data-name="clave" transform="translate(506.363 9170.888) rotate(45)">
      <path id="Trazado_119139-3" data-name="Trazado 119139" d="M41.66,1.457a1.451,1.451,0,0,0-.51-1.12,1.175,1.175,0,0,0-.366-.215c-.029-.014-.072-.029-.108-.043a1.7,1.7,0,0,0-.208-.05,1.31,1.31,0,0,0-.237-.022H38.064L33.169,0a.894.894,0,0,0-.5.287l-15.6,15.6a13.343,13.343,0,0,0-1.744-.409,12.956,12.956,0,0,0-3.2-.129,13.166,13.166,0,0,0-9.274,21.3c.3.373.61.725.933,1.055A13.174,13.174,0,0,0,25.761,24.577l1.55-1.55a.459.459,0,0,0,.129-.352l-.352-3.819a.441.441,0,0,1,.1-.316.434.434,0,0,1,.38-.165l1.723.158,1.773.165a.449.449,0,0,0,.481-.481l-.323-3.5a.441.441,0,0,1,.1-.316.425.425,0,0,1,.38-.165l1.723.158,1.773.165a.448.448,0,0,0,.481-.481l-.316-3.51a.429.429,0,0,1,.1-.316.424.424,0,0,1,.373-.158l2.06.187,1.78.158a.426.426,0,0,0,.344-.129l1.45-1.493a.73.73,0,0,0,.2-.5ZM11.936,34.676a3.527,3.527,0,0,1-4.967,0A.38.38,0,0,1,6.9,34.59a1.521,1.521,0,0,1-.222-.258l-.007-.007a1.669,1.669,0,0,1-.187-.273,1.719,1.719,0,0,1-.165-.294,2.845,2.845,0,0,1-.151-.337,1.71,1.71,0,0,1-.086-.273,3.5,3.5,0,0,1,4.328-4.328,1.689,1.689,0,0,1,.273.086,2.822,2.822,0,0,1,.337.151,1.72,1.72,0,0,1,.294.165,1.671,1.671,0,0,1,.273.187l.007.007a1.521,1.521,0,0,1,.259.222.378.378,0,0,1,.086.072,3.513,3.513,0,0,1,0,4.967Zm0,0" transform="translate(0.716 0.718)" fill="#e6ae08"/>
      <path id="Trazado_119140-3" data-name="Trazado 119140" d="M39.507,1.457A1.451,1.451,0,0,0,39,.337a1.173,1.173,0,0,0-.366-.215C38.6.108,38.559.093,38.523.079a1.7,1.7,0,0,0-.208-.05,1.31,1.31,0,0,0-.237-.022h-.014L33.169,0a.894.894,0,0,0-.5.287l-15.6,15.6a13.343,13.343,0,0,0-1.744-.409l-.409.409a13.247,13.247,0,0,0-2.792-.538,13.166,13.166,0,0,0-9.274,21.3c.3.373.61.725.933,1.055a13.106,13.106,0,0,0,8.348,3.883A13.165,13.165,0,0,0,23.608,24.577l1.55-1.55a.459.459,0,0,0,.129-.352l-.352-3.819a.445.445,0,0,1,.481-.481l1.773.165,1.723.158a.451.451,0,0,0,.481-.481l-.323-3.5a.446.446,0,0,1,.481-.481l1.773.165,1.723.158a.451.451,0,0,0,.481-.481l-.316-3.51a.438.438,0,0,1,.474-.474l1.78.158,2.06.186a.427.427,0,0,0,.345-.129l.029-.029L39.32,8.821a.73.73,0,0,0,.2-.5ZM11.936,34.676a3.5,3.5,0,0,1-3.56.854c-1.213.395-.194.108-1.156-.854a.379.379,0,0,1-.072-.086,1.521,1.521,0,0,1-.222-.258l-.007-.007a1.669,1.669,0,0,1-.187-.273,1.719,1.719,0,0,1-.165-.294,2.845,2.845,0,0,1-.151-.337,1.71,1.71,0,0,1-.086-.273,3.5,3.5,0,0,1,.89-3.438c.933-.933-.151-1.227,1.034-.89a.716.716,0,0,1,.115.036,3.463,3.463,0,0,1,2.039-.036,1.689,1.689,0,0,1,.273.086,2.822,2.822,0,0,1,.337.151,1.72,1.72,0,0,1,.294.165,1.671,1.671,0,0,1,.273.187l.007.007a1.521,1.521,0,0,1,.259.222.378.378,0,0,1,.086.072,3.513,3.513,0,0,1,0,4.967Zm0,0" transform="translate(0.716 0.718)" fill="#ffcd38"/>
      <path id="Trazado_119141-3" data-name="Trazado 119141" d="M13.887,43.072c-.258,0-.515-.007-.774-.022a13.889,13.889,0,1,1,4.465-27.259L32.872.5A1.617,1.617,0,0,1,33.8.006c.03,0,.074.009.09-.006l7.044.006A2.206,2.206,0,0,1,42.468.64,2.138,2.138,0,0,1,43.1,2.179l.013,6.859a1.435,1.435,0,0,1-.405,1h0l-1.451,1.493a1.147,1.147,0,0,1-.923.342l-3.5-.315.286,3.177a1.157,1.157,0,0,1-1.257,1.256l-3.169-.29.289,3.168a1.157,1.157,0,0,1-1.258,1.257l-3.167-.289.319,3.488a1.154,1.154,0,0,1-.334.924L27.286,25.5a13.889,13.889,0,0,1-13.4,17.573Zm-.018-26.347A12.457,12.457,0,1,0,25.792,25.5a.716.716,0,0,1,.178-.719l1.457-1.457-.337-3.691a1.157,1.157,0,0,1,1.257-1.258l3.168.29-.29-3.168a1.157,1.157,0,0,1,1.257-1.257l3.169.29-.286-3.176A1.158,1.158,0,0,1,36.622,10.1l3.7.333,1.353-1.392v0L41.66,2.174a.718.718,0,0,0-.718-.732h0l-6.962-.006a.954.954,0,0,0-.09.078L18.293,17.107a.718.718,0,0,1-.719.178,12.6,12.6,0,0,0-3.706-.561Zm0,0" transform="translate(0 0)"/>
      <path id="Trazado_119142-3" data-name="Trazado 119142" d="M4.226,8.457A4.228,4.228,0,1,1,7.217,7.22,4.228,4.228,0,0,1,4.226,8.457Zm0-7.021A2.793,2.793,0,1,0,6.2,2.253a2.793,2.793,0,0,0-1.976-.817Zm0,0" transform="translate(5.941 28.682)"/>
      <path id="Trazado_119143-3" data-name="Trazado 119143" d="M.718,12.619A.718.718,0,0,1,.21,11.394L11.386.218A.718.718,0,1,1,12.4,1.233L1.225,12.409a.717.717,0,0,1-.507.21Zm0,0" transform="translate(20.004 6.728)"/>
      <path id="Trazado_119144-3" data-name="Trazado 119144" d="M1.435.718a.718.718,0,1,0-.718.718A.718.718,0,0,0,1.435.718Zm0,0" transform="translate(33.059 4.995)"/>
    </g>
    <g id="clave-4" data-name="clave" transform="translate(456.744 9414.811) rotate(45)">
      <path id="Trazado_119139-4" data-name="Trazado 119139" d="M41.66,1.457a1.451,1.451,0,0,0-.51-1.12,1.175,1.175,0,0,0-.366-.215c-.029-.014-.072-.029-.108-.043a1.7,1.7,0,0,0-.208-.05,1.31,1.31,0,0,0-.237-.022H38.064L33.169,0a.894.894,0,0,0-.5.287l-15.6,15.6a13.343,13.343,0,0,0-1.744-.409,12.956,12.956,0,0,0-3.2-.129,13.166,13.166,0,0,0-9.274,21.3c.3.373.61.725.933,1.055A13.174,13.174,0,0,0,25.761,24.577l1.55-1.55a.459.459,0,0,0,.129-.352l-.352-3.819a.441.441,0,0,1,.1-.316.434.434,0,0,1,.38-.165l1.723.158,1.773.165a.449.449,0,0,0,.481-.481l-.323-3.5a.441.441,0,0,1,.1-.316.425.425,0,0,1,.38-.165l1.723.158,1.773.165a.448.448,0,0,0,.481-.481l-.316-3.51a.429.429,0,0,1,.1-.316.424.424,0,0,1,.373-.158l2.06.187,1.78.158a.426.426,0,0,0,.344-.129l1.45-1.493a.73.73,0,0,0,.2-.5ZM11.936,34.676a3.527,3.527,0,0,1-4.967,0A.38.38,0,0,1,6.9,34.59a1.521,1.521,0,0,1-.222-.258l-.007-.007a1.669,1.669,0,0,1-.187-.273,1.719,1.719,0,0,1-.165-.294,2.845,2.845,0,0,1-.151-.337,1.71,1.71,0,0,1-.086-.273,3.5,3.5,0,0,1,4.328-4.328,1.689,1.689,0,0,1,.273.086,2.822,2.822,0,0,1,.337.151,1.72,1.72,0,0,1,.294.165,1.671,1.671,0,0,1,.273.187l.007.007a1.521,1.521,0,0,1,.259.222.378.378,0,0,1,.086.072,3.513,3.513,0,0,1,0,4.967Zm0,0" transform="translate(0.716 0.718)" fill="#f32323"/>
      <path id="Trazado_119140-4" data-name="Trazado 119140" d="M39.507,1.457A1.451,1.451,0,0,0,39,.337a1.173,1.173,0,0,0-.366-.215C38.6.108,38.559.093,38.523.079a1.7,1.7,0,0,0-.208-.05,1.31,1.31,0,0,0-.237-.022h-.014L33.169,0a.894.894,0,0,0-.5.287l-15.6,15.6a13.343,13.343,0,0,0-1.744-.409l-.409.409a13.247,13.247,0,0,0-2.792-.538,13.166,13.166,0,0,0-9.274,21.3c.3.373.61.725.933,1.055a13.106,13.106,0,0,0,8.348,3.883A13.165,13.165,0,0,0,23.608,24.577l1.55-1.55a.459.459,0,0,0,.129-.352l-.352-3.819a.445.445,0,0,1,.481-.481l1.773.165,1.723.158a.451.451,0,0,0,.481-.481l-.323-3.5a.446.446,0,0,1,.481-.481l1.773.165,1.723.158a.451.451,0,0,0,.481-.481l-.316-3.51a.438.438,0,0,1,.474-.474l1.78.158,2.06.186a.427.427,0,0,0,.345-.129l.029-.029L39.32,8.821a.73.73,0,0,0,.2-.5ZM11.936,34.676a3.5,3.5,0,0,1-3.56.854c-1.213.395-.194.108-1.156-.854a.379.379,0,0,1-.072-.086,1.521,1.521,0,0,1-.222-.258l-.007-.007a1.669,1.669,0,0,1-.187-.273,1.719,1.719,0,0,1-.165-.294,2.845,2.845,0,0,1-.151-.337,1.71,1.71,0,0,1-.086-.273,3.5,3.5,0,0,1,.89-3.438c.933-.933-.151-1.227,1.034-.89a.716.716,0,0,1,.115.036,3.463,3.463,0,0,1,2.039-.036,1.689,1.689,0,0,1,.273.086,2.822,2.822,0,0,1,.337.151,1.72,1.72,0,0,1,.294.165,1.671,1.671,0,0,1,.273.187l.007.007a1.521,1.521,0,0,1,.259.222.378.378,0,0,1,.086.072,3.513,3.513,0,0,1,0,4.967Zm0,0" transform="translate(0.716 0.718)" fill="#ff6d6d"/>
      <path id="Trazado_119141-4" data-name="Trazado 119141" d="M13.887,43.072c-.258,0-.515-.007-.774-.022a13.889,13.889,0,1,1,4.465-27.259L32.872.5A1.617,1.617,0,0,1,33.8.006c.03,0,.074.009.09-.006l7.044.006A2.206,2.206,0,0,1,42.468.64,2.138,2.138,0,0,1,43.1,2.179l.013,6.859a1.435,1.435,0,0,1-.405,1h0l-1.451,1.493a1.147,1.147,0,0,1-.923.342l-3.5-.315.286,3.177a1.157,1.157,0,0,1-1.257,1.256l-3.169-.29.289,3.168a1.157,1.157,0,0,1-1.258,1.257l-3.167-.289.319,3.488a1.154,1.154,0,0,1-.334.924L27.286,25.5a13.889,13.889,0,0,1-13.4,17.573Zm-.018-26.347A12.457,12.457,0,1,0,25.792,25.5a.716.716,0,0,1,.178-.719l1.457-1.457-.337-3.691a1.157,1.157,0,0,1,1.257-1.258l3.168.29-.29-3.168a1.157,1.157,0,0,1,1.257-1.257l3.169.29-.286-3.176A1.158,1.158,0,0,1,36.622,10.1l3.7.333,1.353-1.392v0L41.66,2.174a.718.718,0,0,0-.718-.732h0l-6.962-.006a.954.954,0,0,0-.09.078L18.293,17.107a.718.718,0,0,1-.719.178,12.6,12.6,0,0,0-3.706-.561Zm0,0" transform="translate(0)"/>
      <path id="Trazado_119142-4" data-name="Trazado 119142" d="M4.226,8.457A4.228,4.228,0,1,1,7.217,7.22,4.228,4.228,0,0,1,4.226,8.457Zm0-7.021A2.793,2.793,0,1,0,6.2,2.253a2.793,2.793,0,0,0-1.976-.817Zm0,0" transform="translate(5.941 28.682)"/>
      <path id="Trazado_119143-4" data-name="Trazado 119143" d="M.718,12.619A.718.718,0,0,1,.21,11.394L11.386.218A.718.718,0,1,1,12.4,1.233L1.225,12.409a.717.717,0,0,1-.507.21Zm0,0" transform="translate(20.004 6.728)"/>
      <path id="Trazado_119144-4" data-name="Trazado 119144" d="M1.435.718a.718.718,0,1,0-.718.718A.718.718,0,0,0,1.435.718Zm0,0" transform="translate(33.059 4.995)"/>
    </g>
    <g id="Layer_2" data-name="Layer 2" transform="translate(500.175 9359.497)">
      <path id="Trazado_119170" data-name="Trazado 119170" d="M75.43,26.036H14.13A6.117,6.117,0,0,0,8,32.139V65.708a6.117,6.117,0,0,0,6.13,6.1H32.868a6.139,6.139,0,0,1,4.988,2.556l1.935,2.7a6.145,6.145,0,0,0,9.977,0l1.935-2.7a6.139,6.139,0,0,1,4.988-2.556H75.43a6.117,6.117,0,0,0,6.13-6.1V32.139a6.117,6.117,0,0,0-6.13-6.1Z" transform="translate(-6.468 10.799)" fill="#ffbd5a"/>
      <path id="Trazado_119171" data-name="Trazado 119171" d="M37.965,57.358c-2.439,3.548-6.612,4.026-10,3.7l1.2,1.672a6.145,6.145,0,0,0,9.977,0l1.935-2.7a6.126,6.126,0,0,1,3.738-2.419c.614-2.321.884-4.025.884-4.025s-3.134-2.922-7.732,3.768Z" transform="translate(4.162 25.133)" fill="#e4ad5d"/>
      <path id="Trazado_119172" data-name="Trazado 119172" d="M75.43,26.036H14.13A6.117,6.117,0,0,0,8,32.139v9.042c2.246-3.957,5.694-8.448,9.22-6.982,6.005,2.5,8.637,16.572,27.56,17.174C63.7,50.771,66.335,36.7,72.34,34.2c3.526-1.466,6.974,3.025,9.22,6.982V32.139a6.117,6.117,0,0,0-6.13-6.1Z" transform="translate(-6.467 10.799)" fill="#e4ad5d"/>
      <g id="Grupo_83755" data-name="Grupo 83755" transform="translate(0 35.303)">
        <path id="Trazado_119173" data-name="Trazado 119173" d="M75.962,25.036h-61.3A7.658,7.658,0,0,0,7,32.672V66.24a7.658,7.658,0,0,0,7.662,7.634H33.4a4.614,4.614,0,0,1,3.743,1.918l1.935,2.7a7.68,7.68,0,0,0,12.467,0l1.935-2.7a4.614,4.614,0,0,1,3.743-1.918H75.962a7.658,7.658,0,0,0,7.662-7.634V32.672A7.658,7.658,0,0,0,75.962,25.036Zm4.6,41.2a4.59,4.59,0,0,1-4.6,4.572l-18.779,0,1.628-2.269a1.563,1.563,0,1,0-2.541-1.822L49.055,76.7a4.613,4.613,0,0,1-7.486,0l-1.935-2.7a7.687,7.687,0,0,0-6.233-3.2H14.662a4.59,4.59,0,0,1-4.6-4.572V32.672a4.59,4.59,0,0,1,4.6-4.574h61.3a4.59,4.59,0,0,1,4.6,4.574Z" transform="translate(-7 -25.036)"/>
        <path id="Trazado_119174" data-name="Trazado 119174" d="M17.6,35.068H14.532a1.531,1.531,0,1,1,0-3.062H17.6a1.531,1.531,0,0,1,0,3.062Z" transform="translate(-3.804 -21.325)"/>
        <path id="Trazado_119175" data-name="Trazado 119175" d="M19.129,40.046h-4.6a1.531,1.531,0,1,1,0-3.062h4.6a1.531,1.531,0,1,1,0,3.062Z" transform="translate(-3.804 -18.674)"/>
        <path id="Trazado_119176" data-name="Trazado 119176" d="M49.389,50H32.532a1.531,1.531,0,1,1,0-3.062H49.389a1.531,1.531,0,0,1,0,3.062Z" transform="translate(5.781 -13.371)"/>
        <path id="Trazado_119177" data-name="Trazado 119177" d="M32.767,50H20.532a1.531,1.531,0,1,1,0-3.062H32.767a1.531,1.531,0,0,1,0,3.062Z" transform="translate(-0.609 -13.371)"/>
        <path id="Trazado_119178" data-name="Trazado 119178" d="M37.065,45.025H35.532a1.531,1.531,0,1,1,0-3.062h1.533a1.531,1.531,0,1,1,0,3.062Z" transform="translate(7.378 -16.023)"/>
        <path id="Trazado_119179" data-name="Trazado 119179" d="M34.195,45.025H26.532a1.531,1.531,0,1,1,0-3.062h7.662a1.531,1.531,0,1,1,0,3.062Z" transform="translate(2.585 -16.023)"/>
        <path id="Trazado_119180" data-name="Trazado 119180" d="M26.792,45.025H14.532a1.531,1.531,0,1,1,0-3.062h12.26a1.531,1.531,0,1,1,0,3.062Z" transform="translate(-3.805 -16.023)"/>
        <path id="Trazado_119181" data-name="Trazado 119181" d="M17.6,50H14.532a1.531,1.531,0,1,1,0-3.062H17.6A1.531,1.531,0,1,1,17.6,50Z" transform="translate(-3.804 -13.371)"/>
        <path id="Trazado_119182" data-name="Trazado 119182" d="M51.58,35.068H48.515a1.531,1.531,0,1,1,0-3.062H51.58a1.531,1.531,0,1,1,0,3.062Z" transform="translate(14.292 -21.325)"/>
        <path id="Trazado_119183" data-name="Trazado 119183" d="M52.113,40.046h-4.6a1.531,1.531,0,0,1,0-3.062h4.6a1.531,1.531,0,1,1,0,3.062Z" transform="translate(13.759 -18.674)"/>
        <path id="Trazado_119184" data-name="Trazado 119184" d="M55.84,45.025H40.515a1.531,1.531,0,1,1,0-3.062H55.84a1.531,1.531,0,1,1,0,3.062Z" transform="translate(10.032 -16.023)"/>
        <path id="Trazado_119185" data-name="Trazado 119185" d="M52.113,50h-4.6a1.531,1.531,0,0,1,0-3.062h4.6a1.531,1.531,0,1,1,0,3.062Z" transform="translate(13.759 -13.371)"/>
      </g>
      <path id="Trazado_119186" data-name="Trazado 119186" d="M52,13.988H25.477a6.126,6.126,0,0,0-6.109,6.633l2.043,24.5a6.128,6.128,0,0,0,6.109,5.616H49.955a6.128,6.128,0,0,0,6.109-5.616l2.043-24.5A6.126,6.126,0,0,0,52,13.988Z" transform="translate(-0.425 4.384)" fill="#f0f0ff"/>
      <path id="Trazado_119187" data-name="Trazado 119187" d="M56.064,45.117l2.043-24.5A6.126,6.126,0,0,0,52,13.988H48.923c2.311,3.612,4.283,9.547,2.049,18.462C48.34,42.956,44.159,44.21,41.431,43.7a14.729,14.729,0,0,0-5.387,0c-2.728.506-6.909-.748-9.541-11.254-2.234-8.915-.262-14.85,2.049-18.462H25.477a6.126,6.126,0,0,0-6.109,6.633l2.043,24.5a6.128,6.128,0,0,0,6.109,5.616H49.955a6.128,6.128,0,0,0,6.108-5.616Z" transform="translate(-0.425 4.384)" fill="#dcdcf9"/>
      <circle id="Elipse_5174" data-name="Elipse 5174" cx="4.597" cy="4.597" r="4.597" transform="translate(33.715 29.085)" fill="#dcdcf9"/>
      <path id="Trazado_119188" data-name="Trazado 119188" d="M58.168,21.313a7.69,7.69,0,0,0-5.64-2.471H51.512C51.335,10.274,49.467,2,39.27,2S27.2,10.274,27.027,18.841H26.01a7.656,7.656,0,0,0-7.636,8.291l2.043,24.5a7.7,7.7,0,0,0,7.636,7.02H50.486a7.7,7.7,0,0,0,7.636-7.02l2.043-24.5a7.665,7.665,0,0,0-2-5.819ZM39.27,5.062c6.384,0,8.943,3.778,9.172,13.779H30.1c.229-10,2.788-13.779,9.172-13.779Zm15.8,46.312a4.624,4.624,0,0,1-4.582,4.212H28.053a4.624,4.624,0,0,1-4.582-4.212l-2.043-24.5A4.6,4.6,0,0,1,26.01,21.9H52.529a4.6,4.6,0,0,1,4.582,4.974ZM39.27,29.558a6.111,6.111,0,0,0-1.533,12.03V46.4a1.532,1.532,0,0,0,3.065,0v-4.81a6.111,6.111,0,0,0-1.532-12.03Zm0,9.186a3.062,3.062,0,1,1,3.065-3.062A3.062,3.062,0,0,1,39.27,38.744Z" transform="translate(-0.957 -2)"/>
    </g>
    <g id="clave-5" data-name="clave" transform="translate(508.005 9351.287) rotate(45)">
      <path id="Trazado_119139-5" data-name="Trazado 119139" d="M41.66,1.457a1.451,1.451,0,0,0-.51-1.12,1.175,1.175,0,0,0-.366-.215c-.029-.014-.072-.029-.108-.043a1.7,1.7,0,0,0-.208-.05,1.31,1.31,0,0,0-.237-.022H38.064L33.169,0a.894.894,0,0,0-.5.287l-15.6,15.6a13.343,13.343,0,0,0-1.744-.409,12.956,12.956,0,0,0-3.2-.129,13.166,13.166,0,0,0-9.274,21.3c.3.373.61.725.933,1.055A13.174,13.174,0,0,0,25.761,24.577l1.55-1.55a.459.459,0,0,0,.129-.352l-.352-3.819a.441.441,0,0,1,.1-.316.434.434,0,0,1,.38-.165l1.723.158,1.773.165a.449.449,0,0,0,.481-.481l-.323-3.5a.441.441,0,0,1,.1-.316.425.425,0,0,1,.38-.165l1.723.158,1.773.165a.448.448,0,0,0,.481-.481l-.316-3.51a.429.429,0,0,1,.1-.316.424.424,0,0,1,.373-.158l2.06.187,1.78.158a.426.426,0,0,0,.344-.129l1.45-1.493a.73.73,0,0,0,.2-.5ZM11.936,34.676a3.527,3.527,0,0,1-4.967,0A.38.38,0,0,1,6.9,34.59a1.521,1.521,0,0,1-.222-.258l-.007-.007a1.669,1.669,0,0,1-.187-.273,1.719,1.719,0,0,1-.165-.294,2.845,2.845,0,0,1-.151-.337,1.71,1.71,0,0,1-.086-.273,3.5,3.5,0,0,1,4.328-4.328,1.689,1.689,0,0,1,.273.086,2.822,2.822,0,0,1,.337.151,1.72,1.72,0,0,1,.294.165,1.671,1.671,0,0,1,.273.187l.007.007a1.521,1.521,0,0,1,.259.222.378.378,0,0,1,.086.072,3.513,3.513,0,0,1,0,4.967Zm0,0" transform="translate(0.716 0.718)" fill="#e6ae08"/>
      <path id="Trazado_119140-5" data-name="Trazado 119140" d="M39.507,1.457A1.451,1.451,0,0,0,39,.337a1.173,1.173,0,0,0-.366-.215C38.6.108,38.559.093,38.523.079a1.7,1.7,0,0,0-.208-.05,1.31,1.31,0,0,0-.237-.022h-.014L33.169,0a.894.894,0,0,0-.5.287l-15.6,15.6a13.343,13.343,0,0,0-1.744-.409l-.409.409a13.247,13.247,0,0,0-2.792-.538,13.166,13.166,0,0,0-9.274,21.3c.3.373.61.725.933,1.055a13.106,13.106,0,0,0,8.348,3.883A13.165,13.165,0,0,0,23.608,24.577l1.55-1.55a.459.459,0,0,0,.129-.352l-.352-3.819a.445.445,0,0,1,.481-.481l1.773.165,1.723.158a.451.451,0,0,0,.481-.481l-.323-3.5a.446.446,0,0,1,.481-.481l1.773.165,1.723.158a.451.451,0,0,0,.481-.481l-.316-3.51a.438.438,0,0,1,.474-.474l1.78.158,2.06.186a.427.427,0,0,0,.345-.129l.029-.029L39.32,8.821a.73.73,0,0,0,.2-.5ZM11.936,34.676a3.5,3.5,0,0,1-3.56.854c-1.213.395-.194.108-1.156-.854a.379.379,0,0,1-.072-.086,1.521,1.521,0,0,1-.222-.258l-.007-.007a1.669,1.669,0,0,1-.187-.273,1.719,1.719,0,0,1-.165-.294,2.845,2.845,0,0,1-.151-.337,1.71,1.71,0,0,1-.086-.273,3.5,3.5,0,0,1,.89-3.438c.933-.933-.151-1.227,1.034-.89a.716.716,0,0,1,.115.036,3.463,3.463,0,0,1,2.039-.036,1.689,1.689,0,0,1,.273.086,2.822,2.822,0,0,1,.337.151,1.72,1.72,0,0,1,.294.165,1.671,1.671,0,0,1,.273.187l.007.007a1.521,1.521,0,0,1,.259.222.378.378,0,0,1,.086.072,3.513,3.513,0,0,1,0,4.967Zm0,0" transform="translate(0.716 0.718)" fill="#ffcd38"/>
      <path id="Trazado_119141-5" data-name="Trazado 119141" d="M13.887,43.072c-.258,0-.515-.007-.774-.022a13.889,13.889,0,1,1,4.465-27.259L32.872.5A1.617,1.617,0,0,1,33.8.006c.03,0,.074.009.09-.006l7.044.006A2.206,2.206,0,0,1,42.468.64,2.138,2.138,0,0,1,43.1,2.179l.013,6.859a1.435,1.435,0,0,1-.405,1h0l-1.451,1.493a1.147,1.147,0,0,1-.923.342l-3.5-.315.286,3.177a1.157,1.157,0,0,1-1.257,1.256l-3.169-.29.289,3.168a1.157,1.157,0,0,1-1.258,1.257l-3.167-.289.319,3.488a1.154,1.154,0,0,1-.334.924L27.286,25.5a13.889,13.889,0,0,1-13.4,17.573Zm-.018-26.347A12.457,12.457,0,1,0,25.792,25.5a.716.716,0,0,1,.178-.719l1.457-1.457-.337-3.691a1.157,1.157,0,0,1,1.257-1.258l3.168.29-.29-3.168a1.157,1.157,0,0,1,1.257-1.257l3.169.29-.286-3.176A1.158,1.158,0,0,1,36.622,10.1l3.7.333,1.353-1.392v0L41.66,2.174a.718.718,0,0,0-.718-.732h0l-6.962-.006a.954.954,0,0,0-.09.078L18.293,17.107a.718.718,0,0,1-.719.178,12.6,12.6,0,0,0-3.706-.561Zm0,0" transform="translate(0 0)"/>
      <path id="Trazado_119142-5" data-name="Trazado 119142" d="M4.226,8.457A4.228,4.228,0,1,1,7.217,7.22,4.228,4.228,0,0,1,4.226,8.457Zm0-7.021A2.793,2.793,0,1,0,6.2,2.253a2.793,2.793,0,0,0-1.976-.817Zm0,0" transform="translate(5.941 28.682)"/>
      <path id="Trazado_119143-5" data-name="Trazado 119143" d="M.718,12.619A.718.718,0,0,1,.21,11.394L11.386.218A.718.718,0,1,1,12.4,1.233L1.225,12.409a.717.717,0,0,1-.507.21Zm0,0" transform="translate(20.004 6.728)"/>
      <path id="Trazado_119144-5" data-name="Trazado 119144" d="M1.435.718a.718.718,0,1,0-.718.718A.718.718,0,0,0,1.435.718Zm0,0" transform="translate(33.059 4.995)"/>
    </g>
    <g id="clave-6" data-name="clave" transform="translate(645.569 9353.849) rotate(45)">
      <path id="Trazado_119139-6" data-name="Trazado 119139" d="M41.66,1.457a1.451,1.451,0,0,0-.51-1.12,1.175,1.175,0,0,0-.366-.215c-.029-.014-.072-.029-.108-.043a1.7,1.7,0,0,0-.208-.05,1.31,1.31,0,0,0-.237-.022H38.064L33.169,0a.894.894,0,0,0-.5.287l-15.6,15.6a13.343,13.343,0,0,0-1.744-.409,12.956,12.956,0,0,0-3.2-.129,13.166,13.166,0,0,0-9.274,21.3c.3.373.61.725.933,1.055A13.174,13.174,0,0,0,25.761,24.577l1.55-1.55a.459.459,0,0,0,.129-.352l-.352-3.819a.441.441,0,0,1,.1-.316.434.434,0,0,1,.38-.165l1.723.158,1.773.165a.449.449,0,0,0,.481-.481l-.323-3.5a.441.441,0,0,1,.1-.316.425.425,0,0,1,.38-.165l1.723.158,1.773.165a.448.448,0,0,0,.481-.481l-.316-3.51a.429.429,0,0,1,.1-.316.424.424,0,0,1,.373-.158l2.06.187,1.78.158a.426.426,0,0,0,.344-.129l1.45-1.493a.73.73,0,0,0,.2-.5ZM11.936,34.676a3.527,3.527,0,0,1-4.967,0A.38.38,0,0,1,6.9,34.59a1.521,1.521,0,0,1-.222-.258l-.007-.007a1.669,1.669,0,0,1-.187-.273,1.719,1.719,0,0,1-.165-.294,2.845,2.845,0,0,1-.151-.337,1.71,1.71,0,0,1-.086-.273,3.5,3.5,0,0,1,4.328-4.328,1.689,1.689,0,0,1,.273.086,2.822,2.822,0,0,1,.337.151,1.72,1.72,0,0,1,.294.165,1.671,1.671,0,0,1,.273.187l.007.007a1.521,1.521,0,0,1,.259.222.378.378,0,0,1,.086.072,3.513,3.513,0,0,1,0,4.967Zm0,0" transform="translate(0.716 0.718)" fill="#e6ae08"/>
      <path id="Trazado_119140-6" data-name="Trazado 119140" d="M39.507,1.457A1.451,1.451,0,0,0,39,.337a1.173,1.173,0,0,0-.366-.215C38.6.108,38.559.093,38.523.079a1.7,1.7,0,0,0-.208-.05,1.31,1.31,0,0,0-.237-.022h-.014L33.169,0a.894.894,0,0,0-.5.287l-15.6,15.6a13.343,13.343,0,0,0-1.744-.409l-.409.409a13.247,13.247,0,0,0-2.792-.538,13.166,13.166,0,0,0-9.274,21.3c.3.373.61.725.933,1.055a13.106,13.106,0,0,0,8.348,3.883A13.165,13.165,0,0,0,23.608,24.577l1.55-1.55a.459.459,0,0,0,.129-.352l-.352-3.819a.445.445,0,0,1,.481-.481l1.773.165,1.723.158a.451.451,0,0,0,.481-.481l-.323-3.5a.446.446,0,0,1,.481-.481l1.773.165,1.723.158a.451.451,0,0,0,.481-.481l-.316-3.51a.438.438,0,0,1,.474-.474l1.78.158,2.06.186a.427.427,0,0,0,.345-.129l.029-.029L39.32,8.821a.73.73,0,0,0,.2-.5ZM11.936,34.676a3.5,3.5,0,0,1-3.56.854c-1.213.395-.194.108-1.156-.854a.379.379,0,0,1-.072-.086,1.521,1.521,0,0,1-.222-.258l-.007-.007a1.669,1.669,0,0,1-.187-.273,1.719,1.719,0,0,1-.165-.294,2.845,2.845,0,0,1-.151-.337,1.71,1.71,0,0,1-.086-.273,3.5,3.5,0,0,1,.89-3.438c.933-.933-.151-1.227,1.034-.89a.716.716,0,0,1,.115.036,3.463,3.463,0,0,1,2.039-.036,1.689,1.689,0,0,1,.273.086,2.822,2.822,0,0,1,.337.151,1.72,1.72,0,0,1,.294.165,1.671,1.671,0,0,1,.273.187l.007.007a1.521,1.521,0,0,1,.259.222.378.378,0,0,1,.086.072,3.513,3.513,0,0,1,0,4.967Zm0,0" transform="translate(0.716 0.718)" fill="#ffcd38"/>
      <path id="Trazado_119141-6" data-name="Trazado 119141" d="M13.887,43.072c-.258,0-.515-.007-.774-.022a13.889,13.889,0,1,1,4.465-27.259L32.872.5A1.617,1.617,0,0,1,33.8.006c.03,0,.074.009.09-.006l7.044.006A2.206,2.206,0,0,1,42.468.64,2.138,2.138,0,0,1,43.1,2.179l.013,6.859a1.435,1.435,0,0,1-.405,1h0l-1.451,1.493a1.147,1.147,0,0,1-.923.342l-3.5-.315.286,3.177a1.157,1.157,0,0,1-1.257,1.256l-3.169-.29.289,3.168a1.157,1.157,0,0,1-1.258,1.257l-3.167-.289.319,3.488a1.154,1.154,0,0,1-.334.924L27.286,25.5a13.889,13.889,0,0,1-13.4,17.573Zm-.018-26.347A12.457,12.457,0,1,0,25.792,25.5a.716.716,0,0,1,.178-.719l1.457-1.457-.337-3.691a1.157,1.157,0,0,1,1.257-1.258l3.168.29-.29-3.168a1.157,1.157,0,0,1,1.257-1.257l3.169.29-.286-3.176A1.158,1.158,0,0,1,36.622,10.1l3.7.333,1.353-1.392v0L41.66,2.174a.718.718,0,0,0-.718-.732h0l-6.962-.006a.954.954,0,0,0-.09.078L18.293,17.107a.718.718,0,0,1-.719.178,12.6,12.6,0,0,0-3.706-.561Zm0,0" transform="translate(0 0)"/>
      <path id="Trazado_119142-6" data-name="Trazado 119142" d="M4.226,8.457A4.228,4.228,0,1,1,7.217,7.22,4.228,4.228,0,0,1,4.226,8.457Zm0-7.021A2.793,2.793,0,1,0,6.2,2.253a2.793,2.793,0,0,0-1.976-.817Zm0,0" transform="translate(5.941 28.682)"/>
      <path id="Trazado_119143-6" data-name="Trazado 119143" d="M.718,12.619A.718.718,0,0,1,.21,11.394L11.386.218A.718.718,0,1,1,12.4,1.233L1.225,12.409a.717.717,0,0,1-.507.21Zm0,0" transform="translate(20.004 6.728)"/>
      <path id="Trazado_119144-6" data-name="Trazado 119144" d="M1.435.718a.718.718,0,1,0-.718.718A.718.718,0,0,0,1.435.718Zm0,0" transform="translate(33.059 4.995)"/>
    </g>
  </g>
</svg>
