<svg xmlns="http://www.w3.org/2000/svg" xmlns:xlink="http://www.w3.org/1999/xlink" width="66" height="66" viewBox="0 0 66 66">
  <defs>
    <clipPath id="clip-path">
      <rect id="Rectángulo_34509" data-name="Rectángulo 34509" width="66" height="66" transform="translate(-1355 -11098)" fill="#ffcd38"/>
    </clipPath>
  </defs>
  <g id="Enmascarar_grupo_95" data-name="Enmascarar grupo 95" transform="translate(1355 11098)" clip-path="url(#clip-path)">
    <g id="pruebas" transform="translate(-1356.065 -11099.064)">
      <path id="Trazado_119551" data-name="Trazado 119551" d="M59.613,19.161H42.3a8.505,8.505,0,0,1-16.474,0H8.516a4.257,4.257,0,0,0-4.258,4.258V57.484H63.871V23.419A4.257,4.257,0,0,0,59.613,19.161Z" fill="#ccd1d9"/>
      <path id="Trazado_119552" data-name="Trazado 119552" d="M6.387,66a4.257,4.257,0,0,1-4.258-4.258V57.484H66v4.258A4.257,4.257,0,0,1,61.742,66H6.387Z" fill="#969faa"/>
      <path id="Trazado_119553" data-name="Trazado 119553" d="M58.548,23.419H9.581a1.068,1.068,0,0,0-1.065,1.065V52.161a1.068,1.068,0,0,0,1.065,1.065H58.548a1.068,1.068,0,0,0,1.065-1.065V24.484A1.068,1.068,0,0,0,58.548,23.419Z" fill="#69d6f4"/>
      <path id="Trazado_119554" data-name="Trazado 119554" d="M28.742,37.684a7.326,7.326,0,0,1,1.065,3.832,7.46,7.46,0,1,1-1.065-3.832Z" fill="#b4dd7f"/>
      <circle id="Elipse_5184" data-name="Elipse 5184" cx="7.452" cy="7.452" r="7.452" transform="translate(38.323 34.065)" fill="#ff826e"/>
      <path id="Trazado_119555" data-name="Trazado 119555" d="M34.065,8.516a8.516,8.516,0,1,1-8.516,8.516A8.514,8.514,0,0,1,34.065,8.516Zm4.258,8.516a4.258,4.258,0,1,0-4.258,4.258A4.257,4.257,0,0,0,38.323,17.032Z" fill="#fcd770"/>
      <path id="Trazado_119556" data-name="Trazado 119556" d="M48.968,19.161v1.065l-2.725.671a12.8,12.8,0,0,1-.841,2l.33.543,1.128,1.874-4.514,4.514L39.93,28.369a12.806,12.806,0,0,1-2,.841l-.671,2.725H30.871L30.2,29.21a12.805,12.805,0,0,1-2-.841l-2.416,1.458-4.514-4.514L22.4,23.441l.33-.543a12.806,12.806,0,0,1-.841-2l-2.725-.671V13.839l2.725-.671a12.805,12.805,0,0,1,.841-2L21.269,8.75l4.514-4.514L28.2,5.7a12.805,12.805,0,0,1,2-.841l.671-2.725h6.387l.671,2.725a12.806,12.806,0,0,1,2,.841l2.416-1.458L46.86,8.75,45.4,11.167a12.805,12.805,0,0,1,.841,2l2.725.671Zm-6.387-2.129a8.516,8.516,0,1,0-8.516,8.516A8.514,8.514,0,0,0,42.581,17.032Z" fill="#ffc729"/>
      <path id="Trazado_119557" data-name="Trazado 119557" d="M34.065,26.613a9.581,9.581,0,1,0-9.581-9.581A9.592,9.592,0,0,0,34.065,26.613Zm0-17.032a7.452,7.452,0,1,1-7.452,7.452A7.46,7.46,0,0,1,34.065,9.581Z"/>
      <path id="Trazado_119558" data-name="Trazado 119558" d="M34.065,22.355a5.323,5.323,0,1,0-5.323-5.323A5.329,5.329,0,0,0,34.065,22.355Zm0-8.516a3.194,3.194,0,1,1-3.194,3.194A3.2,3.2,0,0,1,34.065,13.839Z"/>
      <path id="Trazado_119559" data-name="Trazado 119559" d="M64.935,56.419v-33A5.329,5.329,0,0,0,59.613,18.1H50.032V13l-2.974-.731q-.2-.53-.443-1.058L48.2,8.589l-5.7-5.7L39.882,4.482q-.529-.246-1.059-.443l-.73-2.974H30.036l-.731,2.974q-.53.2-1.059.443L25.621,2.893l-5.7,5.7,1.589,2.625q-.246.527-.444,1.058L18.1,13V18.1H8.516a5.329,5.329,0,0,0-5.323,5.323v33H1.065v5.323a5.329,5.329,0,0,0,5.323,5.323H61.742a5.329,5.329,0,0,0,5.323-5.323V56.419ZM20.226,14.673l2.5-.614.181-.568a11.874,11.874,0,0,1,.769-1.839l.275-.53L22.61,8.914l3.336-3.335,2.207,1.336.531-.276a11.639,11.639,0,0,1,1.836-.769l.571-.18.614-2.5h4.718l.614,2.5.571.18a11.639,11.639,0,0,1,1.836.769l.531.276L42.183,5.58l3.336,3.336-1.336,2.206.275.53a11.62,11.62,0,0,1,.769,1.839l.181.568,2.5.613v4.718l-2.5.614-.181.568a11.7,11.7,0,0,1-.769,1.839l-.275.53,1.336,2.206-3.336,3.336-2.207-1.336-.531.276a11.639,11.639,0,0,1-1.836.769l-.571.18-.614,2.5H31.706l-.614-2.5-.568-.181a11.642,11.642,0,0,1-1.838-.77l-.531-.276-2.207,1.336L22.61,25.148l1.336-2.206-.275-.53a11.62,11.62,0,0,1-.769-1.839L22.722,20l-2.5-.613Zm5.4,16.5,2.625-1.588q.527.246,1.059.443L30.036,33h8.056l.731-2.974q.53-.2,1.059-.443l2.625,1.588,5.7-5.7-.6-.991H58.548V52.161H9.581V24.484H20.525l-.6.992Zm-20.3-7.752a3.2,3.2,0,0,1,3.194-3.194H18.1v.835l2.974.731c.069.188.156.376.235.563H9.581a2.131,2.131,0,0,0-2.129,2.129V52.161A2.131,2.131,0,0,0,9.581,54.29H58.548a2.131,2.131,0,0,0,2.129-2.129V24.484a2.131,2.131,0,0,0-2.129-2.129H46.823c.079-.188.166-.376.235-.563l2.974-.731v-.835h9.581a3.2,3.2,0,0,1,3.194,3.194v33H5.323ZM64.935,61.742a3.2,3.2,0,0,1-3.194,3.194H6.387a3.2,3.2,0,0,1-3.194-3.194V58.548H64.935Z"/>
      <path id="Trazado_119560" data-name="Trazado 119560" d="M5.323,60.677H7.452v2.129H5.323Z"/>
      <path id="Trazado_119561" data-name="Trazado 119561" d="M9.581,60.677H11.71v2.129H9.581Z"/>
      <path id="Trazado_119562" data-name="Trazado 119562" d="M13.839,60.677h2.129v2.129H13.839Z"/>
      <path id="Trazado_119563" data-name="Trazado 119563" d="M13.839,41.516A8.516,8.516,0,1,0,30.087,37.97L32.6,35.96,31.27,34.3l-2.313,1.85a8.51,8.51,0,0,0-15.118,5.368Zm8.516-6.387A6.375,6.375,0,0,1,27.3,37.476l-5.928,4.742-2.52-2.52L17.344,41.2l3.867,3.867,7.146-5.716a6.383,6.383,0,1,1-6-4.226Z"/>
      <path id="Trazado_119564" data-name="Trazado 119564" d="M45.774,50.032a8.516,8.516,0,1,0-8.516-8.516A8.526,8.526,0,0,0,45.774,50.032Zm0-14.9a6.387,6.387,0,1,1-6.387,6.387A6.394,6.394,0,0,1,45.774,35.129Z"/>
      <path id="Trazado_119565" data-name="Trazado 119565" d="M43.333,45.462l2.441-2.441,2.441,2.441,1.505-1.505-2.441-2.441,2.441-2.441L48.215,37.57l-2.441,2.441L43.333,37.57l-1.505,1.505,2.441,2.441-2.441,2.441Z"/>
    </g>
  </g>
</svg>
