<svg xmlns="http://www.w3.org/2000/svg" width="146" height="145.995" viewBox="0 0 146 145.995">
  <g id="_011---Computer-Cryptography" data-name="011---Computer-Cryptography" transform="translate(-0.999)">
    <path id="Path" d="M135.4,12.3V87.731l-2.433,2.433H6.433L4,87.731V12.3A7.3,7.3,0,0,1,11.3,5H128.1A7.3,7.3,0,0,1,135.4,12.3Z" transform="translate(4.301 7.166)" fill="#1b59ed"/>
    <path id="Rectangle" d="M20,46H73.532V60.6H20Z" transform="translate(27.233 65.93)" fill="#bfc4ce"/>
    <path id="Path-2" data-name="Path" d="M89,3.433V56.916c0,21.461-29.223,33.944-35.38,36.329a2.971,2.971,0,0,1-2.239,0C45.223,90.86,16,78.378,16,56.916V3.433A2.433,2.433,0,0,1,18.433,1H86.564A2.433,2.433,0,0,1,89,3.433Z" transform="translate(21.5 1.433)" fill="#d1d4dc"/>
    <path id="Path-3" data-name="Path" d="M73.532,7.433v43.75c0,11.7-15.841,21.559-26.766,26.279a78.457,78.457,0,0,1-8.76-4.453c-1.411-.8-2.823-1.7-4.185-2.652a39.2,39.2,0,0,1-11.1-10.682,18.018,18.018,0,0,1-2.141-4.623A13.084,13.084,0,0,1,20,51.183V7.433A2.433,2.433,0,0,1,22.433,5H71.1a2.433,2.433,0,0,1,2.433,2.433Z" transform="translate(27.233 7.166)" fill="#ffcd38"/>
    <path id="Path-4" data-name="Path" d="M100.6,60.733,83.564,51H30.033L13,60.733l2.433,2.433H98.164Z" transform="translate(17.2 73.096)" fill="#dbdfe5"/>
    <path id="Path-5" data-name="Path" d="M135.4,39V51.166a7.3,7.3,0,0,1-7.3,7.3H11.3a7.3,7.3,0,0,1-7.3-7.3V39Z" transform="translate(4.301 55.897)" fill="#dbdfe5"/>
    <g id="Grupo_85866" data-name="Grupo 85866" transform="translate(3.424 19.466)">
      <path id="Path-6" data-name="Path" d="M11.74,12.867a4.7,4.7,0,0,1-.608,2.336,4.867,4.867,0,1,1,0-4.672,4.7,4.7,0,0,1,.608,2.336Z" transform="translate(-1.995 -8)" fill="#ff6d6d"/>
      <path id="Path-7" data-name="Path" d="M11.74,26.867a4.7,4.7,0,0,1-.608,2.336,4.867,4.867,0,1,1,0-4.672,4.7,4.7,0,0,1,.608,2.336Z" transform="translate(-1.995 12.066)" fill="#ff6d6d"/>
      <path id="Path-8" data-name="Path" d="M11.74,19.867a4.7,4.7,0,0,1-.608,2.336,4.867,4.867,0,1,1,0-4.672,4.7,4.7,0,0,1,.608,2.336Z" transform="translate(-1.995 2.033)" fill="#ff6d6d"/>
      <path id="Path-9" data-name="Path" d="M65.733,12.855a4.867,4.867,0,0,1-9.125,2.336,4.789,4.789,0,0,1,0-4.672,4.867,4.867,0,0,1,9.125,2.336Z" transform="translate(75.407 -7.988)" fill="#ff6d6d"/>
      <path id="Path-10" data-name="Path" d="M65.733,26.855a4.867,4.867,0,0,1-9.125,2.336,4.789,4.789,0,0,1,0-4.672,4.867,4.867,0,0,1,9.125,2.336Z" transform="translate(75.407 12.078)" fill="#ff6d6d"/>
      <path id="Path-11" data-name="Path" d="M65.733,19.855a4.867,4.867,0,0,1-9.125,2.336,4.789,4.789,0,0,1,0-4.672,4.867,4.867,0,0,1,9.125,2.336Z" transform="translate(75.407 2.045)" fill="#ff6d6d"/>
    </g>
    <path id="Path-12" data-name="Path" d="M13,55h87.6v7.3a2.433,2.433,0,0,1-2.433,2.433H15.433A2.433,2.433,0,0,1,13,62.3Z" transform="translate(17.2 78.829)" fill="#bfc4ce"/>
    <path id="Shape" d="M49.172,81.134C62.813,75.246,77.4,64.666,77.4,52.626V8.867a4.823,4.823,0,0,0-1.1-3.042c-.032-.036-.041-.083-.075-.117s-.029-.015-.041-.027A4.837,4.837,0,0,0,72.532,4H23.867A4.867,4.867,0,0,0,19,8.867v43.76a16.755,16.755,0,0,0,1.667,7.056,2.358,2.358,0,0,0,.319.635c4.421,8.76,15.6,16.22,26.25,20.812a2.433,2.433,0,0,0,1.927,0Zm-7.964-8.46,7.577-7.58a2.433,2.433,0,1,0-3.441-3.441l-8.387,8.375A36.9,36.9,0,0,1,25.976,59.42L51.623,33.776a2.433,2.433,0,0,0-3.441-3.441L24.037,54.48a10.813,10.813,0,0,1-.17-1.854V33.063l7.828-7.828a2.435,2.435,0,1,0-3.448-3.441l-4.38,4.38V8.867H41.182l-4.38,4.38a2.433,2.433,0,1,0,3.441,3.441l7.82-7.82H69.629l-12.9,12.928a2.435,2.435,0,1,0,3.445,3.441L72.532,12.85v21.6L53.876,53.11a2.435,2.435,0,1,0,3.441,3.448L72.532,41.336v11.29c0,9.424-12.9,18.493-24.333,23.6a75.533,75.533,0,0,1-7-3.557Z" transform="translate(25.8 5.733)"/>
    <path id="Shape-2" data-name="Shape" d="M147,24.333a7.285,7.285,0,0,0-5.1-6.923,9.733,9.733,0,0,0-9.5-7.677H112.931V4.867A4.867,4.867,0,0,0,108.065,0H39.933a4.867,4.867,0,0,0-4.867,4.867V9.733H15.6A9.733,9.733,0,0,0,6.1,17.41a7.254,7.254,0,0,0-.229,13.775v3.329a7.256,7.256,0,0,0,0,13.7v3.329a7.256,7.256,0,0,0,0,13.7V85.164a2.433,2.433,0,0,0,4.867,0V65.25a7.3,7.3,0,0,0,4.419-4.419H25.334a2.433,2.433,0,0,0,1.72-.713l4.154-4.154h3.859v2.394c0,16.643,15.994,28.107,27.226,34.1H8.3A2.433,2.433,0,0,0,5.868,94.9v12.166A9.733,9.733,0,0,0,15.6,116.8H44.8v5.888l-15.816,9.032a2.382,2.382,0,0,0-.321.26,2.512,2.512,0,0,0-.243.192,2.4,2.4,0,0,0-.445.659c0,.022-.027.036-.036.058a2.433,2.433,0,0,0-.175.864c0,.027-.015.051-.015.078v7.3A4.867,4.867,0,0,0,32.614,146h82.75a4.867,4.867,0,0,0,4.867-4.867v-7.3c0-.027-.015-.049-.015-.075a2.434,2.434,0,0,0-.175-.866c0-.022-.029-.039-.039-.061a2.385,2.385,0,0,0-.443-.657,2.644,2.644,0,0,0-.243-.195,2.5,2.5,0,0,0-.319-.258l-15.8-9.032V116.8h29.2a9.733,9.733,0,0,0,9.733-9.733V65.25a7.256,7.256,0,0,0,0-13.7V48.217a7.256,7.256,0,0,0,0-13.7V31.185A7.3,7.3,0,0,0,147,24.333Zm-7.3,2.433a2.433,2.433,0,1,1,2.433-2.433A2.433,2.433,0,0,1,139.7,26.766Zm-6.852,12.166H112.931v-7.3h7.3a2.433,2.433,0,0,0,1.72-.713l4.154-4.154h6.74a7.3,7.3,0,0,0,4.419,4.419v3.329A7.3,7.3,0,0,0,132.845,38.932Zm0,17.033h-9.173l-4.154-4.154a2.433,2.433,0,0,0-1.72-.713h-4.867V43.8h19.914a7.3,7.3,0,0,0,4.419,4.419v3.329A7.3,7.3,0,0,0,132.845,55.965ZM132.4,14.6a4.867,4.867,0,0,1,4.492,3,7.3,7.3,0,0,0-4.044,4.3H125.1a2.433,2.433,0,0,0-1.72.713l-4.154,4.154h-6.292V14.6ZM15.153,38.932a7.3,7.3,0,0,0-4.419-4.419V31.185a7.3,7.3,0,0,0,4.419-4.419h6.74l4.154,4.154a2.433,2.433,0,0,0,1.72.713h7.3v7.3ZM15.6,14.6H35.067V26.766H28.775l-4.154-4.154A2.433,2.433,0,0,0,22.9,21.9H15.153a7.3,7.3,0,0,0-4.044-4.3A4.867,4.867,0,0,1,15.6,14.6ZM8.3,21.9a2.433,2.433,0,1,1-2.433,2.433A2.433,2.433,0,0,1,8.3,21.9Zm0,17.033a2.433,2.433,0,1,1-2.433,2.433A2.433,2.433,0,0,1,8.3,38.932Zm0,21.9A2.433,2.433,0,1,1,10.734,58.4,2.433,2.433,0,0,1,8.3,60.831ZM30.2,51.1a2.433,2.433,0,0,0-1.72.713l-4.154,4.154H15.153a7.3,7.3,0,0,0-4.419-4.419V48.217A7.3,7.3,0,0,0,15.153,43.8H35.067v7.3Zm9.733,7.261V4.867h68.131V58.359c0,19.911-28.17,31.876-33.822,34.066a.674.674,0,0,1-.487,0c-5.65-2.2-33.822-14.157-33.822-34.066Zm73,0V55.965h3.859l4.154,4.154a2.433,2.433,0,0,0,1.72.713h10.181a7.3,7.3,0,0,0,4.419,4.419V92.464H85.705c11.234-6,27.226-17.459,27.226-34.1Zm-80.3,82.77v-4.867h82.731v4.867Zm6.73-9.733,8.516-4.867h52.237l8.516,4.867Zm58.968-9.733H49.666V116.8H98.332ZM132.4,111.93H15.6a4.867,4.867,0,0,1-4.867-4.867V97.33H137.264v9.733A4.867,4.867,0,0,1,132.4,111.93Zm7.3-51.1A2.433,2.433,0,1,1,142.13,58.4,2.433,2.433,0,0,1,139.7,60.831Zm0-17.033a2.433,2.433,0,1,1,2.433-2.433A2.433,2.433,0,0,1,139.7,43.8Z"/>
    <path id="Path-13" data-name="Path" d="M40.166,42H30.433a2.433,2.433,0,1,0,0,4.867h9.733a2.433,2.433,0,1,0,0-4.867Z" transform="translate(38.699 60.197)"/>
  </g>
</svg>
