<svg xmlns="http://www.w3.org/2000/svg" xmlns:xlink="http://www.w3.org/1999/xlink" width="66" height="66" viewBox="0 0 66 66">
  <defs>
    <clipPath id="clip-path">
      <rect id="Rectángulo_34510" data-name="Rectángulo 34510" width="66" height="66" transform="translate(-1265 -11098)" fill="#ffcd38"/>
    </clipPath>
  </defs>
  <g id="Enmascarar_grupo_97" data-name="Enmascarar grupo 97" transform="translate(1265 11098)" clip-path="url(#clip-path)">
    <g id="mantenimiento-web" transform="translate(-1265 -11098)">
      <path id="XMLID_1045_" d="M21.524,64.711H44.476V62.132A2.578,2.578,0,0,0,41.9,59.554H24.1a2.578,2.578,0,0,0-2.578,2.578Z" fill="#d3d7df"/>
      <path id="XMLID_1043_" d="M27.844,53.883H38.156v5.672H27.844Z" fill="#b5bcc9"/>
      <path id="XMLID_1041_" d="M39.089,11.6H62.133a2.578,2.578,0,0,1,2.578,2.578V51.3a2.578,2.578,0,0,1-2.578,2.578H3.867A2.578,2.578,0,0,1,1.289,51.3V14.18A2.578,2.578,0,0,1,3.867,11.6h16.1" fill="#dff6fc"/>
      <path id="XMLID_1040_" d="M62.133,53.883H3.867A2.578,2.578,0,0,1,1.289,51.3V45.117H64.711V51.3A2.578,2.578,0,0,1,62.133,53.883Z" fill="#d3d7df"/>
      <path id="XMLID_1084_" d="M57.75,45.117H8.25V3.867a2.578,2.578,0,0,1,2.578-2.578H55.172A2.578,2.578,0,0,1,57.75,3.867Z" fill="#f9f9f9"/>
      <path id="XMLID_3080_" d="M45.916,45.117H48.6V39.58H45.916a13.127,13.127,0,0,0-1.827-4.408l1.9-1.9-3.914-3.914-1.9,1.9a13.134,13.134,0,0,0-4.408-1.827V26.75H30.233v2.681a13.127,13.127,0,0,0-4.408,1.827l-1.9-1.9-3.914,3.914,1.9,1.9a13.133,13.133,0,0,0-1.827,4.408H17.4v5.537H45.916Z" fill="#79b2ff"/>
      <path id="XMLID_3079_" d="M37.351,45.115a5.157,5.157,0,1,0-8.7,0Z" fill="#fff"/>
      <path id="XMLID_1083_" d="M55.172,1.289H10.828A2.578,2.578,0,0,0,8.25,3.867V11.6h49.5V3.867A2.578,2.578,0,0,0,55.172,1.289Z" fill="#fff"/>
      <path id="XMLID_1082_" d="M57.75,11.6H8.25V3.867a2.578,2.578,0,0,1,2.578-2.578H55.172A2.578,2.578,0,0,1,57.75,3.867Z" fill="#91def5"/>
      <path id="XMLID_88_" d="M8.636,11.6H57.364" fill="#231f20"/>
      <path id="XMLID_294_" d="M62.133,10.313H59.039V3.867A3.872,3.872,0,0,0,55.172,0H10.828A3.872,3.872,0,0,0,6.961,3.867v6.445H3.867A3.872,3.872,0,0,0,0,14.18V51.3a3.872,3.872,0,0,0,3.867,3.867H26.555v3.093H24.1a3.872,3.872,0,0,0-3.867,3.867v2.579A1.289,1.289,0,0,0,21.524,66H44.476a1.289,1.289,0,0,0,1.289-1.289V62.132A3.872,3.872,0,0,0,41.9,58.265H39.445V55.172H62.133A3.872,3.872,0,0,0,66,51.3V14.18A3.872,3.872,0,0,0,62.133,10.313Zm0,2.578a1.291,1.291,0,0,1,1.289,1.289V43.828H59.039V12.891ZM10.828,2.578H55.172a1.291,1.291,0,0,1,1.289,1.289v6.445H9.539V3.867A1.291,1.291,0,0,1,10.828,2.578ZM3.867,12.891H6.961v9.667a1.289,1.289,0,0,0,2.578,0V12.891H56.461V43.828H49.887V39.58A1.289,1.289,0,0,0,48.6,38.291H46.92a14.343,14.343,0,0,0-1.21-2.918L46.9,34.186a1.289,1.289,0,0,0,0-1.823L42.984,28.45a1.289,1.289,0,0,0-1.823,0l-1.186,1.187a14.332,14.332,0,0,0-2.918-1.209V26.75a1.289,1.289,0,0,0-1.289-1.289H30.233a1.289,1.289,0,0,0-1.289,1.289v1.677a14.342,14.342,0,0,0-2.918,1.209L24.839,28.45a1.289,1.289,0,0,0-1.823,0L19.1,32.363a1.289,1.289,0,0,0,0,1.823l1.187,1.186a14.34,14.34,0,0,0-1.21,2.918H17.4a1.289,1.289,0,0,0-1.289,1.289v4.248H9.539V34.159a1.289,1.289,0,0,0-2.578,0v9.669H2.578V14.18a1.291,1.291,0,0,1,1.289-1.289ZM22.822,34.26l-.985-.985,2.091-2.091.985.985a1.289,1.289,0,0,0,1.613.17A11.807,11.807,0,0,1,30.5,30.692a1.289,1.289,0,0,0,1.02-1.261V28.038h2.957v1.392a1.289,1.289,0,0,0,1.02,1.261,11.807,11.807,0,0,1,3.976,1.648,1.289,1.289,0,0,0,1.613-.17l.985-.985,2.091,2.091-.985.985a1.289,1.289,0,0,0-.17,1.613,11.809,11.809,0,0,1,1.648,3.976,1.289,1.289,0,0,0,1.261,1.02h1.392v2.959H39.272a6.446,6.446,0,1,0-12.544,0H18.691V40.869h1.392a1.289,1.289,0,0,0,1.261-1.02,11.807,11.807,0,0,1,1.648-3.976,1.289,1.289,0,0,0-.17-1.613Zm6.31,8.087a3.868,3.868,0,1,1,7.437,1.481H29.431A3.846,3.846,0,0,1,29.132,42.347ZM43.187,62.132v1.29H22.813v-1.29A1.291,1.291,0,0,1,24.1,60.843H41.9a1.29,1.29,0,0,1,1.289,1.289Zm-6.319-3.867H29.133V55.172h7.734Zm25.266-5.672H3.867A1.291,1.291,0,0,1,2.578,51.3v-4.9H63.422v4.9A1.291,1.291,0,0,1,62.133,52.593Z"/>
      <path id="XMLID_1617_" d="M36.867,7.734H50.789a1.289,1.289,0,0,0,0-2.578H36.867a1.289,1.289,0,0,0,0,2.578Z"/>
      <path id="XMLID_1618_" d="M20.883,7.734a1.29,1.29,0,1,0-.911-.378A1.3,1.3,0,0,0,20.883,7.734Z"/>
      <path id="XMLID_1620_" d="M15.211,7.734a1.29,1.29,0,1,0-.911-.378A1.3,1.3,0,0,0,15.211,7.734Z"/>
      <path id="XMLID_1623_" d="M26.555,7.734a1.29,1.29,0,1,0-.911-.378A1.3,1.3,0,0,0,26.555,7.734Z"/>
      <path id="XMLID_1624_" d="M14.438,19.078h3.068a1.289,1.289,0,1,0,0-2.578H14.438a1.289,1.289,0,0,0,0,2.578Z"/>
      <path id="XMLID_1626_" d="M23.177,19.078H35A1.289,1.289,0,0,0,35,16.5H23.177a1.289,1.289,0,0,0,0,2.578Z"/>
      <path id="XMLID_1627_" d="M14.438,25.265h7.477a1.289,1.289,0,0,0,0-2.578H14.438a1.289,1.289,0,0,0,0,2.578Z"/>
      <path id="XMLID_1628_" d="M40.675,19.078H51.563a1.289,1.289,0,0,0,0-2.578H40.675a1.289,1.289,0,0,0,0,2.578Z"/>
      <path id="XMLID_1633_" d="M51.563,22.687H42.74a1.289,1.289,0,0,0,0,2.578h8.822a1.289,1.289,0,0,0,0-2.578Z"/>
      <path id="XMLID_1635_" d="M8.25,29.647a1.29,1.29,0,1,0-.911-.378A1.3,1.3,0,0,0,8.25,29.647Z"/>
    </g>
  </g>
</svg>
